MontserratZ-Black.ufo
<glyph name="parenright" format="2">
  <advance width="381"/>
  <unicode hex="0029"/>
  <outline>
    <contour>
      <point x="201" y="-194" type="qcurve"/>
      <point x="-15" y="-194" type="line"/>
      <point x="53" y="-74"/>
      <point x="113" y="153"/>
      <point x="113" y="274" type="qcurve" smooth="yes"/>
      <point x="113" y="395"/>
      <point x="53" y="622"/>
      <point x="-15" y="742" type="qcurve"/>
      <point x="201" y="742" type="line"/>
      <point x="266" y="652"/>
      <point x="334" y="411"/>
      <point x="334" y="274" type="qcurve" smooth="yes"/>
      <point x="334" y="137"/>
      <point x="266" y="-104"/>
    </contour>
  </outline>
</glyph>
<glyph name="period" format="2">
  <advance width="304"/>
  <unicode hex="002E"/>
  <outline>
    <contour>
      <point x="152" y="-10" type="qcurve" smooth="yes"/>
      <point x="96" y="-10"/>
      <point x="20" y="63"/>
      <point x="20" y="120" type="qcurve" smooth="yes"/>
      <point x="20" y="178"/>
      <point x="96" y="248"/>
      <point x="152" y="248" type="qcurve" smooth="yes"/>
      <point x="208" y="248"/>
      <point x="284" y="178"/>
      <point x="284" y="120" type="qcurve" smooth="yes"/>
      <point x="284" y="63"/>
      <point x="208" y="-10"/>
    </contour>
  </outline>
</glyph>
<glyph name="zero" format="2">
  <advance width="692"/>
  <unicode hex="0030"/>
  <outline>
    <contour>
      <point x="346" y="-16" type="qcurve" smooth="yes"/>
      <point x="253" y="-16"/>
      <point x="110" y="70"/>
      <point x="29" y="234"/>
      <point x="29" y="350" type="qcurve" smooth="yes"/>
      <point x="29" y="466"/>
      <point x="110" y="630"/>
      <point x="253" y="716"/>
      <point x="346" y="716" type="qcurve" smooth="yes"/>
      <point x="439" y="716"/>
      <point x="582" y="630"/>
      <point x="663" y="466"/>
      <point x="663" y="350" type="qcurve" smooth="yes"/>
      <point x="663" y="234"/>
      <point x="582" y="70"/>
      <point x="439" y="-16"/>
    </contour>
    <contour>
      <point x="346" y="173" type="qcurve" smooth="yes"/>
      <point x="369" y="173"/>
      <point x="405" y="205"/>
      <point x="426" y="283"/>
      <point x="426" y="350" type="qcurve" smooth="yes"/>
      <point x="426" y="418"/>
      <point x="405" y="495"/>
      <point x="369" y="527"/>
      <point x="346" y="527" type="qcurve" smooth="yes"/>
      <point x="323" y="527"/>
      <point x="287" y="495"/>
      <point x="266" y="418"/>
      <point x="266" y="350" type="qcurve" smooth="yes"/>
      <point x="266" y="283"/>
      <point x="287" y="205"/>
      <point x="323" y="173"/>
    </contour>
  </outline>
</glyph>
<glyph name="two" format="2">
  <advance width="608"/>
  <unicode hex="0032"/>
  <outline>
    <contour>
      <point x="28" y="0" type="line"/>
      <point x="28" y="145" type="line"/>
      <point x="281" y="379" type="line" smooth="yes"/>
      <point x="305" y="402"/>
      <point x="328" y="436"/>
      <point x="336" y="463"/>
      <point x="336" y="475" type="qcurve" smooth="yes"/>
      <point x="336" y="501"/>
      <point x="302" y="530"/>
      <point x="268" y="530" type="qcurve" smooth="yes"/>
      <point x="237" y="530"/>
      <point x="181" y="497"/>
      <point x="165" y="465" type="qcurve"/>
      <point x="-13" y="554" type="line"/>
      <point x="25" y="626"/>
      <point x="177" y="716"/>
      <point x="290" y="716" type="qcurve" smooth="yes"/>
      <point x="373" y="716"/>
      <point x="501" y="662"/>
      <point x="573" y="564"/>
      <point x="573" y="497" type="qcurve" smooth="yes"/>
      <point x="573" y="463"/>
      <point x="556" y="395"/>
      <point x="504" y="320"/>
      <point x="453" y="274" type="qcurve" smooth="yes"/>
      <point x="263" y="101" type="line"/>
      <point x="226" y="183" type="line"/>
      <point x="589" y="183" type="line"/>
      <point x="589" y="0" type="line"/>
    </contour>
  </outline>
</glyph>
<glyph name="eight" format="2">
  <advance width="678"/>
  <unicode hex="0038"/>
  <outline>
    <contour>
      <point x="339" y="-16" type="qcurve" smooth="yes"/>
      <point x="246" y="-16"/>
      <point x="105" y="39"/>
      <point x="25" y="140"/>
      <point x="25" y="208" type="qcurve" smooth="yes"/>
      <point x="25" y="276"/>
      <point x="107" y="372"/>
      <point x="249" y="422"/>
      <point x="339" y="422" type="qcurve" smooth="yes"/>
      <point x="429" y="422"/>
      <point x="571" y="372"/>
      <point x="653" y="276"/>
      <point x="653" y="208" type="qcurve" smooth="yes"/>
      <point x="653" y="140"/>
      <point x="573" y="39"/>
      <point x="432" y="-16"/>
    </contour>
    <contour>
      <point x="339" y="143" type="qcurve" smooth="yes"/>
      <point x="373" y="143"/>
      <point x="416" y="182"/>
      <point x="416" y="216" type="qcurve" smooth="yes"/>
      <point x="416" y="250"/>
      <point x="373" y="289"/>
      <point x="339" y="289" type="qcurve" smooth="yes"/>
      <point x="305" y="289"/>
      <point x="262" y="250"/>
      <point x="262" y="216" type="qcurve" smooth="yes"/>
      <point x="262" y="182"/>
      <point x="305" y="143"/>
    </contour>
    <contour>
      <point x="339" y="308" type="qcurve" smooth="yes"/>
      <point x="257" y="308"/>
      <point x="126" y="355"/>
      <point x="50" y="444"/>
      <point x="50" y="507" type="qcurve" smooth="yes"/>
      <point x="50" y="571"/>
      <point x="124" y="664"/>
      <point x="254" y="716"/>
      <point x="339" y="716" type="qcurve" smooth="yes"/>
      <point x="424" y="716"/>
      <point x="554" y="664"/>
      <point x="628" y="571"/>
      <point x="628" y="507" type="qcurve" smooth="yes"/>
      <point x="628" y="444"/>
      <point x="552" y="355"/>
      <point x="422" y="308"/>
    </contour>
    <contour>
      <point x="339" y="437" type="qcurve" smooth="yes"/>
      <point x="363" y="437"/>
      <point x="395" y="469"/>
      <point x="395" y="497" type="qcurve" smooth="yes"/>
      <point x="395" y="526"/>
      <point x="363" y="557"/>
      <point x="339" y="557" type="qcurve" smooth="yes"/>
      <point x="315" y="557"/>
      <point x="283" y="526"/>
      <point x="283" y="497" type="qcurve" smooth="yes"/>
      <point x="283" y="469"/>
      <point x="315" y="437"/>
    </contour>
  </outline>
</glyph>
<glyph name="nine" format="2">
  <advance width="661"/>
  <unicode hex="0039"/>
  <outline>
    <contour>
      <point x="296" y="716" type="qcurve" smooth="yes"/>
      <point x="396" y="716"/>
      <point x="547" y="639"/>
      <point x="632" y="487"/>
      <point x="632" y="372" type="qcurve" smooth="yes"/>
      <point x="632" y="249"/>
      <point x="534" y="76"/>
      <point x="360" y="-16"/>
      <point x="244" y="-16" type="qcurve" smooth="yes"/>
      <point x="182" y="-16"/>
      <point x="67" y="13"/>
      <point x="27" y="39" type="qcurve"/>
      <point x="112" y="204" type="line"/>
      <point x="143" y="182"/>
      <point x="206" y="167"/>
      <point x="239" y="167" type="qcurve" smooth="yes"/>
      <point x="310" y="167"/>
      <point x="395" y="252"/>
      <point x="395" y="333" type="qcurve" smooth="yes"/>
      <point x="395" y="348"/>
      <point x="395" y="377"/>
      <point x="395" y="392" type="qcurve"/>
      <point x="449" y="353" type="line"/>
      <point x="430" y="319"/>
      <point x="375" y="272"/>
      <point x="301" y="247"/>
      <point x="252" y="247" type="qcurve" smooth="yes"/>
      <point x="188" y="247"/>
      <point x="79" y="302"/>
      <point x="12" y="403"/>
      <point x="12" y="471" type="qcurve" smooth="yes"/>
      <point x="12" y="546"/>
      <point x="88" y="656"/>
      <point x="217" y="716"/>
    </contour>
    <contour>
      <point x="312" y="553" type="qcurve" smooth="yes"/>
      <point x="291" y="553"/>
      <point x="259" y="536"/>
      <point x="240" y="504"/>
      <point x="240" y="482" type="qcurve" smooth="yes"/>
      <point x="240" y="449"/>
      <point x="281" y="410"/>
      <point x="312" y="410" type="qcurve" smooth="yes"/>
      <point x="333" y="410"/>
      <point x="366" y="428"/>
      <point x="384" y="460"/>
      <point x="384" y="482" type="qcurve" smooth="yes"/>
      <point x="384" y="504"/>
      <point x="366" y="536"/>
      <point x="333" y="553"/>
    </contour>
  </outline>
</glyph>
<glyph name="D" format="2">
  <advance width="826"/>
  <unicode hex="0044"/>
  <anchor x="359" y="700" name="t.uni0308"/>
  <anchor x="206" y="355" name="t.uni0307_1"/>
  <anchor x="361" y="0" name="b.uni0324_3"/>
  <outline>
    <contour>
      <point x="57" y="0" type="line"/>
      <point x="57" y="700" type="line"/>
      <point x="402" y="700" type="line" smooth="yes"/>
      <point x="519" y="700"/>
      <point x="697" y="615"/>
      <point x="797" y="459"/>
      <point x="797" y="351" type="qcurve" smooth="yes"/>
      <point x="797" y="242"/>
      <point x="697" y="85"/>
      <point x="519" y="0"/>
      <point x="402" y="0" type="qcurve" smooth="yes"/>
    </contour>
    <contour>
      <point x="293" y="184" type="line"/>
      <point x="392" y="184" type="line" smooth="yes"/>
      <point x="442" y="184"/>
      <point x="517" y="222"/>
      <point x="559" y="297"/>
      <point x="559" y="351" type="qcurve" smooth="yes"/>
      <point x="559" y="404"/>
      <point x="517" y="478"/>
      <point x="442" y="516"/>
      <point x="392" y="516" type="qcurve" smooth="yes"/>
      <point x="293" y="516" type="line"/>
    </contour>
  </outline>
</glyph>
<glyph name="L" format="2">
  <advance width="617"/>
  <unicode hex="004C"/>
  <anchor x="175" y="700" name="t.uni0308"/>
  <anchor x="484" y="441" name="t.periodcentered.loclCAT"/>
  <anchor x="175" y="400" name="t.uni0307_1"/>
  <anchor x="423" y="700" name="t.uni031B_2"/>
  <anchor x="345" y="0" name="b.uni0324_3"/>
  <outline>
    <contour>
      <point x="57" y="0" type="line"/>
      <point x="57" y="700" type="line"/>
      <point x="293" y="700" type="line"/>
      <point x="293" y="183" type="line"/>
      <point x="609" y="183" type="line"/>
      <point x="609" y="0" type="line"/>
    </contour>
  </outline>
</glyph>
<glyph name="R" format="2">
  <advance width="745"/>
  <unicode hex="0052"/>
  <anchor x="379" y="700" name="t.uni0308"/>
  <anchor x="379" y="0" name="b.uni0324_3"/>
  <outline>
    <contour>
      <point x="57" y="0" type="line"/>
      <point x="57" y="700" type="line"/>
      <point x="394" y="700" type="line" smooth="yes"/>
      <point x="492" y="700"/>
      <point x="635" y="636"/>
      <point x="713" y="517"/>
      <point x="713" y="436" type="qcurve" smooth="yes"/>
      <point x="713" y="355"/>
      <point x="635" y="238"/>
      <point x="492" y="176"/>
      <point x="394" y="176" type="qcurve" smooth="yes"/>
      <point x="188" y="176" type="line"/>
      <point x="293" y="273" type="line"/>
      <point x="293" y="0" type="line"/>
    </contour>
    <contour>
      <point x="476" y="0" type="line"/>
      <point x="304" y="255" type="line"/>
      <point x="554" y="255" type="line"/>
      <point x="728" y="0" type="line"/>
    </contour>
    <contour>
      <point x="293" y="247" type="line"/>
      <point x="188" y="354" type="line"/>
      <point x="379" y="354" type="line" smooth="yes"/>
      <point x="428" y="354"/>
      <point x="475" y="398"/>
      <point x="475" y="436" type="qcurve" smooth="yes"/>
      <point x="475" y="474"/>
      <point x="428" y="518"/>
      <point x="379" y="518" type="qcurve" smooth="yes"/>
      <point x="188" y="518" type="line"/>
      <point x="293" y="625" type="line"/>
    </contour>
  </outline>
</glyph>
<glyph name="U" format="2">
  <advance width="784"/>
  <unicode hex="0055"/>
  <anchor x="394" y="700" name="t.uni0308"/>
  <anchor x="640" y="700" name="t.uni031B_2"/>
  <anchor x="394" y="0" name="b.uni0324_3"/>
  <anchor x="620" y="0" name="m.uni0328_4"/>
  <outline>
    <contour>
      <point x="392" y="-16" type="qcurve" smooth="yes"/>
      <point x="231" y="-16"/>
      <point x="51" y="158"/>
      <point x="51" y="315" type="qcurve" smooth="yes"/>
      <point x="51" y="700" type="line"/>
      <point x="287" y="700" type="line"/>
      <point x="287" y="322" type="line" smooth="yes"/>
      <point x="287" y="242"/>
      <point x="345" y="175"/>
      <point x="394" y="175" type="qcurve" smooth="yes"/>
      <point x="444" y="175"/>
      <point x="501" y="242"/>
      <point x="501" y="322" type="qcurve" smooth="yes"/>
      <point x="501" y="700" type="line"/>
      <point x="733" y="700" type="line"/>
      <point x="733" y="315" type="line" smooth="yes"/>
      <point x="733" y="158"/>
      <point x="553" y="-16"/>
    </contour>
  </outline>
</glyph>
<glyph name="W" format="2">
  <advance width="1206"/>
  <unicode hex="0057"/>
  <anchor x="603" y="700" name="t.uni0308"/>
  <anchor x="603" y="0" name="b.uni0324_3"/>
  <outline>
    <contour>
      <point x="234" y="0" type="line"/>
      <point x="10" y="700" type="line"/>
      <point x="253" y="700" type="line"/>
      <point x="434" y="109" type="line"/>
      <point x="312" y="109" type="line"/>
      <point x="504" y="700" type="line"/>
      <point x="721" y="700" type="line"/>
      <point x="900" y="109" type="line"/>
      <point x="783" y="109" type="line"/>
      <point x="972" y="700" type="line"/>
      <point x="1196" y="700" type="line"/>
      <point x="972" y="0" type="line"/>
      <point x="719" y="0" type="line"/>
      <point x="573" y="484" type="line"/>
      <point x="641" y="484" type="line"/>
      <point x="487" y="0" type="line"/>
    </contour>
  </outline>
</glyph>
<glyph name="bracketleft" format="2">
  <advance width="410"/>
  <unicode hex="005B"/>
  <outline>
    <contour>
      <point x="57" y="-194" type="line"/>
      <point x="57" y="742" type="line"/>
      <point x="400" y="742" type="line"/>
      <point x="400" y="572" type="line"/>
      <point x="283" y="572" type="line"/>
      <point x="283" y="-24" type="line"/>
      <point x="400" y="-24" type="line"/>
      <point x="400" y="-194" type="line"/>
    </contour>
  </outline>
</glyph>
<glyph name="c" format="2">
  <advance width="615"/>
  <unicode hex="0063"/>
  <anchor x="324" y="547" name="t.uni0308"/>
  <anchor x="316" y="0" name="b.uni0324_3"/>
  <outline>
    <contour>
      <point x="344" y="-10" type="qcurve" smooth="yes"/>
      <point x="250" y="-10"/>
      <point x="104" y="62"/>
      <point x="21" y="191"/>
      <point x="21" y="274" type="qcurve" smooth="yes"/>
      <point x="21" y="357"/>
      <point x="104" y="485"/>
      <point x="250" y="557"/>
      <point x="344" y="557" type="qcurve" smooth="yes"/>
      <point x="444" y="557"/>
      <point x="586" y="471"/>
      <point x="613" y="395" type="qcurve"/>
      <point x="438" y="309" type="line"/>
      <point x="421" y="347"/>
      <point x="372" y="381"/>
      <point x="343" y="381" type="qcurve" smooth="yes"/>
      <point x="318" y="381"/>
      <point x="275" y="357"/>
      <point x="250" y="310"/>
      <point x="250" y="274" type="qcurve" smooth="yes"/>
      <point x="250" y="238"/>
      <point x="275" y="190"/>
      <point x="318" y="166"/>
      <point x="343" y="166" type="qcurve" smooth="yes"/>
      <point x="372" y="166"/>
      <point x="421" y="200"/>
      <point x="438" y="238" type="qcurve"/>
      <point x="613" y="152" type="line"/>
      <point x="586" y="76"/>
      <point x="444" y="-10"/>
    </contour>
  </outline>
</glyph>
<glyph name="d" format="2">
  <advance width="705"/>
  <unicode hex="0064"/>
  <anchor x="492" y="640" name="t.uni0307_1"/>
  <anchor x="728" y="742" name="t.uni031B_2"/>
  <anchor x="382" y="0" name="b.uni0324_3"/>
  <outline>
    <contour>
      <point x="290" y="-10" type="qcurve" smooth="yes"/>
      <point x="219" y="-10"/>
      <point x="98" y="59"/>
      <point x="26" y="186"/>
      <point x="26" y="274" type="qcurve" smooth="yes"/>
      <point x="26" y="362"/>
      <point x="98" y="489"/>
      <point x="219" y="557"/>
      <point x="290" y="557" type="qcurve" smooth="yes"/>
      <point x="362" y="557"/>
      <point x="454" y="496"/>
      <point x="498" y="371"/>
      <point x="498" y="274" type="qcurve" smooth="yes"/>
      <point x="498" y="176"/>
      <point x="457" y="50"/>
      <point x="366" y="-10"/>
    </contour>
    <contour>
      <point x="344" y="166" type="qcurve" smooth="yes"/>
      <point x="369" y="166"/>
      <point x="409" y="190"/>
      <point x="433" y="239"/>
      <point x="433" y="274" type="qcurve" smooth="yes"/>
      <point x="433" y="310"/>
      <point x="409" y="357"/>
      <point x="369" y="381"/>
      <point x="344" y="381" type="qcurve" smooth="yes"/>
      <point x="319" y="381"/>
      <point x="279" y="357"/>
      <point x="255" y="310"/>
      <point x="255" y="274" type="qcurve" smooth="yes"/>
      <point x="255" y="239"/>
      <point x="279" y="190"/>
      <point x="319" y="166"/>
    </contour>
    <contour>
      <point x="440" y="0" type="line"/>
      <point x="440" y="74" type="line"/>
      <point x="439" y="274" type="line"/>
      <point x="429" y="474" type="line"/>
      <point x="429" y="742" type="line"/>
      <point x="655" y="742" type="line"/>
      <point x="655" y="0" type="line"/>
    </contour>
  </outline>
</glyph>
<glyph name="e" format="2">
  <advance width="653"/>
  <unicode hex="0065"/>
  <anchor x="327" y="547" name="t.uni0308"/>
  <anchor x="327" y="0" name="b.uni0324_3"/>
  <anchor x="553" y="0" name="m.uni0328_4"/>
  <outline>
    <contour>
      <point x="352" y="-10" type="qcurve" smooth="yes"/>
      <point x="252" y="-10"/>
      <point x="103" y="64"/>
      <point x="21" y="193"/>
      <point x="21" y="274" type="qcurve" smooth="yes"/>
      <point x="21" y="357"/>
      <point x="102" y="485"/>
      <point x="243" y="557"/>
      <point x="331" y="557" type="qcurve" smooth="yes"/>
      <point x="412" y="557"/>
      <point x="549" y="493"/>
      <point x="632" y="367"/>
      <point x="632" y="274" type="qcurve" smooth="yes"/>
      <point x="632" y="262"/>
      <point x="630" y="233"/>
      <point x="629" y="221" type="qcurve"/>
      <point x="208" y="221" type="line"/>
      <point x="208" y="330" type="line"/>
      <point x="509" y="330" type="line"/>
      <point x="424" y="301" type="line"/>
      <point x="424" y="333"/>
      <point x="401" y="378"/>
      <point x="361" y="403"/>
      <point x="333" y="403" type="qcurve" smooth="yes"/>
      <point x="305" y="403"/>
      <point x="264" y="378"/>
      <point x="242" y="333"/>
      <point x="242" y="301" type="qcurve" smooth="yes"/>
      <point x="242" y="267" type="line" smooth="yes"/>
      <point x="242" y="232"/>
      <point x="270" y="182"/>
      <point x="322" y="157"/>
      <point x="359" y="157" type="qcurve" smooth="yes"/>
      <point x="397" y="157"/>
      <point x="446" y="177"/>
      <point x="473" y="197" type="qcurve"/>
      <point x="591" y="78" type="line"/>
      <point x="551" y="35"/>
      <point x="434" y="-10"/>
    </contour>
  </outline>
</glyph>
<glyph name="g" format="2">
  <advance width="711"/>
  <unicode hex="0067"/>
  <anchor x="355" y="547" name="t.uni0308"/>
  <outline>
    <contour>
      <point x="328" y="-204" type="qcurve" smooth="yes"/>
      <point x="247" y="-204"/>
      <point x="105" y="-170"/>
      <point x="54" y="-136" type="qcurve"/>
      <point x="130" y="18" type="line"/>
      <point x="162" y="-7"/>
      <point x="261" y="-36"/>
      <point x="305" y="-36" type="qcurve" smooth="yes"/>
      <point x="375" y="-36"/>
      <point x="435" y="23"/>
      <point x="435" y="78" type="qcurve" smooth="yes"/>
      <point x="435" y="124" type="line"/>
      <point x="445" y="294" type="line"/>
      <point x="446" y="464" type="line"/>
      <point x="446" y="547" type="line"/>
      <point x="661" y="547" type="line"/>
      <point x="661" y="109" type="line" smooth="yes"/>
      <point x="661" y="-50"/>
      <point x="485" y="-204"/>
    </contour>
    <contour>
      <point x="284" y="30" type="qcurve" smooth="yes"/>
      <point x="215" y="30"/>
      <point x="95" y="95"/>
      <point x="21" y="213"/>
      <point x="21" y="294" type="qcurve" smooth="yes"/>
      <point x="21" y="375"/>
      <point x="95" y="493"/>
      <point x="215" y="557"/>
      <point x="284" y="557" type="qcurve" smooth="yes"/>
      <point x="355" y="557"/>
      <point x="446" y="501"/>
      <point x="490" y="384"/>
      <point x="490" y="294" type="qcurve" smooth="yes"/>
      <point x="490" y="204"/>
      <point x="446" y="87"/>
      <point x="355" y="30"/>
    </contour>
    <contour>
      <point x="344" y="206" type="qcurve" smooth="yes"/>
      <point x="371" y="206"/>
      <point x="413" y="228"/>
      <point x="437" y="268"/>
      <point x="437" y="294" type="qcurve" smooth="yes"/>
      <point x="437" y="321"/>
      <point x="413" y="360"/>
      <point x="371" y="381"/>
      <point x="344" y="381" type="qcurve" smooth="yes"/>
      <point x="318" y="381"/>
      <point x="275" y="360"/>
      <point x="250" y="321"/>
      <point x="250" y="294" type="qcurve" smooth="yes"/>
      <point x="250" y="268"/>
      <point x="275" y="228"/>
      <point x="318" y="206"/>
    </contour>
  </outline>
</glyph>
<glyph name="m" format="2">
  <advance width="1040"/>
  <unicode hex="006D"/>
  <anchor x="519" y="0" name="b.uni0324_3"/>
  <outline>
    <contour>
      <point x="774" y="557" type="qcurve" smooth="yes"/>
      <point x="836" y="557"/>
      <point x="935" y="506"/>
      <point x="992" y="398"/>
      <point x="992" y="312" type="qcurve" smooth="yes"/>
      <point x="992" y="0" type="line"/>
      <point x="766" y="0" type="line"/>
      <point x="766" y="273" type="line" smooth="yes"/>
      <point x="766" y="324"/>
      <point x="732" y="367"/>
      <point x="705" y="367" type="qcurve" smooth="yes"/>
      <point x="685" y="367"/>
      <point x="653" y="347"/>
      <point x="634" y="304"/>
      <point x="634" y="267" type="qcurve" smooth="yes"/>
      <point x="634" y="0" type="line"/>
      <point x="408" y="0" type="line"/>
      <point x="408" y="273" type="line" smooth="yes"/>
      <point x="408" y="324"/>
      <point x="376" y="367"/>
      <point x="347" y="367" type="qcurve" smooth="yes"/>
      <point x="327" y="367"/>
      <point x="295" y="347"/>
      <point x="276" y="304"/>
      <point x="276" y="267" type="qcurve" smooth="yes"/>
      <point x="276" y="0" type="line"/>
      <point x="50" y="0" type="line"/>
      <point x="50" y="547" type="line"/>
      <point x="265" y="547" type="line"/>
      <point x="265" y="390" type="line"/>
      <point x="221" y="434" type="line"/>
      <point x="252" y="496"/>
      <point x="356" y="557"/>
      <point x="420" y="557" type="qcurve" smooth="yes"/>
      <point x="492" y="557"/>
      <point x="603" y="482"/>
      <point x="622" y="401" type="qcurve"/>
      <point x="553" y="412" type="line"/>
      <point x="583" y="480"/>
      <point x="698" y="557"/>
    </contour>
  </outline>
</glyph>
<glyph name="q" format="2">
  <advance width="700"/>
  <unicode hex="0071"/>
  <anchor x="339" y="547" name="t.uni0308"/>
  <anchor x="288" y="0" name="b.uni0324_3"/>
  <outline>
    <contour>
      <point x="285" y="-10" type="qcurve" smooth="yes"/>
      <point x="214" y="-10"/>
      <point x="93" y="58"/>
      <point x="21" y="185"/>
      <point x="21" y="273" type="qcurve" smooth="yes"/>
      <point x="21" y="361"/>
      <point x="93" y="488"/>
      <point x="214" y="557"/>
      <point x="285" y="557" type="qcurve" smooth="yes"/>
      <point x="361" y="557"/>
      <point x="452" y="497"/>
      <point x="493" y="372"/>
      <point x="493" y="273" type="qcurve" smooth="yes"/>
      <point x="493" y="176"/>
      <point x="449" y="51"/>
      <point x="357" y="-10"/>
    </contour>
    <contour>
      <point x="339" y="166" type="qcurve" smooth="yes"/>
      <point x="364" y="166"/>
      <point x="404" y="190"/>
      <point x="428" y="238"/>
      <point x="428" y="273" type="qcurve" smooth="yes"/>
      <point x="428" y="309"/>
      <point x="404" y="357"/>
      <point x="364" y="381"/>
      <point x="339" y="381" type="qcurve" smooth="yes"/>
      <point x="314" y="381"/>
      <point x="274" y="357"/>
      <point x="250" y="309"/>
      <point x="250" y="273" type="qcurve" smooth="yes"/>
      <point x="250" y="238"/>
      <point x="274" y="190"/>
      <point x="314" y="166"/>
    </contour>
    <contour>
      <point x="424" y="-194" type="line"/>
      <point x="424" y="73" type="line"/>
      <point x="434" y="273" type="line"/>
      <point x="435" y="473" type="line"/>
      <point x="435" y="547" type="line"/>
      <point x="650" y="547" type="line"/>
      <point x="650" y="-194" type="line"/>
    </contour>
  </outline>
</glyph>
<glyph name="r" format="2">
  <advance width="456"/>
  <unicode hex="0072"/>
  <anchor x="245" y="547" name="t.uni0308"/>
  <anchor x="163" y="0" name="b.uni0324_3"/>
  <outline>
    <contour>
      <point x="50" y="0" type="line"/>
      <point x="50" y="547" type="line"/>
      <point x="265" y="547" type="line"/>
      <point x="265" y="382" type="line"/>
      <point x="230" y="429" type="line"/>
      <point x="255" y="493"/>
      <point x="365" y="557"/>
      <point x="442" y="557" type="qcurve"/>
      <point x="442" y="357" type="line"/>
      <point x="427" y="359"/>
      <point x="404" y="361"/>
      <point x="392" y="361" type="qcurve" smooth="yes"/>
      <point x="341" y="361"/>
      <point x="276" y="308"/>
      <point x="276" y="243" type="qcurve" smooth="yes"/>
      <point x="276" y="0" type="line"/>
    </contour>
  </outline>
</glyph>
<glyph name="v" format="2">
  <advance width="644"/>
  <unicode hex="0076"/>
  <anchor x="322" y="547" name="t.uni0308"/>
  <anchor x="322" y="0" name="b.uni0324_3"/>
  <outline>
    <contour>
      <point x="205" y="0" type="line"/>
      <point x="-15" y="547" type="line"/>
      <point x="217" y="547" type="line"/>
      <point x="384" y="103" type="line"/>
      <point x="267" y="103" type="line"/>
      <point x="445" y="547" type="line"/>
      <point x="659" y="547" type="line"/>
      <point x="439" y="0" type="line"/>
    </contour>
  </outline>
</glyph>
<glyph name="y" format="2">
  <advance width="644"/>
  <unicode hex="0079"/>
  <anchor x="313" y="547" name="t.uni0308"/>
  <anchor x="527" y="0" name="b.uni0324_3"/>
  <outline>
    <contour>
      <point x="170" y="-204" type="qcurve" smooth="yes"/>
      <point x="125" y="-204"/>
      <point x="32" y="-177"/>
      <point x="4" y="-155" type="qcurve"/>
      <point x="79" y="0" type="line"/>
      <point x="96" y="-13"/>
      <point x="139" y="-29"/>
      <point x="159" y="-29" type="qcurve" smooth="yes"/>
      <point x="189" y="-29"/>
      <point x="221" y="-4"/>
      <point x="231" y="21" type="qcurve" smooth="yes"/>
      <point x="254" y="79" type="line"/>
      <point x="270" y="101" type="line"/>
      <point x="445" y="547" type="line"/>
      <point x="659" y="547" type="line"/>
      <point x="434" y="-11" type="line" smooth="yes"/>
      <point x="404" y="-86"/>
      <point x="325" y="-170"/>
      <point x="228" y="-204"/>
    </contour>
    <contour>
      <point x="223" y="-25" type="line"/>
      <point x="-15" y="547" type="line"/>
      <point x="217" y="547" type="line"/>
      <point x="381" y="121" type="line"/>
    </contour>
  </outline>
</glyph>
<glyph name="bar" format="2">
  <advance width="320"/>
  <unicode hex="007C"/>
  <outline>
    <contour>
      <point x="57" y="-194" type="line"/>
      <point x="57" y="742" type="line"/>
      <point x="263" y="742" type="line"/>
      <point x="263" y="-194" type="line"/>
    </contour>
  </outline>
</glyph>
<glyph name="asciitilde" format="2">
  <advance width="620"/>
  <unicode hex="007E"/>
  <outline>
    <contour>
      <point x="409" y="235" type="qcurve" smooth="yes"/>
      <point x="375" y="235"/>
      <point x="323" y="258"/>
      <point x="281" y="287"/>
      <point x="246" y="310"/>
      <point x="229" y="310" type="qcurve" smooth="yes"/>
      <point x="207" y="310"/>
      <point x="180" y="277"/>
      <point x="178" y="247" type="qcurve"/>
      <point x="40" y="247" type="line"/>
      <point x="42" y="351"/>
      <point x="137" y="468"/>
      <point x="211" y="468" type="qcurve" smooth="yes"/>
      <point x="245" y="468"/>
      <point x="298" y="445"/>
      <point x="339" y="416"/>
      <point x="374" y="393"/>
      <point x="391" y="393" type="qcurve" smooth="yes"/>
      <point x="413" y="393"/>
      <point x="441" y="426"/>
      <point x="442" y="456" type="qcurve"/>
      <point x="580" y="456" type="line"/>
      <point x="579" y="352"/>
      <point x="483" y="235"/>
    </contour>
  </outline>
</glyph>
<glyph name="brokenbar" format="2">
  <advance width="320"/>
  <unicode hex="00A6"/>
  <outline>
    <contour>
      <point x="57" y="392" type="line"/>
      <point x="57" y="742" type="line"/>
      <point x="263" y="742" type="line"/>
      <point x="263" y="392" type="line"/>
    </contour>
    <contour>
      <point x="57" y="-194" type="line"/>
      <point x="57" y="156" type="line"/>
      <point x="263" y="156" type="line"/>
      <point x="263" y="-194" type="line"/>
    </contour>
  </outline>
</glyph>
<glyph name="logicalnot" format="2">
  <advance width="620"/>
  <unicode hex="00AC"/>
  <outline>
    <contour>
      <point x="565" y="435" type="line"/>
      <point x="565" y="95" type="line"/>
      <point x="385" y="95" type="line"/>
      <point x="385" y="265" type="line"/>
      <point x="55" y="265" type="line"/>
      <point x="55" y="435" type="line"/>
    </contour>
  </outline>
</glyph>
<glyph name="degree" format="2">
  <advance width="416"/>
  <unicode hex="00B0"/>
  <outline>
    <contour>
      <point x="208" y="349" type="qcurve" smooth="yes"/>
      <point x="157" y="349"/>
      <point x="71" y="397"/>
      <point x="20" y="479"/>
      <point x="20" y="530" type="qcurve" smooth="yes"/>
      <point x="20" y="581"/>
      <point x="71" y="663"/>
      <point x="157" y="711"/>
      <point x="208" y="711" type="qcurve" smooth="yes"/>
      <point x="260" y="711"/>
      <point x="345" y="663"/>
      <point x="396" y="581"/>
      <point x="396" y="530" type="qcurve" smooth="yes"/>
      <point x="396" y="479"/>
      <point x="345" y="397"/>
      <point x="260" y="349"/>
    </contour>
    <contour>
      <point x="208" y="453" type="qcurve" smooth="yes"/>
      <point x="230" y="453"/>
      <point x="264" y="474"/>
      <point x="284" y="508"/>
      <point x="284" y="530" type="qcurve" smooth="yes"/>
      <point x="284" y="552"/>
      <point x="264" y="586"/>
      <point x="230" y="607"/>
      <point x="208" y="607" type="qcurve" smooth="yes"/>
      <point x="186" y="607"/>
      <point x="152" y="586"/>
      <point x="132" y="552"/>
      <point x="132" y="530" type="qcurve" smooth="yes"/>
      <point x="132" y="508"/>
      <point x="152" y="474"/>
      <point x="186" y="453"/>
    </contour>
  </outline>
</glyph>
<glyph name="ordmasculine" format="2">
  <advance width="438"/>
  <unicode hex="00BA"/>
  <outline>
    <contour>
      <point x="220" y="414" type="qcurve" smooth="yes"/>
      <point x="160" y="414"/>
      <point x="68" y="457"/>
      <point x="16" y="534"/>
      <point x="16" y="583" type="qcurve" smooth="yes"/>
      <point x="16" y="633"/>
      <point x="68" y="709"/>
      <point x="160" y="752"/>
      <point x="219" y="752" type="qcurve" smooth="yes"/>
      <point x="279" y="752"/>
      <point x="370" y="709"/>
      <point x="422" y="633"/>
      <point x="422" y="583" type="qcurve" smooth="yes"/>
      <point x="422" y="534"/>
      <point x="370" y="457"/>
      <point x="279" y="414"/>
    </contour>
    <contour>
      <point x="219" y="524" type="qcurve" smooth="yes"/>
      <point x="241" y="524"/>
      <point x="271" y="554"/>
      <point x="271" y="583" type="qcurve" smooth="yes"/>
      <point x="271" y="613"/>
      <point x="241" y="642"/>
      <point x="219" y="642" type="qcurve" smooth="yes"/>
      <point x="197" y="642"/>
      <point x="167" y="613"/>
      <point x="167" y="583" type="qcurve" smooth="yes"/>
      <point x="167" y="554"/>
      <point x="197" y="524"/>
    </contour>
  </outline>
</glyph>
<glyph name="questiondown" format="2">
  <advance width="606"/>
  <unicode hex="00BF"/>
  <outline>
    <contour>
      <point x="307" y="-169" type="qcurve" smooth="yes"/>
      <point x="229" y="-169"/>
      <point x="105" y="-126"/>
      <point x="33" y="-41"/>
      <point x="33" y="22" type="qcurve" smooth="yes"/>
      <point x="33" y="60"/>
      <point x="56" y="118"/>
      <point x="93" y="161"/>
      <point x="133" y="197"/>
      <point x="170" y="228"/>
      <point x="193" y="260"/>
      <point x="193" y="279" type="qcurve"/>
      <point x="399" y="279" type="line"/>
      <point x="399" y="249"/>
      <point x="380" y="201"/>
      <point x="351" y="163"/>
      <point x="318" y="132"/>
      <point x="289" y="104"/>
      <point x="270" y="76"/>
      <point x="270" y="61" type="qcurve" smooth="yes"/>
      <point x="270" y="38"/>
      <point x="309" y="14"/>
      <point x="337" y="14" type="qcurve" smooth="yes"/>
      <point x="369" y="14"/>
      <point x="425" y="51"/>
      <point x="441" y="82" type="qcurve"/>
      <point x="619" y="-7" type="line"/>
      <point x="581" y="-79"/>
      <point x="427" y="-169"/>
    </contour>
    <contour>
      <point x="296" y="319" type="qcurve" smooth="yes"/>
      <point x="238" y="319"/>
      <point x="164" y="387"/>
      <point x="164" y="437" type="qcurve" smooth="yes"/>
      <point x="164" y="487"/>
      <point x="238" y="557"/>
      <point x="296" y="557" type="qcurve" smooth="yes"/>
      <point x="355" y="557"/>
      <point x="428" y="487"/>
      <point x="428" y="437" type="qcurve" smooth="yes"/>
      <point x="428" y="387"/>
      <point x="355" y="319"/>
    </contour>
  </outline>
</glyph>
<glyph name="Thorn" format="2">
  <advance width="743"/>
  <unicode hex="00DE"/>
  <outline>
    <contour>
      <point x="245" y="105" type="line"/>
      <point x="245" y="287" type="line"/>
      <point x="379" y="287" type="line" smooth="yes"/>
      <point x="428" y="287"/>
      <point x="475" y="331"/>
      <point x="475" y="369" type="qcurve" smooth="yes"/>
      <point x="475" y="407"/>
      <point x="428" y="451"/>
      <point x="379" y="451" type="qcurve" smooth="yes"/>
      <point x="245" y="451" type="line"/>
      <point x="245" y="633" type="line"/>
      <point x="394" y="633" type="line" smooth="yes"/>
      <point x="492" y="633"/>
      <point x="635" y="569"/>
      <point x="713" y="450"/>
      <point x="713" y="369" type="qcurve" smooth="yes"/>
      <point x="713" y="288"/>
      <point x="635" y="169"/>
      <point x="492" y="105"/>
      <point x="394" y="105" type="qcurve" smooth="yes"/>
    </contour>
    <contour>
      <point x="57" y="0" type="line"/>
      <point x="57" y="701" type="line"/>
      <point x="293" y="701" type="line"/>
      <point x="293" y="0" type="line"/>
    </contour>
  </outline>
</glyph>
<glyph name="ae" format="2">
  <advance width="1003"/>
  <unicode hex="00E6"/>
  <anchor x="478" y="547" name="t.uni0308"/>
  <anchor x="475" y="0" name="b.uni0324_3"/>
  <outline>
    <contour>
      <point x="270" y="-10" type="qcurve" smooth="yes"/>
      <point x="154" y="-10"/>
      <point x="23" y="88"/>
      <point x="23" y="168" type="qcurve" smooth="yes"/>
      <point x="23" y="218"/>
      <point x="77" y="289"/>
      <point x="188" y="328"/>
      <point x="273" y="328" type="qcurve" smooth="yes"/>
      <point x="381" y="328" type="line"/>
      <point x="381" y="219" type="line"/>
      <point x="309" y="219" type="line" smooth="yes"/>
      <point x="272" y="219"/>
      <point x="240" y="194"/>
      <point x="240" y="173" type="qcurve" smooth="yes"/>
      <point x="240" y="152"/>
      <point x="268" y="126"/>
      <point x="296" y="126" type="qcurve" smooth="yes"/>
      <point x="329" y="126"/>
      <point x="365" y="166"/>
      <point x="365" y="200" type="qcurve" smooth="yes"/>
      <point x="365" y="307" type="line" smooth="yes"/>
      <point x="365" y="345"/>
      <point x="316" y="389"/>
      <point x="262" y="389" type="qcurve" smooth="yes"/>
      <point x="223" y="389"/>
      <point x="148" y="366"/>
      <point x="121" y="346" type="qcurve"/>
      <point x="49" y="495" type="line"/>
      <point x="97" y="525"/>
      <point x="229" y="557"/>
      <point x="294" y="557" type="qcurve" smooth="yes"/>
      <point x="374" y="557"/>
      <point x="498" y="506"/>
      <point x="532" y="451" type="qcurve"/>
      <point x="444" y="451" type="line"/>
      <point x="485" y="501"/>
      <point x="612" y="557"/>
      <point x="685" y="557" type="qcurve" smooth="yes"/>
      <point x="743" y="557"/>
      <point x="849" y="520"/>
      <point x="933" y="449"/>
      <point x="982" y="344"/>
      <point x="982" y="276" type="qcurve" smooth="yes"/>
      <point x="982" y="260"/>
      <point x="980" y="231"/>
      <point x="978" y="219" type="qcurve"/>
      <point x="576" y="219" type="line"/>
      <point x="576" y="328" type="line"/>
      <point x="810" y="328" type="line"/>
      <point x="768" y="301" type="line"/>
      <point x="768" y="333"/>
      <point x="746" y="378"/>
      <point x="707" y="403"/>
      <point x="681" y="403" type="qcurve" smooth="yes"/>
      <point x="655" y="403"/>
      <point x="614" y="378"/>
      <point x="591" y="333"/>
      <point x="591" y="301" type="qcurve" smooth="yes"/>
      <point x="591" y="267" type="line" smooth="yes"/>
      <point x="591" y="232"/>
      <point x="618" y="182"/>
      <point x="670" y="157"/>
      <point x="707" y="157" type="qcurve" smooth="yes"/>
      <point x="740" y="157"/>
      <point x="794" y="177"/>
      <point x="822" y="197" type="qcurve"/>
      <point x="940" y="78" type="line"/>
      <point x="899" y="35"/>
      <point x="779" y="-10"/>
      <point x="704" y="-10" type="qcurve" smooth="yes"/>
      <point x="643" y="-10"/>
      <point x="531" y="23"/>
      <point x="441" y="95"/>
      <point x="412" y="155" type="qcurve"/>
      <point x="515" y="155" type="line"/>
      <point x="492" y="90"/>
      <point x="419" y="18"/>
      <point x="325" y="-10"/>
    </contour>
  </outline>
</glyph>
<glyph name="divide" format="2">
  <advance width="620"/>
  <unicode hex="00F7"/>
  <outline>
    <contour>
      <point x="55" y="265" type="line"/>
      <point x="55" y="435" type="line"/>
      <point x="565" y="435" type="line"/>
      <point x="565" y="265" type="line"/>
    </contour>
    <contour>
      <point x="310" y="20" type="qcurve" smooth="yes"/>
      <point x="263" y="20"/>
      <point x="198" y="82"/>
      <point x="198" y="130" type="qcurve" smooth="yes"/>
      <point x="198" y="179"/>
      <point x="263" y="238"/>
      <point x="310" y="238" type="qcurve" smooth="yes"/>
      <point x="357" y="238"/>
      <point x="422" y="179"/>
      <point x="422" y="130" type="qcurve" smooth="yes"/>
      <point x="422" y="82"/>
      <point x="357" y="20"/>
    </contour>
    <contour>
      <point x="310" y="462" type="qcurve" smooth="yes"/>
      <point x="263" y="462"/>
      <point x="198" y="524"/>
      <point x="198" y="572" type="qcurve" smooth="yes"/>
      <point x="198" y="621"/>
      <point x="263" y="680"/>
      <point x="310" y="680" type="qcurve" smooth="yes"/>
      <point x="357" y="680"/>
      <point x="422" y="621"/>
      <point x="422" y="572" type="qcurve" smooth="yes"/>
      <point x="422" y="524"/>
      <point x="357" y="462"/>
    </contour>
  </outline>
</glyph>
<glyph name="thorn" format="2">
  <advance width="700"/>
  <unicode hex="00FE"/>
  <anchor x="412" y="547" name="t.uni0308"/>
  <anchor x="412" y="0" name="b.uni0324_3"/>
  <outline>
    <contour>
      <point x="416" y="-10" type="qcurve" smooth="yes"/>
      <point x="344" y="-10"/>
      <point x="251" y="51"/>
      <point x="207" y="176"/>
      <point x="207" y="273" type="qcurve" smooth="yes"/>
      <point x="207" y="372"/>
      <point x="248" y="497"/>
      <point x="340" y="557"/>
      <point x="415" y="557" type="qcurve" smooth="yes"/>
      <point x="487" y="557"/>
      <point x="607" y="488"/>
      <point x="679" y="361"/>
      <point x="679" y="273" type="qcurve" smooth="yes"/>
      <point x="679" y="185"/>
      <point x="607" y="58"/>
      <point x="487" y="-10"/>
    </contour>
    <contour>
      <point x="50" y="-194" type="line"/>
      <point x="50" y="742" type="line"/>
      <point x="276" y="742" type="line"/>
      <point x="276" y="473" type="line"/>
      <point x="266" y="273" type="line"/>
      <point x="276" y="73" type="line"/>
      <point x="276" y="-194" type="line"/>
    </contour>
    <contour>
      <point x="361" y="166" type="qcurve" smooth="yes"/>
      <point x="386" y="166"/>
      <point x="426" y="190"/>
      <point x="450" y="238"/>
      <point x="450" y="273" type="qcurve" smooth="yes"/>
      <point x="450" y="309"/>
      <point x="426" y="357"/>
      <point x="386" y="381"/>
      <point x="361" y="381" type="qcurve" smooth="yes"/>
      <point x="336" y="381"/>
      <point x="296" y="357"/>
      <point x="272" y="309"/>
      <point x="272" y="273" type="qcurve" smooth="yes"/>
      <point x="272" y="238"/>
      <point x="296" y="190"/>
      <point x="336" y="166"/>
    </contour>
  </outline>
</glyph>
<glyph name="IJ" format="2">
  <advance width="729"/>
  <unicode hex="0132"/>
  <anchor x="169" y="700" name="t.uni0308"/>
  <outline>
    <contour>
      <point x="328" y="-16" type="qcurve" smooth="yes"/>
      <point x="238" y="-16"/>
      <point x="86" y="30"/>
      <point x="31" y="69" type="qcurve"/>
      <point x="117" y="236" type="line"/>
      <point x="167" y="205"/>
      <point x="273" y="172"/>
      <point x="317" y="172" type="qcurve" smooth="yes"/>
      <point x="382" y="172"/>
      <point x="442" y="239"/>
      <point x="442" y="312" type="qcurve" smooth="yes"/>
      <point x="442" y="700" type="line"/>
      <point x="678" y="700" type="line"/>
      <point x="678" y="325" type="line" smooth="yes"/>
      <point x="678" y="215"/>
      <point x="591" y="63"/>
      <point x="433" y="-16"/>
    </contour>
    <contour>
      <point x="51" y="336" type="line"/>
      <point x="51" y="700" type="line"/>
      <point x="287" y="700" type="line"/>
      <point x="287" y="336" type="line"/>
    </contour>
  </outline>
</glyph>
<glyph name="Eng" format="2">
  <advance width="804"/>
  <unicode hex="014A"/>
  <outline>
    <contour>
      <point x="57" y="0" type="line"/>
      <point x="57" y="700" type="line"/>
      <point x="251" y="700" type="line"/>
      <point x="607" y="274" type="line"/>
      <point x="553" y="0" type="line"/>
      <point x="197" y="426" type="line"/>
      <point x="287" y="426" type="line"/>
      <point x="287" y="0" type="line"/>
    </contour>
    <contour>
      <point x="461" y="-204" type="qcurve" smooth="yes"/>
      <point x="404" y="-204"/>
      <point x="305" y="-180"/>
      <point x="264" y="-153" type="qcurve"/>
      <point x="372" y="5" type="line"/>
      <point x="389" y="-7"/>
      <point x="423" y="-20"/>
      <point x="441" y="-20" type="qcurve" smooth="yes"/>
      <point x="517" y="-20"/>
      <point x="517" y="67" type="qcurve" smooth="yes"/>
      <point x="517" y="700" type="line"/>
      <point x="747" y="700" type="line"/>
      <point x="747" y="102" type="line" smooth="yes"/>
      <point x="747" y="-57"/>
      <point x="602" y="-204"/>
    </contour>
  </outline>
</glyph>
<glyph name="OE" format="2">
  <advance width="1149"/>
  <unicode hex="0152"/>
  <anchor x="649" y="700" name="t.uni0308"/>
  <anchor x="649" y="0" name="b.uni0324_3"/>
  <outline>
    <contour>
      <point x="424" y="0" type="line" smooth="yes"/>
      <point x="307" y="0"/>
      <point x="129" y="85"/>
      <point x="29" y="242"/>
      <point x="29" y="351" type="qcurve" smooth="yes"/>
      <point x="29" y="459"/>
      <point x="129" y="615"/>
      <point x="307" y="700"/>
      <point x="424" y="700" type="qcurve" smooth="yes"/>
      <point x="593" y="700" type="line"/>
      <point x="593" y="516" type="line"/>
      <point x="434" y="516" type="line" smooth="yes"/>
      <point x="385" y="516"/>
      <point x="309" y="478"/>
      <point x="267" y="404"/>
      <point x="267" y="351" type="qcurve" smooth="yes"/>
      <point x="267" y="297"/>
      <point x="309" y="222"/>
      <point x="385" y="184"/>
      <point x="434" y="184" type="qcurve" smooth="yes"/>
      <point x="593" y="184" type="line"/>
      <point x="593" y="0" type="line"/>
    </contour>
    <contour>
      <point x="749" y="440" type="line"/>
      <point x="1061" y="440" type="line"/>
      <point x="1061" y="270" type="line"/>
      <point x="749" y="270" type="line"/>
    </contour>
    <contour>
      <point x="765" y="178" type="line"/>
      <point x="1115" y="178" type="line"/>
      <point x="1115" y="0" type="line"/>
      <point x="533" y="0" type="line"/>
      <point x="533" y="700" type="line"/>
      <point x="1102" y="700" type="line"/>
      <point x="1102" y="522" type="line"/>
      <point x="765" y="522" type="line"/>
    </contour>
  </outline>
</glyph>
<glyph name="oe" format="2">
  <advance width="1062"/>
  <unicode hex="0153"/>
  <anchor x="540" y="547" name="t.uni0308"/>
  <anchor x="540" y="0" name="b.uni0324_3"/>
  <outline>
    <contour>
      <point x="335" y="-10" type="qcurve" smooth="yes"/>
      <point x="245" y="-10"/>
      <point x="103" y="63"/>
      <point x="21" y="191"/>
      <point x="21" y="274" type="qcurve" smooth="yes"/>
      <point x="21" y="357"/>
      <point x="103" y="485"/>
      <point x="245" y="557"/>
      <point x="335" y="557" type="qcurve" smooth="yes"/>
      <point x="425" y="557"/>
      <point x="555" y="485"/>
      <point x="625" y="357"/>
      <point x="625" y="274" type="qcurve" smooth="yes"/>
      <point x="625" y="191"/>
      <point x="555" y="63"/>
      <point x="425" y="-10"/>
    </contour>
    <contour>
      <point x="339" y="166" type="qcurve" smooth="yes"/>
      <point x="364" y="166"/>
      <point x="404" y="190"/>
      <point x="428" y="239"/>
      <point x="428" y="274" type="qcurve" smooth="yes"/>
      <point x="428" y="310"/>
      <point x="404" y="357"/>
      <point x="364" y="381"/>
      <point x="339" y="381" type="qcurve" smooth="yes"/>
      <point x="314" y="381"/>
      <point x="274" y="357"/>
      <point x="250" y="310"/>
      <point x="250" y="274" type="qcurve" smooth="yes"/>
      <point x="250" y="239"/>
      <point x="274" y="190"/>
      <point x="314" y="166"/>
    </contour>
    <contour>
      <point x="760" y="-10" type="qcurve" smooth="yes"/>
      <point x="662" y="-10"/>
      <point x="522" y="64"/>
      <point x="448" y="193"/>
      <point x="448" y="274" type="qcurve" smooth="yes"/>
      <point x="448" y="357"/>
      <point x="521" y="485"/>
      <point x="653" y="557"/>
      <point x="739" y="557" type="qcurve" smooth="yes"/>
      <point x="819" y="557"/>
      <point x="956" y="493"/>
      <point x="1041" y="368"/>
      <point x="1041" y="277" type="qcurve" smooth="yes"/>
      <point x="1041" y="261"/>
      <point x="1039" y="233"/>
      <point x="1037" y="221" type="qcurve"/>
      <point x="636" y="221" type="line"/>
      <point x="636" y="330" type="line"/>
      <point x="869" y="330" type="line"/>
      <point x="829" y="301" type="line"/>
      <point x="829" y="333"/>
      <point x="808" y="378"/>
      <point x="768" y="403"/>
      <point x="739" y="403" type="qcurve" smooth="yes"/>
      <point x="711" y="403"/>
      <point x="669" y="378"/>
      <point x="647" y="333"/>
      <point x="647" y="301" type="qcurve" smooth="yes"/>
      <point x="647" y="267" type="line" smooth="yes"/>
      <point x="647" y="232"/>
      <point x="674" y="182"/>
      <point x="728" y="157"/>
      <point x="766" y="157" type="qcurve" smooth="yes"/>
      <point x="799" y="157"/>
      <point x="850" y="177"/>
      <point x="878" y="197" type="qcurve"/>
      <point x="999" y="78" type="line"/>
      <point x="958" y="35"/>
      <point x="834" y="-10"/>
    </contour>
  </outline>
</glyph>
<glyph name="Uogonek" format="2">
  <advance width="784"/>
  <unicode hex="0172"/>
  <outline>
    <contour>
      <point x="501" y="700" type="line"/>
      <point x="733" y="700" type="line"/>
      <point x="733" y="315" type="line" smooth="yes"/>
      <point x="733" y="191"/>
      <point x="626" y="41"/>
      <point x="540" y="7" type="qcurve" smooth="yes"/>
      <point x="487" y="-14"/>
      <point x="426" y="-50"/>
      <point x="402" y="-81"/>
      <point x="402" y="-97" type="qcurve" smooth="yes"/>
      <point x="402" y="-114"/>
      <point x="427" y="-138"/>
      <point x="455" y="-138" type="qcurve" smooth="yes"/>
      <point x="472" y="-138"/>
      <point x="503" y="-129"/>
      <point x="514" y="-124" type="qcurve"/>
      <point x="541" y="-217" type="line"/>
      <point x="523" y="-227"/>
      <point x="460" y="-240"/>
      <point x="428" y="-240" type="qcurve" smooth="yes"/>
      <point x="353" y="-240"/>
      <point x="270" y="-173"/>
      <point x="270" y="-117" type="qcurve" smooth="yes"/>
      <point x="270" y="-80"/>
      <point x="309" y="-17"/>
      <point x="384" y="33"/>
      <point x="437" y="49" type="qcurve"/>
      <point x="442" y="-14" type="line"/>
      <point x="429" y="-15"/>
      <point x="405" y="-16"/>
      <point x="392" y="-16" type="qcurve" smooth="yes"/>
      <point x="231" y="-16"/>
      <point x="51" y="158"/>
      <point x="51" y="315" type="qcurve" smooth="yes"/>
      <point x="51" y="700" type="line"/>
      <point x="287" y="700" type="line"/>
      <point x="287" y="322" type="line" smooth="yes"/>
      <point x="287" y="242"/>
      <point x="345" y="175"/>
      <point x="394" y="175" type="qcurve" smooth="yes"/>
      <point x="444" y="175"/>
      <point x="501" y="242"/>
      <point x="501" y="322" type="qcurve" smooth="yes"/>
    </contour>
  </outline>
</glyph>
<glyph name="longs" format="2">
  <advance width="366"/>
  <unicode hex="017F"/>
  <outline>
    <contour>
      <point x="88" y="0" type="line"/>
      <point x="88" y="520" type="line" smooth="yes"/>
      <point x="88" y="626"/>
      <point x="215" y="752"/>
      <point x="332" y="752" type="qcurve" smooth="yes"/>
      <point x="368" y="752"/>
      <point x="441" y="739"/>
      <point x="466" y="725" type="qcurve"/>
      <point x="412" y="568" type="line"/>
      <point x="401" y="573"/>
      <point x="375" y="581"/>
      <point x="361" y="581" type="qcurve" smooth="yes"/>
      <point x="337" y="581"/>
      <point x="314" y="551"/>
      <point x="314" y="518" type="qcurve" smooth="yes"/>
      <point x="314" y="0" type="line"/>
    </contour>
    <contour>
      <point x="13" y="352" type="line"/>
      <point x="13" y="517" type="line"/>
      <point x="208" y="517" type="line"/>
      <point x="208" y="352" type="line"/>
    </contour>
  </outline>
</glyph>
<glyph name="florin" format="2">
  <advance width="520"/>
  <unicode hex="0192"/>
  <outline>
    <contour>
      <point x="42" y="-204" type="qcurve" smooth="yes"/>
      <point x="2" y="-204"/>
      <point x="-69" y="-190"/>
      <point x="-94" y="-177" type="qcurve"/>
      <point x="-21" y="-20" type="line"/>
      <point x="3" y="-33"/>
      <point x="29" y="-33" type="qcurve" smooth="yes"/>
      <point x="49" y="-33"/>
      <point x="80" y="-3"/>
      <point x="84" y="30" type="qcurve" smooth="yes"/>
      <point x="144" y="520" type="line" smooth="yes"/>
      <point x="157" y="627"/>
      <point x="299" y="752"/>
      <point x="416" y="752" type="qcurve" smooth="yes"/>
      <point x="452" y="752"/>
      <point x="524" y="739"/>
      <point x="547" y="725" type="qcurve"/>
      <point x="474" y="568" type="line"/>
      <point x="463" y="573"/>
      <point x="438" y="581"/>
      <point x="424" y="581" type="qcurve" smooth="yes"/>
      <point x="400" y="581"/>
      <point x="366" y="551"/>
      <point x="362" y="518" type="qcurve" smooth="yes"/>
      <point x="359" y="492" type="line"/>
      <point x="355" y="399" type="line"/>
      <point x="309" y="28" type="line" smooth="yes"/>
      <point x="296" y="-78"/>
      <point x="155" y="-204"/>
    </contour>
    <contour>
      <point x="48" y="352" type="line"/>
      <point x="68" y="517" type="line"/>
      <point x="481" y="517" type="line"/>
      <point x="461" y="352" type="line"/>
    </contour>
  </outline>
</glyph>
<glyph name="ohorn" format="2">
  <advance width="678"/>
  <unicode hex="01A1"/>
  <anchor x="339" y="547" name="t.uni0308"/>
  <anchor x="339" y="0" name="b.uni0324_3"/>
  <outline>
    <contour>
      <point x="339" y="-10" type="qcurve" smooth="yes"/>
      <point x="246" y="-10"/>
      <point x="103" y="63"/>
      <point x="21" y="191"/>
      <point x="21" y="274" type="qcurve" smooth="yes"/>
      <point x="21" y="357"/>
      <point x="103" y="485"/>
      <point x="248" y="557"/>
      <point x="342" y="557" type="qcurve" smooth="yes"/>
      <point x="367" y="557"/>
      <point x="410" y="552"/>
      <point x="445" y="547"/>
      <point x="459" y="547" type="qcurve" smooth="yes"/>
      <point x="484" y="547"/>
      <point x="509" y="580"/>
      <point x="509" y="608" type="qcurve" smooth="yes"/>
      <point x="509" y="625"/>
      <point x="496" y="655"/>
      <point x="487" y="665" type="qcurve"/>
      <point x="615" y="710" type="line"/>
      <point x="632" y="688"/>
      <point x="654" y="633"/>
      <point x="654" y="599" type="qcurve" smooth="yes"/>
      <point x="654" y="545"/>
      <point x="599" y="463"/>
      <point x="503" y="418"/>
      <point x="442" y="418" type="qcurve" smooth="yes"/>
      <point x="411" y="418"/>
      <point x="353" y="425"/>
      <point x="329" y="430" type="qcurve"/>
      <point x="480" y="530" type="line"/>
      <point x="563" y="497"/>
      <point x="657" y="363"/>
      <point x="657" y="274" type="qcurve" smooth="yes"/>
      <point x="657" y="191"/>
      <point x="575" y="63"/>
      <point x="432" y="-10"/>
    </contour>
    <contour>
      <point x="339" y="166" type="qcurve" smooth="yes"/>
      <point x="364" y="166"/>
      <point x="404" y="190"/>
      <point x="428" y="239"/>
      <point x="428" y="274" type="qcurve" smooth="yes"/>
      <point x="428" y="310"/>
      <point x="404" y="357"/>
      <point x="364" y="381"/>
      <point x="339" y="381" type="qcurve" smooth="yes"/>
      <point x="314" y="381"/>
      <point x="274" y="357"/>
      <point x="250" y="310"/>
      <point x="250" y="274" type="qcurve" smooth="yes"/>
      <point x="250" y="239"/>
      <point x="274" y="190"/>
      <point x="314" y="166"/>
    </contour>
  </outline>
</glyph>
<glyph name="uni01E5" format="2">
  <advance width="725"/>
  <unicode hex="01E5"/>
  <outline>
    <contour>
      <point x="324" y="-204" type="qcurve" smooth="yes"/>
      <point x="245" y="-204"/>
      <point x="103" y="-168"/>
      <point x="54" y="-136" type="qcurve"/>
      <point x="130" y="8" type="line"/>
      <point x="160" y="-16"/>
      <point x="258" y="-46"/>
      <point x="307" y="-46" type="qcurve" smooth="yes"/>
      <point x="372" y="-46"/>
      <point x="435" y="11"/>
      <point x="435" y="68" type="qcurve" smooth="yes"/>
      <point x="435" y="114" type="line"/>
      <point x="445" y="294" type="line"/>
      <point x="446" y="464" type="line"/>
      <point x="446" y="547" type="line"/>
      <point x="661" y="547" type="line"/>
      <point x="661" y="109" type="line" smooth="yes"/>
      <point x="661" y="-45"/>
      <point x="490" y="-204"/>
    </contour>
    <contour>
      <point x="262" y="-11" type="line"/>
      <point x="262" y="69" type="line"/>
      <point x="724" y="70" type="line"/>
      <point x="724" y="-10" type="line"/>
    </contour>
    <contour>
      <point x="274" y="92" type="qcurve" smooth="yes"/>
      <point x="197" y="92"/>
      <point x="83" y="152"/>
      <point x="21" y="257"/>
      <point x="21" y="324" type="qcurve" smooth="yes"/>
      <point x="21" y="391"/>
      <point x="83" y="496"/>
      <point x="196" y="556"/>
      <point x="273" y="556" type="qcurve" smooth="yes"/>
      <point x="341" y="556"/>
      <point x="438" y="504"/>
      <point x="490" y="401"/>
      <point x="490" y="322" type="qcurve" smooth="yes"/>
      <point x="490" y="244"/>
      <point x="439" y="142"/>
      <point x="342" y="92"/>
    </contour>
    <contour>
      <point x="344" y="243" type="qcurve" smooth="yes"/>
      <point x="373" y="243"/>
      <point x="415" y="262"/>
      <point x="437" y="299"/>
      <point x="437" y="324" type="qcurve" smooth="yes"/>
      <point x="437" y="350"/>
      <point x="415" y="386"/>
      <point x="373" y="405"/>
      <point x="344" y="405" type="qcurve" smooth="yes"/>
      <point x="315" y="405"/>
      <point x="272" y="386"/>
      <point x="250" y="350"/>
      <point x="250" y="324" type="qcurve" smooth="yes"/>
      <point x="250" y="299"/>
      <point x="272" y="262"/>
      <point x="315" y="243"/>
    </contour>
  </outline>
</glyph>
<glyph name="uni01EA" format="2">
  <advance width="848"/>
  <unicode hex="01EA"/>
  <anchor x="424" y="700" name="t.uni0308"/>
  <outline>
    <contour>
      <point x="459" y="-240" type="qcurve" smooth="yes"/>
      <point x="384" y="-240"/>
      <point x="301" y="-173"/>
      <point x="301" y="-117" type="qcurve" smooth="yes"/>
      <point x="301" y="-80"/>
      <point x="340" y="-17"/>
      <point x="415" y="33"/>
      <point x="468" y="49" type="qcurve"/>
      <point x="480" y="-13" type="line"/>
      <point x="461" y="-14"/>
      <point x="435" y="-16"/>
      <point x="424" y="-16" type="qcurve" smooth="yes"/>
      <point x="339" y="-16"/>
      <point x="194" y="38"/>
      <point x="88" y="137"/>
      <point x="29" y="271"/>
      <point x="29" y="350" type="qcurve" smooth="yes"/>
      <point x="29" y="430"/>
      <point x="88" y="563"/>
      <point x="194" y="662"/>
      <point x="339" y="716"/>
      <point x="424" y="716" type="qcurve" smooth="yes"/>
      <point x="510" y="716"/>
      <point x="654" y="662"/>
      <point x="760" y="563"/>
      <point x="819" y="430"/>
      <point x="819" y="350" type="qcurve" smooth="yes"/>
      <point x="819" y="264"/>
      <point x="752" y="126"/>
      <point x="637" y="30"/>
      <point x="564" y="5" type="qcurve" smooth="yes"/>
      <point x="514" y="-12"/>
      <point x="456" y="-46"/>
      <point x="433" y="-80"/>
      <point x="433" y="-97" type="qcurve" smooth="yes"/>
      <point x="433" y="-114"/>
      <point x="458" y="-138"/>
      <point x="486" y="-138" type="qcurve" smooth="yes"/>
      <point x="503" y="-138"/>
      <point x="534" y="-129"/>
      <point x="545" y="-124" type="qcurve"/>
      <point x="572" y="-217" type="line"/>
      <point x="554" y="-227"/>
      <point x="491" y="-240"/>
    </contour>
    <contour>
      <point x="424" y="175" type="qcurve" smooth="yes"/>
      <point x="457" y="175"/>
      <point x="514" y="199"/>
      <point x="557" y="244"/>
      <point x="581" y="309"/>
      <point x="581" y="350" type="qcurve" smooth="yes"/>
      <point x="581" y="391"/>
      <point x="557" y="456"/>
      <point x="514" y="501"/>
      <point x="457" y="525"/>
      <point x="424" y="525" type="qcurve" smooth="yes"/>
      <point x="391" y="525"/>
      <point x="334" y="501"/>
      <point x="291" y="456"/>
      <point x="267" y="391"/>
      <point x="267" y="350" type="qcurve" smooth="yes"/>
      <point x="267" y="309"/>
      <point x="291" y="244"/>
      <point x="334" y="199"/>
      <point x="391" y="175"/>
    </contour>
  </outline>
</glyph>
<glyph name="uni0237" format="2">
  <advance width="334"/>
  <unicode hex="0237"/>
  <anchor x="171" y="547" name="t.uni0308"/>
  <outline>
    <contour>
      <point x="45" y="-204" type="qcurve" smooth="yes"/>
      <point x="5" y="-204"/>
      <point x="-68" y="-190"/>
      <point x="-94" y="-177" type="qcurve"/>
      <point x="-40" y="-20" type="line"/>
      <point x="-16" y="-33"/>
      <point x="11" y="-33" type="qcurve" smooth="yes"/>
      <point x="31" y="-33"/>
      <point x="58" y="-3"/>
      <point x="58" y="30" type="qcurve" smooth="yes"/>
      <point x="58" y="547" type="line"/>
      <point x="284" y="547" type="line"/>
      <point x="284" y="28" type="line" smooth="yes"/>
      <point x="284" y="-78"/>
      <point x="158" y="-204"/>
    </contour>
  </outline>
</glyph>
<glyph name="uni02BF" format="2">
  <advance width="600"/>
  <unicode hex="02BF"/>
  <outline>
    <contour>
      <point x="300" y="590" type="line"/>
      <point x="261" y="590"/>
      <point x="197" y="626"/>
      <point x="160" y="687"/>
      <point x="160" y="724" type="qcurve" smooth="yes"/>
      <point x="160" y="762"/>
      <point x="197" y="822"/>
      <point x="261" y="858"/>
      <point x="300" y="858" type="qcurve"/>
      <point x="300" y="778" type="line"/>
      <point x="278" y="778"/>
      <point x="246" y="748"/>
      <point x="246" y="724" type="qcurve" smooth="yes"/>
      <point x="246" y="700"/>
      <point x="278" y="670"/>
      <point x="300" y="670" type="qcurve"/>
    </contour>
  </outline>
</glyph>
<glyph name="uni02C8" format="2">
  <advance width="202"/>
  <unicode hex="02C8"/>
  <outline>
    <contour>
      <point x="29" y="497" type="line"/>
      <point x="29" y="701" type="line"/>
      <point x="173" y="701" type="line"/>
      <point x="173" y="497" type="line"/>
    </contour>
  </outline>
</glyph>
<glyph name="acutecomb" format="2">
  <unicode hex="0301"/>
  <anchor x="300" y="547" name="_t.uni0308"/>
  <anchor x="300" y="547" name="_t.uni0308_2"/>
  <anchor x="300" y="547" name="_m.uni0308"/>
  <anchor x="300" y="760" name="m.uni0308"/>
  <outline>
    <contour>
      <point x="209" y="607" type="line"/>
      <point x="271" y="767" type="line"/>
      <point x="463" y="767" type="line"/>
      <point x="336" y="607" type="line"/>
    </contour>
  </outline>
</glyph>
<glyph name="uni0307" format="2">
  <unicode hex="0307"/>
  <anchor x="300" y="547" name="_t.uni0308"/>
  <anchor x="300" y="709" name="_t.uni0307_1"/>
  <anchor x="300" y="547" name="_t.uni0308_2"/>
  <anchor x="300" y="547" name="_m.uni0308"/>
  <anchor x="300" y="800" name="m.uni0308"/>
  <outline>
    <contour>
      <point x="300" y="597" type="qcurve" smooth="yes"/>
      <point x="250" y="597"/>
      <point x="186" y="661"/>
      <point x="186" y="711" type="qcurve" smooth="yes"/>
      <point x="186" y="761"/>
      <point x="250" y="825"/>
      <point x="300" y="825" type="qcurve" smooth="yes"/>
      <point x="350" y="825"/>
      <point x="414" y="761"/>
      <point x="414" y="711" type="qcurve" smooth="yes"/>
      <point x="414" y="661"/>
      <point x="350" y="597"/>
    </contour>
  </outline>
</glyph>
<glyph name="uni0308" format="2">
  <unicode hex="0308"/>
  <anchor x="300" y="547" name="_t.uni0308"/>
  <anchor x="300" y="547" name="_t.uni0308_2"/>
  <anchor x="300" y="547" name="_m.uni0308"/>
  <anchor x="300" y="740" name="m.uni0308"/>
  <outline>
    <contour>
      <point x="411" y="599" type="qcurve" smooth="yes"/>
      <point x="373" y="599"/>
      <point x="321" y="647"/>
      <point x="321" y="687" type="qcurve" smooth="yes"/>
      <point x="321" y="727"/>
      <point x="373" y="776"/>
      <point x="411" y="776" type="qcurve" smooth="yes"/>
      <point x="449" y="776"/>
      <point x="501" y="727"/>
      <point x="501" y="687" type="qcurve" smooth="yes"/>
      <point x="501" y="647"/>
      <point x="449" y="599"/>
    </contour>
    <contour>
      <point x="189" y="599" type="qcurve" smooth="yes"/>
      <point x="151" y="599"/>
      <point x="99" y="647"/>
      <point x="99" y="687" type="qcurve" smooth="yes"/>
      <point x="99" y="727"/>
      <point x="151" y="776"/>
      <point x="189" y="776" type="qcurve" smooth="yes"/>
      <point x="227" y="776"/>
      <point x="279" y="727"/>
      <point x="279" y="687" type="qcurve" smooth="yes"/>
      <point x="279" y="647"/>
      <point x="227" y="599"/>
    </contour>
  </outline>
</glyph>
<glyph name="hookabovecomb" format="2">
  <unicode hex="0309"/>
  <anchor x="300" y="547" name="_t.uni0308"/>
  <anchor x="300" y="547" name="_t.uni0308_2"/>
  <anchor x="300" y="547" name="_m.uni0308"/>
  <anchor x="300" y="830" name="m.uni0308"/>
  <outline>
    <contour>
      <point x="343" y="597" type="qcurve"/>
      <point x="275" y="662" type="line"/>
      <point x="304" y="676"/>
      <point x="321" y="703"/>
      <point x="321" y="716" type="qcurve" smooth="yes"/>
      <point x="321" y="734"/>
      <point x="298" y="754"/>
      <point x="279" y="754" type="qcurve" smooth="yes"/>
      <point x="251" y="754"/>
      <point x="222" y="734" type="qcurve"/>
      <point x="176" y="818" type="line"/>
      <point x="202" y="838"/>
      <point x="269" y="858"/>
      <point x="305" y="858" type="qcurve" smooth="yes"/>
      <point x="368" y="858"/>
      <point x="446" y="790"/>
      <point x="446" y="735" type="qcurve" smooth="yes"/>
      <point x="446" y="686"/>
      <point x="393" y="620"/>
    </contour>
  </outline>
</glyph>
<glyph name="uni030B" format="2">
  <unicode hex="030B"/>
  <anchor x="300" y="547" name="_t.uni0308"/>
  <anchor x="300" y="547" name="_t.uni0308_2"/>
  <anchor x="300" y="547" name="_m.uni0308"/>
  <anchor x="300" y="760" name="m.uni0308"/>
  <outline>
    <contour>
      <point x="342" y="607" type="line"/>
      <point x="394" y="767" type="line"/>
      <point x="589" y="767" type="line"/>
      <point x="492" y="607" type="line"/>
    </contour>
    <contour>
      <point x="108" y="607" type="line"/>
      <point x="160" y="767" type="line"/>
      <point x="355" y="767" type="line"/>
      <point x="258" y="607" type="line"/>
    </contour>
  </outline>
</glyph>
<glyph name="uni030C" format="2">
  <unicode hex="030C"/>
  <anchor x="300" y="547" name="_t.uni0308"/>
  <anchor x="300" y="547" name="_t.uni0308_2"/>
  <anchor x="300" y="547" name="_m.uni0308"/>
  <anchor x="300" y="750" name="m.uni0308"/>
  <outline>
    <contour>
      <point x="204" y="607" type="line"/>
      <point x="76" y="767" type="line"/>
      <point x="216" y="767" type="line"/>
      <point x="358" y="637" type="line"/>
      <point x="242" y="637" type="line"/>
      <point x="384" y="767" type="line"/>
      <point x="524" y="767" type="line"/>
      <point x="396" y="607" type="line"/>
    </contour>
  </outline>
</glyph>
<glyph name="uni0311" format="2">
  <unicode hex="0311"/>
  <anchor x="300" y="547" name="_t.uni0308"/>
  <anchor x="300" y="547" name="_t.uni0308_2"/>
  <anchor x="300" y="547" name="_m.uni0308"/>
  <anchor x="300" y="750" name="m.uni0308"/>
  <outline>
    <contour>
      <point x="91" y="607" type="line"/>
      <point x="95" y="686"/>
      <point x="210" y="777"/>
      <point x="300" y="777" type="qcurve" smooth="yes"/>
      <point x="390" y="777"/>
      <point x="505" y="686"/>
      <point x="509" y="607" type="qcurve"/>
      <point x="374" y="607" type="line"/>
      <point x="372" y="635"/>
      <point x="331" y="668"/>
      <point x="300" y="668" type="qcurve" smooth="yes"/>
      <point x="269" y="668"/>
      <point x="228" y="635"/>
      <point x="226" y="607" type="qcurve"/>
    </contour>
  </outline>
</glyph>
<glyph name="uni0312" format="2">
  <unicode hex="0312"/>
  <anchor x="300" y="547" name="_t.uni0308"/>
  <anchor x="300" y="547" name="_t.uni0308_2"/>
  <anchor x="300" y="547" name="_m.uni0308"/>
  <anchor x="300" y="800" name="m.uni0308"/>
  <outline>
    <contour>
      <point x="300" y="597" type="qcurve" smooth="yes"/>
      <point x="246" y="597"/>
      <point x="193" y="638"/>
      <point x="193" y="672" type="qcurve" smooth="yes"/>
      <point x="193" y="686"/>
      <point x="205" y="724"/>
      <point x="223" y="752" type="qcurve" smooth="yes"/>
      <point x="277" y="837" type="line"/>
      <point x="395" y="837" type="line"/>
      <point x="330" y="672" type="line"/>
      <point x="300" y="745" type="line"/>
      <point x="353" y="745"/>
      <point x="407" y="707"/>
      <point x="407" y="672" type="qcurve" smooth="yes"/>
      <point x="407" y="638"/>
      <point x="354" y="597"/>
    </contour>
  </outline>
</glyph>
<glyph name="uni031B" format="2">
  <unicode hex="031B"/>
  <anchor x="300" y="547" name="_t.uni031B_2"/>
  <outline>
    <contour>
      <point x="270" y="409" type="line"/>
      <point x="270" y="547" type="line"/>
      <point x="310" y="547" type="line" smooth="yes"/>
      <point x="331" y="547"/>
      <point x="365" y="580"/>
      <point x="365" y="608" type="qcurve" smooth="yes"/>
      <point x="365" y="625"/>
      <point x="354" y="655"/>
      <point x="345" y="665" type="qcurve"/>
      <point x="473" y="710" type="line"/>
      <point x="490" y="688"/>
      <point x="510" y="633"/>
      <point x="510" y="599" type="qcurve" smooth="yes"/>
      <point x="510" y="508"/>
      <point x="399" y="409"/>
      <point x="300" y="409" type="qcurve" smooth="yes"/>
    </contour>
  </outline>
</glyph>
<glyph name="dotbelowcomb" format="2">
  <unicode hex="0323"/>
  <anchor x="300" y="-191" name="t.uni0324"/>
  <outline>
    <contour>
      <point x="300" y="-226" type="qcurve" smooth="yes"/>
      <point x="262" y="-226"/>
      <point x="210" y="-179"/>
      <point x="210" y="-139" type="qcurve" smooth="yes"/>
      <point x="210" y="-99"/>
      <point x="262" y="-50"/>
      <point x="300" y="-50" type="qcurve" smooth="yes"/>
      <point x="338" y="-50"/>
      <point x="390" y="-99"/>
      <point x="390" y="-139" type="qcurve" smooth="yes"/>
      <point x="390" y="-179"/>
      <point x="338" y="-226"/>
    </contour>
  </outline>
</glyph>
<glyph name="uni0324" format="2">
  <unicode hex="0324"/>
  <anchor x="300" y="-181" name="t.uni0324"/>
  <outline>
    <contour>
      <point x="406" y="-217" type="qcurve" smooth="yes"/>
      <point x="370" y="-217"/>
      <point x="321" y="-171"/>
      <point x="321" y="-134" type="qcurve" smooth="yes"/>
      <point x="321" y="-96"/>
      <point x="370" y="-50"/>
      <point x="406" y="-50" type="qcurve" smooth="yes"/>
      <point x="442" y="-50"/>
      <point x="491" y="-96"/>
      <point x="491" y="-134" type="qcurve" smooth="yes"/>
      <point x="491" y="-171"/>
      <point x="442" y="-217"/>
    </contour>
    <contour>
      <point x="194" y="-217" type="qcurve" smooth="yes"/>
      <point x="158" y="-217"/>
      <point x="109" y="-171"/>
      <point x="109" y="-134" type="qcurve" smooth="yes"/>
      <point x="109" y="-96"/>
      <point x="158" y="-50"/>
      <point x="194" y="-50" type="qcurve" smooth="yes"/>
      <point x="230" y="-50"/>
      <point x="279" y="-96"/>
      <point x="279" y="-134" type="qcurve" smooth="yes"/>
      <point x="279" y="-171"/>
      <point x="230" y="-217"/>
    </contour>
  </outline>
</glyph>
<glyph name="uni032E" format="2">
  <unicode hex="032E"/>
  <anchor x="300" y="-198" name="t.uni0324"/>
  <outline>
    <contour>
      <point x="300" y="-225" type="qcurve" smooth="yes"/>
      <point x="210" y="-225"/>
      <point x="96" y="-138"/>
      <point x="91" y="-67" type="qcurve"/>
      <point x="218" y="-67" type="line"/>
      <point x="221" y="-92"/>
      <point x="266" y="-124"/>
      <point x="300" y="-124" type="qcurve" smooth="yes"/>
      <point x="335" y="-124"/>
      <point x="379" y="-92"/>
      <point x="382" y="-67" type="qcurve"/>
      <point x="509" y="-67" type="line"/>
      <point x="505" y="-138"/>
      <point x="390" y="-225"/>
    </contour>
  </outline>
</glyph>
<glyph name="uni0335" format="2">
  <unicode hex="0335"/>
  <anchor x="300" y="433" name="_t.uni0307_1"/>
  <outline>
    <contour>
      <point x="86" y="378" type="line"/>
      <point x="86" y="488" type="line"/>
      <point x="514" y="488" type="line"/>
      <point x="514" y="378" type="line"/>
    </contour>
  </outline>
</glyph>
<glyph name="iotadieresistonos" format="2">
  <advance width="266"/>
  <unicode hex="0390"/>
  <anchor x="162" y="547" name="t.uni0308"/>
  <anchor x="162" y="0" name="b.uni0324_3"/>
  <anchor x="275" y="0" name="m.uni0328_4"/>
  <outline>
    <contour>
      <point x="20" y="0" type="line"/>
      <point x="20" y="547" type="line"/>
      <point x="246" y="547" type="line"/>
      <point x="246" y="0" type="line"/>
    </contour>
    <contour>
      <point x="65" y="838" type="line"/>
      <point x="127" y="998" type="line"/>
      <point x="319" y="998" type="line"/>
      <point x="192" y="838" type="line"/>
    </contour>
    <contour>
      <point x="242" y="612" type="qcurve" smooth="yes"/>
      <point x="204" y="612"/>
      <point x="152" y="660"/>
      <point x="152" y="700" type="qcurve" smooth="yes"/>
      <point x="152" y="740"/>
      <point x="204" y="789"/>
      <point x="242" y="789" type="qcurve" smooth="yes"/>
      <point x="280" y="789"/>
      <point x="332" y="740"/>
      <point x="332" y="700" type="qcurve" smooth="yes"/>
      <point x="332" y="660"/>
      <point x="280" y="612"/>
    </contour>
    <contour>
      <point x="20" y="612" type="qcurve" smooth="yes"/>
      <point x="-18" y="612"/>
      <point x="-70" y="660"/>
      <point x="-70" y="700" type="qcurve" smooth="yes"/>
      <point x="-70" y="740"/>
      <point x="-18" y="789"/>
      <point x="20" y="789" type="qcurve" smooth="yes"/>
      <point x="58" y="789"/>
      <point x="110" y="740"/>
      <point x="110" y="700" type="qcurve" smooth="yes"/>
      <point x="110" y="660"/>
      <point x="58" y="612"/>
    </contour>
  </outline>
</glyph>
<glyph name="epsilontonos" format="2">
  <advance width="620"/>
  <unicode hex="03AD"/>
  <anchor x="326" y="582" name="t.uni0308"/>
  <anchor x="326" y="0" name="b.uni0324_3"/>
  <anchor x="560" y="0" name="m.uni0328_4"/>
  <outline>
    <contour>
      <point x="600" y="33" type="line"/>
      <point x="551" y="11"/>
      <point x="414" y="-15"/>
      <point x="345" y="-15" type="qcurve" smooth="yes"/>
      <point x="185" y="-15"/>
      <point x="20" y="73"/>
      <point x="20" y="154" type="qcurve" smooth="yes"/>
      <point x="20" y="196"/>
      <point x="66" y="272"/>
      <point x="154" y="292"/>
      <point x="218" y="292" type="qcurve"/>
      <point x="222" y="265" type="line"/>
      <point x="161" y="265"/>
      <point x="82" y="282"/>
      <point x="43" y="357"/>
      <point x="43" y="406" type="qcurve" smooth="yes"/>
      <point x="43" y="445"/>
      <point x="107" y="518"/>
      <point x="217" y="556"/>
      <point x="325" y="556" type="qcurve" smooth="yes"/>
      <point x="388" y="556"/>
      <point x="507" y="536"/>
      <point x="559" y="514" type="qcurve"/>
      <point x="522" y="393" type="line"/>
      <point x="468" y="406"/>
      <point x="393" y="411"/>
      <point x="365" y="411" type="qcurve" smooth="yes"/>
      <point x="316" y="411"/>
      <point x="273" y="388"/>
      <point x="274" y="373" type="qcurve"/>
      <point x="275" y="363"/>
      <point x="290" y="350"/>
      <point x="311" y="350" type="qcurve" smooth="yes"/>
      <point x="492" y="350" type="line"/>
      <point x="492" y="197" type="line"/>
      <point x="296" y="197" type="line" smooth="yes"/>
      <point x="270" y="197"/>
      <point x="250" y="182"/>
      <point x="250" y="169" type="qcurve" smooth="yes"/>
      <point x="250" y="153"/>
      <point x="296" y="136"/>
      <point x="354" y="136" type="qcurve" smooth="yes"/>
      <point x="381" y="136"/>
      <point x="447" y="146"/>
      <point x="511" y="165"/>
      <point x="534" y="178" type="qcurve"/>
    </contour>
    <contour>
      <point x="267" y="607" type="line"/>
      <point x="329" y="767" type="line"/>
      <point x="521" y="767" type="line"/>
      <point x="394" y="607" type="line"/>
    </contour>
  </outline>
</glyph>
<glyph name="etatonos" format="2">
  <advance width="644"/>
  <unicode hex="03AE"/>
  <anchor x="325" y="547" name="t.uni0308"/>
  <anchor x="325" y="0" name="b.uni0324_3"/>
  <outline>
    <contour>
      <point x="400" y="557" type="qcurve" smooth="yes"/>
      <point x="463" y="557"/>
      <point x="565" y="506"/>
      <point x="624" y="398"/>
      <point x="624" y="312" type="qcurve" smooth="yes"/>
      <point x="624" y="-198" type="line"/>
      <point x="398" y="-198" type="line"/>
      <point x="398" y="273" type="line" smooth="yes"/>
      <point x="398" y="324"/>
      <point x="362" y="367"/>
      <point x="331" y="367" type="qcurve" smooth="yes"/>
      <point x="308" y="367"/>
      <point x="269" y="346"/>
      <point x="246" y="298"/>
      <point x="246" y="257" type="qcurve" smooth="yes"/>
      <point x="246" y="0" type="line"/>
      <point x="20" y="0" type="line"/>
      <point x="20" y="547" type="line"/>
      <point x="235" y="547" type="line"/>
      <point x="235" y="387" type="line"/>
      <point x="192" y="433" type="line"/>
      <point x="224" y="495"/>
      <point x="333" y="557"/>
    </contour>
    <contour>
      <point x="248" y="607" type="line"/>
      <point x="310" y="767" type="line"/>
      <point x="502" y="767" type="line"/>
      <point x="375" y="607" type="line"/>
    </contour>
  </outline>
</glyph>
<glyph name="beta" format="2">
  <advance width="798"/>
  <unicode hex="03B2"/>
  <outline>
    <contour>
      <point x="461" y="-16" type="qcurve" smooth="yes"/>
      <point x="405" y="-16"/>
      <point x="281" y="-4"/>
      <point x="217" y="7" type="qcurve"/>
      <point x="283" y="183" type="line"/>
      <point x="300" y="175"/>
      <point x="365" y="166"/>
      <point x="414" y="164" type="qcurve" smooth="yes"/>
      <point x="455" y="162"/>
      <point x="534" y="193"/>
      <point x="534" y="221" type="qcurve" smooth="yes"/>
      <point x="534" y="249"/>
      <point x="496" y="278"/>
      <point x="457" y="278" type="qcurve" smooth="yes"/>
      <point x="440" y="278"/>
      <point x="408" y="273"/>
      <point x="283" y="183" type="qcurve"/>
      <point x="249" y="354" type="line"/>
      <point x="455" y="490" type="line"/>
      <point x="488" y="510"/>
      <point x="469" y="532"/>
      <point x="463" y="533" type="curve" smooth="yes"/>
      <point x="447" y="536"/>
      <point x="434" y="536" type="qcurve" smooth="yes"/>
      <point x="361" y="536"/>
      <point x="287" y="451"/>
      <point x="287" y="374" type="qcurve" smooth="yes"/>
      <point x="287" y="-195" type="line"/>
      <point x="51" y="-195" type="line"/>
      <point x="51" y="379" type="line" smooth="yes"/>
      <point x="51" y="483"/>
      <point x="139" y="634"/>
      <point x="309" y="716"/>
      <point x="431" y="716" type="qcurve" smooth="yes"/>
      <point x="475" y="716"/>
      <point x="617" y="699"/>
      <point x="670" y="649" type="qcurve" smooth="yes"/>
      <point x="712" y="609"/>
      <point x="710" y="554"/>
      <point x="690" y="515" type="curve"/>
      <point x="521" y="308" type="line"/>
      <point x="433" y="430" type="line"/>
      <point x="449" y="434"/>
      <point x="485" y="438"/>
      <point x="507" y="438" type="qcurve" smooth="yes"/>
      <point x="576" y="438"/>
      <point x="697" y="384"/>
      <point x="772" y="283"/>
      <point x="772" y="211" type="qcurve" smooth="yes"/>
      <point x="772" y="140"/>
      <point x="697" y="38"/>
      <point x="538" y="-16"/>
    </contour>
  </outline>
</glyph>
<glyph name="delta" format="2">
  <advance width="680"/>
  <unicode hex="03B4"/>
  <anchor x="338" y="547" name="t.uni0308"/>
  <anchor x="338" y="274" name="t.uni0307_1"/>
  <anchor x="434" y="547" name="t.uni031B_2"/>
  <anchor x="338" y="-0" name="b.uni0324_3"/>
  <anchor x="461" y="-0" name="m.uni0328_4"/>
  <outline>
    <contour>
      <point x="340" y="-10" type="qcurve" smooth="yes"/>
      <point x="247" y="-10"/>
      <point x="104" y="63"/>
      <point x="22" y="191"/>
      <point x="22" y="274" type="qcurve" smooth="yes"/>
      <point x="22" y="357"/>
      <point x="63" y="421" type="qcurve" smooth="yes"/>
      <point x="84" y="454"/>
      <point x="113" y="479" type="qcurve"/>
      <point x="105" y="488"/>
      <point x="99" y="500" type="qcurve"/>
      <point x="82" y="530"/>
      <point x="82" y="577" type="qcurve" smooth="yes"/>
      <point x="82" y="629"/>
      <point x="145" y="713"/>
      <point x="270" y="764"/>
      <point x="362" y="764" type="qcurve" smooth="yes"/>
      <point x="422" y="764"/>
      <point x="542" y="742"/>
      <point x="585" y="719" type="qcurve"/>
      <point x="523" y="570" type="line"/>
      <point x="481" y="593"/>
      <point x="400" y="610"/>
      <point x="365" y="610" type="qcurve" smooth="yes"/>
      <point x="322" y="610"/>
      <point x="291" y="594"/>
      <point x="291" y="584" type="qcurve" smooth="yes"/>
      <point x="291" y="572"/>
      <point x="325" y="560"/>
      <point x="358" y="558"/>
      <point x="376" y="556" type="qcurve"/>
      <point x="447" y="550"/>
      <point x="505" y="521" type="qcurve" smooth="yes"/>
      <point x="577" y="485"/>
      <point x="658" y="357"/>
      <point x="658" y="274" type="qcurve" smooth="yes"/>
      <point x="658" y="191"/>
      <point x="577" y="63"/>
      <point x="433" y="-10"/>
    </contour>
    <contour>
      <point x="340" y="166" type="qcurve" smooth="yes"/>
      <point x="365" y="166"/>
      <point x="405" y="190"/>
      <point x="429" y="239"/>
      <point x="429" y="274" type="qcurve" smooth="yes"/>
      <point x="429" y="310"/>
      <point x="405" y="357"/>
      <point x="365" y="381"/>
      <point x="340" y="381" type="qcurve" smooth="yes"/>
      <point x="315" y="381"/>
      <point x="275" y="357"/>
      <point x="251" y="310"/>
      <point x="251" y="274" type="qcurve" smooth="yes"/>
      <point x="251" y="239"/>
      <point x="275" y="190"/>
      <point x="315" y="166"/>
    </contour>
  </outline>
</glyph>
<glyph name="zeta" format="2">
  <advance width="600"/>
  <unicode hex="03B6"/>
  <anchor x="297" y="582" name="t.uni0308"/>
  <anchor x="297" y="0" name="b.uni0324_3"/>
  <anchor x="531" y="0" name="m.uni0328_4"/>
  <outline>
    <contour>
      <point x="598" y="693" type="line"/>
      <point x="98" y="170"/>
      <point x="363" y="150" type="qcurve" smooth="yes"/>
      <point x="629" y="130"/>
      <point x="495" y="-217" type="qcurve"/>
      <point x="338" y="-217" type="line"/>
      <point x="431" y="-31"/>
      <point x="263" y="-2" type="qcurve" smooth="yes"/>
      <point x="3" y="42"/>
      <point x="42" y="420"/>
      <point x="405" y="693" type="qcurve"/>
      <point x="24" y="693" type="line"/>
      <point x="24" y="860" type="line"/>
      <point x="598" y="860" type="line"/>
      <point x="598" y="693" type="line"/>
    </contour>
  </outline>
  <guideline angle="90" x="22" y="0"/>
</glyph>
<glyph name="nu" format="2">
  <advance width="644"/>
  <unicode hex="03BD"/>
  <anchor x="322" y="547" name="t.uni0308"/>
  <anchor x="322" y="0" name="b.uni0324_3"/>
  <outline>
    <contour>
      <point x="205" y="0" type="line"/>
      <point x="-15" y="547" type="line"/>
      <point x="217" y="547" type="line"/>
      <point x="384" y="103" type="line"/>
      <point x="267" y="103" type="line"/>
      <point x="445" y="547" type="line"/>
      <point x="659" y="547" type="line"/>
      <point x="439" y="0" type="line"/>
    </contour>
  </outline>
</glyph>
<glyph name="rho" format="2">
  <advance width="707"/>
  <unicode hex="03C1"/>
  <outline>
    <contour>
      <point x="368" y="-10" type="qcurve" smooth="yes"/>
      <point x="327" y="-10"/>
      <point x="291" y="-3" type="qcurve" smooth="yes"/>
      <point x="281" y="-1"/>
      <point x="271" y="1" type="qcurve"/>
      <point x="271" y="-196" type="line"/>
      <point x="50" y="-196" type="line"/>
      <point x="50" y="274" type="line" smooth="yes"/>
      <point x="50" y="357"/>
      <point x="132" y="485"/>
      <point x="275" y="557"/>
      <point x="368" y="557" type="qcurve" smooth="yes"/>
      <point x="461" y="557"/>
      <point x="605" y="485"/>
      <point x="686" y="357"/>
      <point x="686" y="274" type="qcurve" smooth="yes"/>
      <point x="686" y="191"/>
      <point x="605" y="63"/>
      <point x="461" y="-10"/>
    </contour>
    <contour>
      <point x="368" y="166" type="qcurve" smooth="yes"/>
      <point x="393" y="166"/>
      <point x="433" y="190"/>
      <point x="457" y="239"/>
      <point x="457" y="274" type="qcurve" smooth="yes"/>
      <point x="457" y="310"/>
      <point x="433" y="357"/>
      <point x="393" y="381"/>
      <point x="368" y="381" type="qcurve" smooth="yes"/>
      <point x="343" y="381"/>
      <point x="303" y="357"/>
      <point x="279" y="310"/>
      <point x="279" y="274" type="qcurve" smooth="yes"/>
      <point x="279" y="239"/>
      <point x="303" y="190"/>
      <point x="343" y="166"/>
    </contour>
  </outline>
</glyph>
<glyph name="sigmafinal" format="2">
  <advance width="571"/>
  <unicode hex="03C2"/>
  <anchor x="282" y="547" name="t.uni0308"/>
  <anchor x="282" y="0" name="b.uni0324_3"/>
  <outline>
    <contour>
      <point x="270" y="-22" type="qcurve" smooth="yes"/>
      <point x="200" y="-22"/>
      <point x="64" y="8"/>
      <point x="22" y="32" type="qcurve"/>
      <point x="84" y="181" type="line"/>
      <point x="123" y="158"/>
      <point x="226" y="132"/>
      <point x="275" y="132" type="qcurve" smooth="yes"/>
      <point x="316" y="132"/>
      <point x="345" y="146"/>
      <point x="345" y="158" type="qcurve" smooth="yes"/>
      <point x="345" y="170"/>
      <point x="311" y="181"/>
      <point x="255" y="187"/>
      <point x="188" y="196"/>
      <point x="120" y="214"/>
      <point x="64" y="262"/>
      <point x="30" y="323"/>
      <point x="30" y="370" type="qcurve" smooth="yes"/>
      <point x="30" y="422"/>
      <point x="93" y="506"/>
      <point x="218" y="557"/>
      <point x="310" y="557" type="qcurve" smooth="yes"/>
      <point x="370" y="557"/>
      <point x="490" y="535"/>
      <point x="533" y="512" type="qcurve"/>
      <point x="471" y="363" type="line"/>
      <point x="429" y="386"/>
      <point x="348" y="403"/>
      <point x="313" y="403" type="qcurve" smooth="yes"/>
      <point x="270" y="403"/>
      <point x="239" y="387"/>
      <point x="239" y="377" type="qcurve" smooth="yes"/>
      <point x="239" y="365"/>
      <point x="273" y="353"/>
      <point x="329" y="347"/>
      <point x="396" y="338"/>
      <point x="463" y="319"/>
      <point x="519" y="283"/>
      <point x="553" y="210"/>
      <point x="553" y="163" type="qcurve" smooth="yes"/>
      <point x="553" y="114"/>
      <point x="491" y="29"/>
      <point x="365" y="-22"/>
    </contour>
  </outline>
</glyph>
<glyph name="sigma" format="2">
  <advance width="719"/>
  <unicode hex="03C3"/>
  <anchor x="336" y="547" name="t.uni0308"/>
  <anchor x="336" y="274" name="t.uni0307_1"/>
  <anchor x="432" y="547" name="t.uni031B_2"/>
  <anchor x="336" y="0" name="b.uni0324_3"/>
  <anchor x="459" y="0" name="m.uni0328_4"/>
  <outline>
    <contour>
      <point x="339" y="-10" type="qcurve" smooth="yes"/>
      <point x="246" y="-10"/>
      <point x="103" y="63"/>
      <point x="21" y="191"/>
      <point x="21" y="274" type="qcurve" smooth="yes"/>
      <point x="21" y="357"/>
      <point x="103" y="485"/>
      <point x="248" y="548"/>
      <point x="342" y="548" type="qcurve" smooth="yes"/>
      <point x="367" y="548"/>
      <point x="410" y="547"/>
      <point x="445" y="547"/>
      <point x="459" y="547" type="qcurve"/>
      <point x="698" y="547" type="line"/>
      <point x="698" y="390" type="line"/>
      <point x="442" y="390" type="line"/>
      <point x="411" y="390"/>
      <point x="353" y="397"/>
      <point x="329" y="402" type="qcurve"/>
      <point x="480" y="521" type="line"/>
      <point x="563" y="497"/>
      <point x="657" y="363"/>
      <point x="657" y="274" type="qcurve" smooth="yes"/>
      <point x="657" y="191"/>
      <point x="575" y="63"/>
      <point x="432" y="-10"/>
    </contour>
    <contour>
      <point x="339" y="166" type="qcurve" smooth="yes"/>
      <point x="364" y="166"/>
      <point x="404" y="190"/>
      <point x="428" y="239"/>
      <point x="428" y="274" type="qcurve" smooth="yes"/>
      <point x="428" y="310"/>
      <point x="404" y="357"/>
      <point x="364" y="381"/>
      <point x="339" y="381" type="qcurve" smooth="yes"/>
      <point x="314" y="381"/>
      <point x="274" y="357"/>
      <point x="250" y="310"/>
      <point x="250" y="274" type="qcurve" smooth="yes"/>
      <point x="250" y="239"/>
      <point x="274" y="190"/>
      <point x="314" y="166"/>
    </contour>
  </outline>
</glyph>
<glyph name="phi" format="2">
  <advance width="807"/>
  <unicode hex="03C6"/>
  <outline>
    <contour>
      <point x="316" y="-203" type="line"/>
      <point x="316" y="483" type="line"/>
      <point x="488" y="483" type="line"/>
      <point x="488" y="-203" type="line"/>
    </contour>
    <contour>
      <point x="404" y="-7" type="qcurve" smooth="yes"/>
      <point x="294" y="-7"/>
      <point x="120" y="79"/>
      <point x="21" y="202"/>
      <point x="21" y="300" type="qcurve" smooth="yes"/>
      <point x="21" y="382"/>
      <point x="120" y="516"/>
      <point x="294" y="603"/>
      <point x="404" y="603" type="qcurve" smooth="yes"/>
      <point x="514" y="603"/>
      <point x="686" y="516"/>
      <point x="786" y="382"/>
      <point x="786" y="300" type="qcurve" smooth="yes"/>
      <point x="786" y="202"/>
      <point x="686" y="79"/>
      <point x="514" y="-7"/>
    </contour>
    <contour>
      <point x="404" y="164" type="qcurve" smooth="yes"/>
      <point x="445" y="164"/>
      <point x="548" y="190"/>
      <point x="588" y="254"/>
      <point x="588" y="300" type="qcurve" smooth="yes"/>
      <point x="588" y="336"/>
      <point x="541" y="410"/>
      <point x="437" y="432"/>
      <point x="404" y="432" type="qcurve" smooth="yes"/>
      <point x="371" y="432"/>
      <point x="265" y="410"/>
      <point x="217" y="336"/>
      <point x="217" y="300" type="qcurve" smooth="yes"/>
      <point x="217" y="254"/>
      <point x="259" y="190"/>
      <point x="363" y="164"/>
    </contour>
  </outline>
</glyph>
<glyph name="omega" format="2">
  <advance width="898"/>
  <unicode hex="03C9"/>
  <anchor x="460" y="582" name="t.uni0308"/>
  <anchor x="460" y="0" name="b.uni0324_3"/>
  <anchor x="694" y="0" name="m.uni0328_4"/>
  <outline>
    <contour>
      <point x="798" y="539" type="line"/>
      <point x="829" y="495"/>
      <point x="874" y="381"/>
      <point x="876" y="312" type="qcurve" smooth="yes"/>
      <point x="880" y="151"/>
      <point x="736" y="-18"/>
      <point x="645" y="-18" type="qcurve" smooth="yes"/>
      <point x="541" y="-18"/>
      <point x="465" y="41"/>
      <point x="429" y="112"/>
      <point x="423" y="176" type="qcurve"/>
      <point x="471" y="184" type="line"/>
      <point x="476" y="123"/>
      <point x="445" y="41"/>
      <point x="332" y="-13"/>
      <point x="297" y="-13" type="qcurve" smooth="yes"/>
      <point x="240" y="-13"/>
      <point x="129" y="32"/>
      <point x="43" y="146"/>
      <point x="25" y="251" type="qcurve" smooth="yes"/>
      <point x="14" y="314"/>
      <point x="64" y="489"/>
      <point x="107" y="539" type="qcurve"/>
      <point x="263" y="477" type="line"/>
      <point x="218" y="411"/>
      <point x="200" y="273"/>
      <point x="247" y="174"/>
      <point x="276" y="171" type="qcurve" smooth="yes"/>
      <point x="334" y="164"/>
      <point x="356" y="228"/>
      <point x="357" y="260" type="qcurve" smooth="yes"/>
      <point x="361" y="440" type="line"/>
      <point x="540" y="441" type="line"/>
      <point x="541" y="258" type="line" smooth="yes"/>
      <point x="541" y="221"/>
      <point x="549" y="164"/>
      <point x="594" y="168" type="qcurve" smooth="yes"/>
      <point x="618" y="170"/>
      <point x="684" y="228"/>
      <point x="687" y="351"/>
      <point x="653" y="434"/>
      <point x="622" y="478" type="qcurve"/>
    </contour>
  </outline>
  <guideline angle="0" x="0" y="539"/>
  <guideline angle="0" x="0" y="477"/>
</glyph>
<glyph name="iotadieresis" format="2">
  <advance width="502"/>
  <unicode hex="03CA"/>
  <anchor x="250" y="0" name="b.uni0324_3"/>
  <anchor x="363" y="0" name="m.uni0328_4"/>
  <anchor x="250" y="740" name="m.uni0308"/>
  <outline>
    <contour>
      <point x="362" y="607" type="qcurve" smooth="yes"/>
      <point x="324" y="607"/>
      <point x="272" y="655"/>
      <point x="272" y="695" type="qcurve" smooth="yes"/>
      <point x="272" y="735"/>
      <point x="324" y="784"/>
      <point x="362" y="784" type="qcurve" smooth="yes"/>
      <point x="400" y="784"/>
      <point x="452" y="735"/>
      <point x="452" y="695" type="qcurve" smooth="yes"/>
      <point x="452" y="655"/>
      <point x="400" y="607"/>
    </contour>
    <contour>
      <point x="140" y="607" type="qcurve" smooth="yes"/>
      <point x="102" y="607"/>
      <point x="50" y="655"/>
      <point x="50" y="695" type="qcurve" smooth="yes"/>
      <point x="50" y="735"/>
      <point x="102" y="784"/>
      <point x="140" y="784" type="qcurve" smooth="yes"/>
      <point x="178" y="784"/>
      <point x="230" y="735"/>
      <point x="230" y="695" type="qcurve" smooth="yes"/>
      <point x="230" y="655"/>
      <point x="178" y="607"/>
    </contour>
    <contour>
      <point x="137" y="0" type="line"/>
      <point x="137" y="547" type="line"/>
      <point x="363" y="547" type="line"/>
      <point x="363" y="0" type="line"/>
    </contour>
  </outline>
</glyph>
<glyph name="uni0402" format="2">
  <advance width="868"/>
  <unicode hex="0402"/>
  <outline>
    <contour>
      <point x="221" y="0" type="line"/>
      <point x="221" y="568" type="line"/>
      <point x="272" y="517" type="line"/>
      <point x="16" y="517" type="line"/>
      <point x="16" y="700" type="line"/>
      <point x="694" y="700" type="line"/>
      <point x="694" y="517" type="line"/>
      <point x="402" y="517" type="line"/>
      <point x="453" y="568" type="line"/>
      <point x="453" y="0" type="line"/>
    </contour>
    <contour>
      <point x="510" y="-2" type="qcurve"/>
      <point x="532" y="173" type="line"/>
      <point x="540" y="170"/>
      <point x="567" y="167"/>
      <point x="597" y="174"/>
      <point x="617" y="193"/>
      <point x="617" y="211" type="qcurve" smooth="yes"/>
      <point x="617" y="229"/>
      <point x="588" y="256"/>
      <point x="537" y="267"/>
      <point x="470" y="256"/>
      <point x="432" y="237" type="qcurve"/>
      <point x="426" y="425" type="line"/>
      <point x="530" y="450"/>
      <point x="688" y="443"/>
      <point x="795" y="386"/>
      <point x="849" y="284"/>
      <point x="849" y="214" type="qcurve" smooth="yes"/>
      <point x="849" y="143"/>
      <point x="793" y="49"/>
      <point x="697" y="-1"/>
      <point x="575" y="-13"/>
    </contour>
  </outline>
</glyph>
<glyph name="uni0404" format="2">
  <advance width="723"/>
  <unicode hex="0404"/>
  <anchor x="381" y="0" name="b.uni0324_3"/>
  <outline>
    <contour>
      <point x="495" y="433" type="line"/>
      <point x="495" y="263" type="line"/>
      <point x="182" y="263" type="line"/>
      <point x="182" y="433" type="line"/>
    </contour>
    <contour>
      <point x="400" y="-16" type="qcurve" smooth="yes"/>
      <point x="318" y="-16"/>
      <point x="180" y="37"/>
      <point x="80" y="135"/>
      <point x="25" y="269"/>
      <point x="25" y="350" type="qcurve" smooth="yes"/>
      <point x="25" y="431"/>
      <point x="80" y="565"/>
      <point x="180" y="663"/>
      <point x="318" y="716"/>
      <point x="400" y="716" type="qcurve" smooth="yes"/>
      <point x="503" y="716"/>
      <point x="662" y="644"/>
      <point x="714" y="576" type="qcurve"/>
      <point x="565" y="443" type="line"/>
      <point x="534" y="482"/>
      <point x="459" y="525"/>
      <point x="412" y="525" type="qcurve" smooth="yes"/>
      <point x="377" y="525"/>
      <point x="322" y="501"/>
      <point x="283" y="455"/>
      <point x="263" y="390"/>
      <point x="263" y="350" type="qcurve" smooth="yes"/>
      <point x="263" y="310"/>
      <point x="283" y="245"/>
      <point x="322" y="199"/>
      <point x="377" y="175"/>
      <point x="412" y="175" type="qcurve" smooth="yes"/>
      <point x="459" y="175"/>
      <point x="534" y="218"/>
      <point x="565" y="257" type="qcurve"/>
      <point x="714" y="124" type="line"/>
      <point x="662" y="57"/>
      <point x="503" y="-16"/>
    </contour>
  </outline>
</glyph>
<glyph name="uni0407" format="2">
  <advance width="350"/>
  <unicode hex="0407"/>
  <anchor x="175" y="890" name="t.uni0308"/>
  <anchor x="175" y="0" name="b.uni0324_3"/>
  <anchor x="293" y="0" name="m.uni0328_4"/>
  <outline>
    <contour>
      <point x="57" y="0" type="line"/>
      <point x="57" y="700" type="line"/>
      <point x="293" y="700" type="line"/>
      <point x="293" y="0" type="line"/>
    </contour>
    <contour>
      <point x="286" y="749" type="qcurve" smooth="yes"/>
      <point x="248" y="749"/>
      <point x="196" y="797"/>
      <point x="196" y="837" type="qcurve" smooth="yes"/>
      <point x="196" y="877"/>
      <point x="248" y="926"/>
      <point x="286" y="926" type="qcurve" smooth="yes"/>
      <point x="324" y="926"/>
      <point x="376" y="877"/>
      <point x="376" y="837" type="qcurve" smooth="yes"/>
      <point x="376" y="797"/>
      <point x="324" y="749"/>
    </contour>
    <contour>
      <point x="64" y="749" type="qcurve" smooth="yes"/>
      <point x="26" y="749"/>
      <point x="-26" y="797"/>
      <point x="-26" y="837" type="qcurve" smooth="yes"/>
      <point x="-26" y="877"/>
      <point x="26" y="926"/>
      <point x="64" y="926" type="qcurve" smooth="yes"/>
      <point x="102" y="926"/>
      <point x="154" y="877"/>
      <point x="154" y="837" type="qcurve" smooth="yes"/>
      <point x="154" y="797"/>
      <point x="102" y="749"/>
    </contour>
  </outline>
</glyph>
<glyph name="uni040A" format="2">
  <advance width="1160"/>
  <unicode hex="040A"/>
  <outline>
    <contour>
      <point x="62" y="0" type="line"/>
      <point x="62" y="700" type="line"/>
      <point x="294" y="700" type="line"/>
      <point x="294" y="455" type="line"/>
      <point x="507" y="455" type="line"/>
      <point x="507" y="700" type="line"/>
      <point x="739" y="700" type="line"/>
      <point x="739" y="0" type="line"/>
      <point x="507" y="0" type="line"/>
      <point x="507" y="272" type="line"/>
      <point x="294" y="272" type="line"/>
      <point x="294" y="0" type="line"/>
    </contour>
    <contour>
      <point x="739" y="114" type="line"/>
      <point x="689" y="165" type="line"/>
      <point x="832" y="165" type="line" smooth="yes"/>
      <point x="866" y="165"/>
      <point x="905" y="199"/>
      <point x="905" y="232" type="qcurve" smooth="yes"/>
      <point x="905" y="265"/>
      <point x="867" y="298"/>
      <point x="832" y="298" type="qcurve" smooth="yes"/>
      <point x="689" y="298" type="line"/>
      <point x="739" y="349" type="line"/>
    </contour>
    <contour>
      <point x="507" y="0" type="line"/>
      <point x="507" y="700" type="line"/>
      <point x="739" y="700" type="line"/>
      <point x="739" y="403" type="line"/>
      <point x="689" y="463" type="line"/>
      <point x="882" y="463" type="line" smooth="yes"/>
      <point x="1006" y="463"/>
      <point x="1142" y="346"/>
      <point x="1142" y="239" type="qcurve" smooth="yes"/>
      <point x="1142" y="125"/>
      <point x="993" y="0"/>
      <point x="862" y="0" type="qcurve" smooth="yes"/>
    </contour>
  </outline>
</glyph>
<glyph name="uni0412" format="2">
  <advance width="743"/>
  <unicode hex="0412"/>
  <anchor x="385" y="700" name="t.uni0308"/>
  <anchor x="385" y="0" name="b.uni0324_3"/>
  <outline>
    <contour>
      <point x="62" y="0" type="line"/>
      <point x="62" y="700" type="line"/>
      <point x="417" y="700" type="line" smooth="yes"/>
      <point x="547" y="700"/>
      <point x="690" y="604"/>
      <point x="690" y="517" type="qcurve" smooth="yes"/>
      <point x="690" y="432"/>
      <point x="558" y="333"/>
      <point x="446" y="333" type="qcurve"/>
      <point x="466" y="387" type="line"/>
      <point x="585" y="387"/>
      <point x="721" y="293"/>
      <point x="721" y="203" type="qcurve" smooth="yes"/>
      <point x="721" y="110"/>
      <point x="573" y="0"/>
      <point x="436" y="0" type="qcurve" smooth="yes"/>
    </contour>
    <contour>
      <point x="294" y="165" type="line"/>
      <point x="425" y="165" type="line" smooth="yes"/>
      <point x="454" y="165"/>
      <point x="483" y="194"/>
      <point x="483" y="221" type="qcurve" smooth="yes"/>
      <point x="483" y="248"/>
      <point x="454" y="275"/>
      <point x="425" y="275" type="qcurve" smooth="yes"/>
      <point x="294" y="275" type="line"/>
    </contour>
    <contour>
      <point x="294" y="431" type="line"/>
      <point x="394" y="431" type="line" smooth="yes"/>
      <point x="424" y="431"/>
      <point x="452" y="457"/>
      <point x="452" y="482" type="qcurve" smooth="yes"/>
      <point x="452" y="508"/>
      <point x="424" y="535"/>
      <point x="394" y="535" type="qcurve" smooth="yes"/>
      <point x="294" y="535" type="line"/>
    </contour>
  </outline>
</glyph>
<glyph name="uni0422" format="2">
  <advance width="674"/>
  <unicode hex="0422"/>
  <anchor x="341" y="700" name="t.uni0308"/>
  <anchor x="341" y="315" name="t.uni0307_1"/>
  <anchor x="341" y="0" name="b.uni0324_3"/>
  <outline>
    <contour>
      <point x="221" y="0" type="line"/>
      <point x="221" y="568" type="line"/>
      <point x="272" y="517" type="line"/>
      <point x="16" y="517" type="line"/>
      <point x="16" y="700" type="line"/>
      <point x="658" y="700" type="line"/>
      <point x="658" y="517" type="line"/>
      <point x="402" y="517" type="line"/>
      <point x="453" y="568" type="line"/>
      <point x="453" y="0" type="line"/>
    </contour>
  </outline>
</glyph>
<glyph name="uni0423" format="2">
  <advance width="764"/>
  <unicode hex="0423"/>
  <anchor x="382" y="700" name="t.uni0308"/>
  <outline>
    <contour>
      <point x="118" y="183" type="line"/>
      <point x="180" y="167"/>
      <point x="250" y="178"/>
      <point x="277" y="215" type="qcurve" smooth="yes"/>
      <point x="311" y="263" type="line"/>
      <point x="331" y="285" type="line"/>
      <point x="534" y="700" type="line"/>
      <point x="762" y="700" type="line"/>
      <point x="481" y="173" type="line" smooth="yes"/>
      <point x="435" y="87"/>
      <point x="306" y="-8"/>
      <point x="150" y="-22"/>
      <point x="63" y="13" type="qcurve"/>
    </contour>
    <contour>
      <point x="328" y="100" type="line"/>
      <point x="2" y="700" type="line"/>
      <point x="251" y="700" type="line"/>
      <point x="456" y="263" type="line"/>
    </contour>
  </outline>
</glyph>
<glyph name="uni042D" format="2">
  <advance width="723"/>
  <unicode hex="042D"/>
  <anchor x="342" y="700" name="t.uni0308"/>
  <outline>
    <contour>
      <point x="228" y="267" type="line"/>
      <point x="228" y="437" type="line"/>
      <point x="541" y="437" type="line"/>
      <point x="541" y="267" type="line"/>
    </contour>
    <contour>
      <point x="323" y="716" type="qcurve" smooth="yes"/>
      <point x="406" y="716"/>
      <point x="543" y="663"/>
      <point x="643" y="565"/>
      <point x="698" y="431"/>
      <point x="698" y="350" type="qcurve" smooth="yes"/>
      <point x="698" y="269"/>
      <point x="643" y="135"/>
      <point x="543" y="37"/>
      <point x="406" y="-16"/>
      <point x="323" y="-16" type="qcurve" smooth="yes"/>
      <point x="220" y="-16"/>
      <point x="61" y="57"/>
      <point x="9" y="124" type="qcurve"/>
      <point x="158" y="257" type="line"/>
      <point x="189" y="218"/>
      <point x="264" y="175"/>
      <point x="311" y="175" type="qcurve" smooth="yes"/>
      <point x="346" y="175"/>
      <point x="401" y="199"/>
      <point x="440" y="245"/>
      <point x="460" y="310"/>
      <point x="460" y="350" type="qcurve" smooth="yes"/>
      <point x="460" y="390"/>
      <point x="440" y="455"/>
      <point x="401" y="501"/>
      <point x="346" y="525"/>
      <point x="311" y="525" type="qcurve" smooth="yes"/>
      <point x="264" y="525"/>
      <point x="189" y="482"/>
      <point x="158" y="443" type="qcurve"/>
      <point x="9" y="576" type="line"/>
      <point x="61" y="644"/>
      <point x="220" y="716"/>
    </contour>
  </outline>
</glyph>
<glyph name="uni042E" format="2">
  <advance width="1133"/>
  <unicode hex="042E"/>
  <outline>
    <contour>
      <point x="62" y="0" type="line"/>
      <point x="62" y="700" type="line"/>
      <point x="294" y="700" type="line"/>
      <point x="294" y="452" type="line"/>
      <point x="475" y="452" type="line"/>
      <point x="475" y="258" type="line"/>
      <point x="294" y="258" type="line"/>
      <point x="294" y="0" type="line"/>
    </contour>
    <contour>
      <point x="723" y="-16" type="qcurve" smooth="yes"/>
      <point x="639" y="-16"/>
      <point x="498" y="38"/>
      <point x="393" y="137"/>
      <point x="336" y="271"/>
      <point x="336" y="350" type="qcurve" smooth="yes"/>
      <point x="336" y="430"/>
      <point x="393" y="563"/>
      <point x="498" y="662"/>
      <point x="639" y="716"/>
      <point x="723" y="716" type="qcurve" smooth="yes"/>
      <point x="807" y="716"/>
      <point x="948" y="662"/>
      <point x="1052" y="563"/>
      <point x="1109" y="430"/>
      <point x="1109" y="350" type="qcurve" smooth="yes"/>
      <point x="1109" y="271"/>
      <point x="1052" y="137"/>
      <point x="948" y="38"/>
      <point x="807" y="-16"/>
    </contour>
    <contour>
      <point x="723" y="175" type="qcurve" smooth="yes"/>
      <point x="754" y="175"/>
      <point x="807" y="199"/>
      <point x="848" y="244"/>
      <point x="871" y="309"/>
      <point x="871" y="350" type="qcurve" smooth="yes"/>
      <point x="871" y="391"/>
      <point x="848" y="456"/>
      <point x="807" y="501"/>
      <point x="754" y="525"/>
      <point x="723" y="525" type="qcurve" smooth="yes"/>
      <point x="692" y="525"/>
      <point x="638" y="501"/>
      <point x="597" y="456"/>
      <point x="574" y="391"/>
      <point x="574" y="350" type="qcurve" smooth="yes"/>
      <point x="574" y="309"/>
      <point x="597" y="244"/>
      <point x="638" y="199"/>
      <point x="692" y="175"/>
    </contour>
  </outline>
</glyph>
<glyph name="uni0431" format="2">
  <advance width="686"/>
  <unicode hex="0431"/>
  <outline>
    <contour>
      <point x="349" y="-16" type="qcurve" smooth="yes"/>
      <point x="283" y="-16"/>
      <point x="166" y="20"/>
      <point x="78" y="102"/>
      <point x="28" y="236"/>
      <point x="28" y="334" type="qcurve" smooth="yes"/>
      <point x="28" y="396"/>
      <point x="50" y="503"/>
      <point x="96" y="593"/>
      <point x="168" y="662"/>
      <point x="268" y="709"/>
      <point x="332" y="721" type="qcurve" smooth="yes"/>
      <point x="604" y="770" type="line"/>
      <point x="634" y="585" type="line"/>
      <point x="404" y="544" type="line" smooth="yes"/>
      <point x="382" y="540"/>
      <point x="336" y="529"/>
      <point x="294" y="510"/>
      <point x="260" y="476"/>
      <point x="241" y="422"/>
      <point x="241" y="382" type="qcurve" smooth="yes"/>
      <point x="241" y="370"/>
      <point x="243" y="354"/>
      <point x="245" y="333"/>
      <point x="245" y="311" type="qcurve"/>
      <point x="188" y="361" type="line"/>
      <point x="214" y="397"/>
      <point x="280" y="448"/>
      <point x="364" y="476"/>
      <point x="417" y="476" type="qcurve" smooth="yes"/>
      <point x="497" y="476"/>
      <point x="610" y="416"/>
      <point x="669" y="311"/>
      <point x="669" y="244" type="qcurve" smooth="yes"/>
      <point x="669" y="162"/>
      <point x="585" y="46"/>
      <point x="441" y="-16"/>
    </contour>
    <contour>
      <point x="353" y="151" type="qcurve" smooth="yes"/>
      <point x="379" y="151"/>
      <point x="417" y="174"/>
      <point x="439" y="214"/>
      <point x="439" y="239" type="qcurve" smooth="yes"/>
      <point x="439" y="265"/>
      <point x="417" y="301"/>
      <point x="378" y="321"/>
      <point x="353" y="321" type="qcurve" smooth="yes"/>
      <point x="327" y="321"/>
      <point x="287" y="301"/>
      <point x="265" y="266"/>
      <point x="265" y="242" type="qcurve" smooth="yes"/>
      <point x="265" y="216"/>
      <point x="287" y="175"/>
      <point x="327" y="151"/>
    </contour>
  </outline>
</glyph>
<glyph name="uni0438" format="2">
  <advance width="728"/>
  <unicode hex="0438"/>
  <anchor x="349" y="547" name="t.uni0308"/>
  <outline>
    <contour>
      <point x="53" y="0" type="line"/>
      <point x="53" y="547" type="line"/>
      <point x="278" y="547" type="line"/>
      <point x="278" y="300" type="line"/>
      <point x="467" y="547" type="line"/>
      <point x="675" y="547" type="line"/>
      <point x="675" y="0" type="line"/>
      <point x="450" y="0" type="line"/>
      <point x="450" y="248" type="line"/>
      <point x="262" y="0" type="line"/>
    </contour>
  </outline>
</glyph>
<glyph name="uni043A" format="2">
  <advance width="694"/>
  <unicode hex="043A"/>
  <anchor x="355" y="547" name="t.uni0308"/>
  <outline>
    <contour>
      <point x="431" y="0" type="line"/>
      <point x="281" y="251" type="line"/>
      <point x="463" y="357" type="line"/>
      <point x="697" y="0" type="line"/>
    </contour>
    <contour>
      <point x="53" y="0" type="line"/>
      <point x="53" y="547" type="line"/>
      <point x="279" y="547" type="line"/>
      <point x="279" y="0" type="line"/>
    </contour>
    <contour>
      <point x="213" y="182" type="line"/>
      <point x="213" y="355" type="line"/>
      <point x="417" y="355" type="line"/>
      <point x="417" y="182" type="line"/>
    </contour>
    <contour>
      <point x="486" y="249" type="line"/>
      <point x="274" y="269" type="line"/>
      <point x="448" y="547" type="line"/>
      <point x="686" y="547" type="line"/>
    </contour>
  </outline>
</glyph>
<glyph name="uni043B" format="2">
  <advance width="696"/>
  <unicode hex="043B"/>
  <outline>
    <contour>
      <point x="11" y="0" type="qcurve"/>
      <point x="20" y="183" type="line"/>
      <point x="26" y="182"/>
      <point x="38" y="181"/>
      <point x="43" y="181" type="qcurve" smooth="yes"/>
      <point x="65" y="181"/>
      <point x="91" y="198"/>
      <point x="106" y="231"/>
      <point x="112" y="278"/>
      <point x="113" y="309" type="qcurve" smooth="yes"/>
      <point x="121" y="547" type="line"/>
      <point x="643" y="547" type="line"/>
      <point x="643" y="0" type="line"/>
      <point x="417" y="0" type="line"/>
      <point x="417" y="418" type="line"/>
      <point x="466" y="371" type="line"/>
      <point x="270" y="371" type="line"/>
      <point x="316" y="421" type="line"/>
      <point x="311" y="300" type="line" smooth="yes"/>
      <point x="308" y="226"/>
      <point x="288" y="109"/>
      <point x="245" y="28"/>
      <point x="172" y="-15"/>
      <point x="116" y="-15" type="qcurve" smooth="yes"/>
      <point x="94" y="-15"/>
      <point x="41" y="-7"/>
    </contour>
  </outline>
</glyph>
<glyph name="uni043D" format="2">
  <advance width="710"/>
  <unicode hex="043D"/>
  <anchor x="355" y="547" name="t.uni0308"/>
  <anchor x="355" y="458" name="t.uni0307_1"/>
  <anchor x="355" y="0" name="b.uni0324_3"/>
  <outline>
    <contour>
      <point x="53" y="0" type="line"/>
      <point x="53" y="547" type="line"/>
      <point x="278" y="547" type="line"/>
      <point x="278" y="355" type="line"/>
      <point x="432" y="355" type="line"/>
      <point x="432" y="547" type="line"/>
      <point x="657" y="547" type="line"/>
      <point x="657" y="0" type="line"/>
      <point x="432" y="0" type="line"/>
      <point x="432" y="178" type="line"/>
      <point x="278" y="178" type="line"/>
      <point x="278" y="0" type="line"/>
    </contour>
  </outline>
</glyph>
<glyph name="uni0442" format="2">
  <advance width="583"/>
  <unicode hex="0442"/>
  <anchor x="295" y="547" name="t.uni0308"/>
  <anchor x="295" y="238" name="t.uni0307_1"/>
  <anchor x="295" y="0" name="b.uni0324_3"/>
  <outline>
    <contour>
      <point x="179" y="0" type="line"/>
      <point x="179" y="419" type="line"/>
      <point x="228" y="371" type="line"/>
      <point x="12" y="371" type="line"/>
      <point x="12" y="547" type="line"/>
      <point x="571" y="547" type="line"/>
      <point x="571" y="371" type="line"/>
      <point x="355" y="371" type="line"/>
      <point x="404" y="419" type="line"/>
      <point x="404" y="0" type="line"/>
    </contour>
  </outline>
</glyph>
<glyph name="uni0444" format="2">
  <advance width="900"/>
  <unicode hex="0444"/>
  <outline>
    <contour>
      <point x="469" y="-16" type="qcurve" smooth="yes"/>
      <point x="466" y="-16"/>
      <point x="440" y="-16"/>
      <point x="415" y="-16"/>
      <point x="412" y="-16" type="qcurve"/>
      <point x="222" y="-13"/>
      <point x="18" y="134"/>
      <point x="18" y="276" type="qcurve" smooth="yes"/>
      <point x="18" y="416"/>
      <point x="219" y="557"/>
      <point x="415" y="559" type="qcurve"/>
      <point x="417" y="559"/>
      <point x="442" y="559"/>
      <point x="467" y="559"/>
      <point x="469" y="559" type="qcurve" smooth="yes"/>
      <point x="668" y="559"/>
      <point x="882" y="418"/>
      <point x="882" y="276" type="qcurve" smooth="yes"/>
      <point x="882" y="131"/>
      <point x="668" y="-16"/>
    </contour>
    <contour>
      <point x="460" y="140" type="qcurve" smooth="yes"/>
      <point x="539" y="140"/>
      <point x="630" y="167"/>
      <point x="669" y="227"/>
      <point x="669" y="276" type="qcurve" smooth="yes"/>
      <point x="669" y="323"/>
      <point x="631" y="378"/>
      <point x="540" y="403"/>
      <point x="460" y="403" type="qcurve" smooth="yes"/>
      <point x="457" y="403"/>
      <point x="431" y="403"/>
      <point x="427" y="403" type="qcurve" smooth="yes"/>
      <point x="353" y="403"/>
      <point x="267" y="376"/>
      <point x="232" y="321"/>
      <point x="232" y="276" type="qcurve" smooth="yes"/>
      <point x="232" y="228"/>
      <point x="267" y="169"/>
      <point x="352" y="141"/>
      <point x="426" y="140" type="qcurve"/>
      <point x="430" y="140"/>
      <point x="456" y="140"/>
    </contour>
    <contour>
      <point x="352" y="-194" type="line"/>
      <point x="352" y="742" type="line"/>
      <point x="548" y="742" type="line"/>
      <point x="548" y="-194" type="line"/>
    </contour>
  </outline>
</glyph>
<glyph name="uni044C" format="2">
  <advance width="639"/>
  <unicode hex="044C"/>
  <anchor x="175" y="452" name="t.uni0307_1"/>
  <outline>
    <contour>
      <point x="399" y="382" type="line" smooth="yes"/>
      <point x="509" y="382"/>
      <point x="627" y="286"/>
      <point x="627" y="198" type="qcurve" smooth="yes"/>
      <point x="627" y="106"/>
      <point x="490" y="0"/>
      <point x="371" y="0" type="qcurve" smooth="yes"/>
      <point x="53" y="0" type="line"/>
      <point x="53" y="547" type="line"/>
      <point x="278" y="547" type="line"/>
      <point x="278" y="382" type="line"/>
    </contour>
    <contour>
      <point x="348" y="152" type="line" smooth="yes"/>
      <point x="371" y="152"/>
      <point x="397" y="176"/>
      <point x="397" y="202" type="qcurve" smooth="yes"/>
      <point x="397" y="228"/>
      <point x="371" y="250"/>
      <point x="348" y="250" type="qcurve" smooth="yes"/>
      <point x="278" y="250" type="line"/>
      <point x="278" y="152" type="line"/>
    </contour>
  </outline>
</glyph>
<glyph name="uni044E" format="2">
  <advance width="934"/>
  <unicode hex="044E"/>
  <outline>
    <contour>
      <point x="53" y="0" type="line"/>
      <point x="53" y="547" type="line"/>
      <point x="278" y="547" type="line"/>
      <point x="278" y="371" type="line"/>
      <point x="434" y="371" type="line"/>
      <point x="434" y="184" type="line"/>
      <point x="278" y="184" type="line"/>
      <point x="278" y="0" type="line"/>
    </contour>
    <contour>
      <point x="609" y="-10" type="qcurve" smooth="yes"/>
      <point x="520" y="-10"/>
      <point x="381" y="63"/>
      <point x="302" y="191"/>
      <point x="302" y="274" type="qcurve" smooth="yes"/>
      <point x="302" y="357"/>
      <point x="381" y="485"/>
      <point x="520" y="557"/>
      <point x="609" y="557" type="qcurve" smooth="yes"/>
      <point x="699" y="557"/>
      <point x="837" y="485"/>
      <point x="916" y="357"/>
      <point x="916" y="274" type="qcurve" smooth="yes"/>
      <point x="916" y="191"/>
      <point x="837" y="63"/>
      <point x="699" y="-10"/>
    </contour>
    <contour>
      <point x="609" y="166" type="qcurve" smooth="yes"/>
      <point x="633" y="166"/>
      <point x="671" y="190"/>
      <point x="693" y="239"/>
      <point x="693" y="274" type="qcurve" smooth="yes"/>
      <point x="693" y="310"/>
      <point x="671" y="357"/>
      <point x="633" y="381"/>
      <point x="609" y="381" type="qcurve" smooth="yes"/>
      <point x="586" y="381"/>
      <point x="547" y="357"/>
      <point x="525" y="310"/>
      <point x="525" y="274" type="qcurve" smooth="yes"/>
      <point x="525" y="239"/>
      <point x="547" y="190"/>
      <point x="586" y="166"/>
    </contour>
  </outline>
</glyph>
<glyph name="uni0452" format="2">
  <advance width="698"/>
  <unicode hex="0452"/>
  <outline>
    <contour>
      <point x="418" y="-204" type="qcurve" smooth="yes"/>
      <point x="378" y="-204"/>
      <point x="305" y="-190"/>
      <point x="279" y="-177" type="qcurve"/>
      <point x="333" y="-20" type="line"/>
      <point x="357" y="-33"/>
      <point x="384" y="-33" type="qcurve" smooth="yes"/>
      <point x="404" y="-33"/>
      <point x="431" y="-3"/>
      <point x="431" y="30" type="qcurve" smooth="yes"/>
      <point x="431" y="273" type="line" smooth="yes"/>
      <point x="431" y="324"/>
      <point x="395" y="367"/>
      <point x="364" y="367" type="qcurve" smooth="yes"/>
      <point x="341" y="367"/>
      <point x="302" y="346"/>
      <point x="279" y="298"/>
      <point x="279" y="257" type="qcurve" smooth="yes"/>
      <point x="279" y="0" type="line"/>
      <point x="53" y="0" type="line"/>
      <point x="53" y="742" type="line"/>
      <point x="268" y="742" type="line"/>
      <point x="268" y="387" type="line"/>
      <point x="225" y="433" type="line"/>
      <point x="257" y="495"/>
      <point x="366" y="557"/>
      <point x="433" y="557" type="qcurve" smooth="yes"/>
      <point x="496" y="557"/>
      <point x="598" y="506"/>
      <point x="657" y="398"/>
      <point x="657" y="312" type="qcurve" smooth="yes"/>
      <point x="657" y="28" type="line" smooth="yes"/>
      <point x="657" y="-78"/>
      <point x="531" y="-204"/>
    </contour>
    <contour>
      <point x="-37" y="583" type="line"/>
      <point x="-37" y="693" type="line"/>
      <point x="483" y="693" type="line"/>
      <point x="483" y="583" type="line"/>
    </contour>
  </outline>
</glyph>
<glyph name="uni0454" format="2">
  <advance width="610"/>
  <unicode hex="0454"/>
  <anchor x="315" y="0" name="b.uni0324_3"/>
  <outline>
    <contour>
      <point x="417" y="346" type="line"/>
      <point x="417" y="199" type="line"/>
      <point x="155" y="199" type="line"/>
      <point x="155" y="346" type="line"/>
    </contour>
    <contour>
      <point x="338" y="-14" type="qcurve" smooth="yes"/>
      <point x="244" y="-14"/>
      <point x="100" y="59"/>
      <point x="18" y="189"/>
      <point x="18" y="273" type="qcurve" smooth="yes"/>
      <point x="18" y="358"/>
      <point x="100" y="488"/>
      <point x="244" y="561"/>
      <point x="338" y="561" type="qcurve" smooth="yes"/>
      <point x="426" y="561"/>
      <point x="562" y="502"/>
      <point x="606" y="447" type="qcurve"/>
      <point x="477" y="331" type="line"/>
      <point x="451" y="361"/>
      <point x="388" y="395"/>
      <point x="348" y="395" type="qcurve" smooth="yes"/>
      <point x="310" y="395"/>
      <point x="254" y="366"/>
      <point x="225" y="311"/>
      <point x="225" y="273" type="qcurve" smooth="yes"/>
      <point x="225" y="235"/>
      <point x="254" y="180"/>
      <point x="310" y="151"/>
      <point x="348" y="151" type="qcurve" smooth="yes"/>
      <point x="388" y="151"/>
      <point x="451" y="185"/>
      <point x="477" y="215" type="qcurve"/>
      <point x="606" y="100" type="line"/>
      <point x="562" y="45"/>
      <point x="426" y="-14"/>
    </contour>
  </outline>
</glyph>
<glyph name="uni0462" format="2">
  <advance width="849"/>
  <unicode hex="0462"/>
  <anchor x="306" y="580" name="t.uni0307_1"/>
  <outline>
    <contour>
      <point x="178" y="0" type="line"/>
      <point x="178" y="742" type="line"/>
      <point x="410" y="742" type="line"/>
      <point x="410" y="475" type="line"/>
      <point x="565" y="475" type="line" smooth="yes"/>
      <point x="693" y="475"/>
      <point x="830" y="357"/>
      <point x="830" y="246" type="qcurve" smooth="yes"/>
      <point x="830" y="131"/>
      <point x="674" y="0"/>
      <point x="535" y="0" type="qcurve" smooth="yes"/>
    </contour>
    <contour>
      <point x="410" y="165" type="line"/>
      <point x="519" y="165" type="line" smooth="yes"/>
      <point x="554" y="165"/>
      <point x="593" y="204"/>
      <point x="593" y="240" type="qcurve" smooth="yes"/>
      <point x="593" y="310"/>
      <point x="519" y="310" type="qcurve" smooth="yes"/>
      <point x="410" y="310" type="line"/>
    </contour>
    <contour>
      <point x="13" y="536" type="line"/>
      <point x="13" y="666" type="line"/>
      <point x="630" y="666" type="line"/>
      <point x="630" y="536" type="line"/>
    </contour>
  </outline>
</glyph>
<glyph name="uni046A" format="2">
  <advance width="999"/>
  <unicode hex="046A"/>
  <outline>
    <contour>
      <point x="6" y="0" type="line"/>
      <point x="48" y="132" type="line" smooth="yes"/>
      <point x="77" y="222"/>
      <point x="142" y="330"/>
      <point x="220" y="384"/>
      <point x="266" y="390" type="qcurve"/>
      <point x="267" y="390" type="line"/>
      <point x="111" y="562" type="line"/>
      <point x="111" y="700" type="line"/>
      <point x="887" y="700" type="line"/>
      <point x="887" y="562" type="line"/>
      <point x="729" y="391" type="line"/>
      <point x="730" y="391" type="line"/>
      <point x="778" y="385"/>
      <point x="859" y="332"/>
      <point x="926" y="222"/>
      <point x="953" y="131" type="qcurve" smooth="yes"/>
      <point x="993" y="0" type="line"/>
      <point x="751" y="0" type="line"/>
      <point x="735" y="82" type="line" smooth="yes"/>
      <point x="718" y="172"/>
      <point x="666" y="241"/>
      <point x="631" y="241" type="qcurve" smooth="yes"/>
      <point x="604" y="241" type="line"/>
      <point x="604" y="0" type="line"/>
      <point x="394" y="0" type="line"/>
      <point x="394" y="241" type="line"/>
      <point x="371" y="241" type="line" smooth="yes"/>
      <point x="334" y="241"/>
      <point x="281" y="174"/>
      <point x="263" y="82" type="qcurve" smooth="yes"/>
      <point x="247" y="0" type="line"/>
    </contour>
    <contour>
      <point x="363" y="544" type="line"/>
      <point x="498" y="393" type="line"/>
      <point x="500" y="393" type="line"/>
      <point x="638" y="544" type="line"/>
    </contour>
  </outline>
</glyph>
<glyph name="uni0474" format="2">
  <advance width="830"/>
  <unicode hex="0474"/>
  <outline>
    <contour>
      <point x="285" y="0" type="line"/>
      <point x="4" y="700" type="line"/>
      <point x="258" y="700" type="line"/>
      <point x="404" y="310" type="line"/>
      <point x="489" y="560" type="line" smooth="yes"/>
      <point x="525" y="665"/>
      <point x="681" y="733"/>
      <point x="816" y="701" type="qcurve"/>
      <point x="794" y="491" type="line"/>
      <point x="740" y="505"/>
      <point x="689" y="478"/>
      <point x="669" y="423" type="qcurve" smooth="yes"/>
      <point x="517" y="0" type="line"/>
    </contour>
  </outline>
</glyph>
<glyph name="uni0475" format="2">
  <advance width="709"/>
  <unicode hex="0475"/>
  <outline>
    <contour>
      <point x="235" y="0" type="line"/>
      <point x="-3" y="547" type="line"/>
      <point x="243" y="547" type="line"/>
      <point x="423" y="104" type="line"/>
      <point x="284" y="104" type="line"/>
      <point x="409" y="443" type="line" smooth="yes"/>
      <point x="429" y="498"/>
      <point x="505" y="556"/>
      <point x="622" y="567"/>
      <point x="701" y="548" type="qcurve"/>
      <point x="679" y="345" type="line"/>
      <point x="648" y="353"/>
      <point x="612" y="351"/>
      <point x="591" y="325"/>
      <point x="579" y="296" type="qcurve" smooth="yes"/>
      <point x="459" y="0" type="line"/>
    </contour>
  </outline>
</glyph>
<glyph name="uni048C" format="2">
  <advance width="769"/>
  <unicode hex="048C"/>
  <anchor x="226" y="580" name="t.uni0307_1"/>
  <outline>
    <contour>
      <point x="98" y="0" type="line"/>
      <point x="98" y="742" type="line"/>
      <point x="330" y="742" type="line"/>
      <point x="330" y="475" type="line"/>
      <point x="485" y="475" type="line" smooth="yes"/>
      <point x="613" y="475"/>
      <point x="750" y="357"/>
      <point x="750" y="246" type="qcurve" smooth="yes"/>
      <point x="750" y="131"/>
      <point x="594" y="0"/>
      <point x="455" y="0" type="qcurve" smooth="yes"/>
    </contour>
    <contour>
      <point x="330" y="165" type="line"/>
      <point x="439" y="165" type="line" smooth="yes"/>
      <point x="474" y="165"/>
      <point x="513" y="204"/>
      <point x="513" y="240" type="qcurve" smooth="yes"/>
      <point x="513" y="310"/>
      <point x="439" y="310" type="qcurve" smooth="yes"/>
      <point x="330" y="310" type="line"/>
    </contour>
    <contour>
      <point x="13" y="536" type="line"/>
      <point x="13" y="666" type="line"/>
      <point x="540" y="666" type="line"/>
      <point x="540" y="536" type="line"/>
    </contour>
  </outline>
</glyph>
<glyph name="uni048D" format="2">
  <advance width="683"/>
  <unicode hex="048D"/>
  <outline>
    <contour>
      <point x="99" y="0" type="line"/>
      <point x="99" y="547" type="line"/>
      <point x="324" y="547" type="line"/>
      <point x="324" y="353" type="line"/>
      <point x="445" y="353" type="line" smooth="yes"/>
      <point x="555" y="353"/>
      <point x="673" y="264"/>
      <point x="673" y="184" type="qcurve" smooth="yes"/>
      <point x="673" y="97"/>
      <point x="536" y="0"/>
      <point x="417" y="0" type="qcurve" smooth="yes"/>
    </contour>
    <contour>
      <point x="394" y="140" type="line" smooth="yes"/>
      <point x="417" y="140"/>
      <point x="443" y="162"/>
      <point x="443" y="186" type="qcurve" smooth="yes"/>
      <point x="443" y="210"/>
      <point x="417" y="231"/>
      <point x="394" y="231" type="qcurve" smooth="yes"/>
      <point x="324" y="231" type="line"/>
      <point x="324" y="140" type="line"/>
    </contour>
    <contour>
      <point x="9" y="388" type="line"/>
      <point x="9" y="508" type="line"/>
      <point x="509" y="508" type="line"/>
      <point x="509" y="388" type="line"/>
    </contour>
  </outline>
</glyph>
<glyph name="uni049E" format="2">
  <advance width="789"/>
  <unicode hex="049E"/>
  <anchor x="418" y="700" name="t.uni0308"/>
  <outline>
    <contour>
      <point x="11" y="542" type="line"/>
      <point x="11" y="642" type="line"/>
      <point x="418" y="642" type="line"/>
      <point x="418" y="542" type="line"/>
    </contour>
    <contour>
      <point x="516" y="0" type="line"/>
      <point x="342" y="328" type="line"/>
      <point x="530" y="438" type="line"/>
      <point x="782" y="0" type="line"/>
    </contour>
    <contour>
      <point x="80" y="0" type="line"/>
      <point x="80" y="700" type="line"/>
      <point x="316" y="700" type="line"/>
      <point x="316" y="0" type="line"/>
    </contour>
    <contour>
      <point x="248" y="253" type="line"/>
      <point x="248" y="439" type="line"/>
      <point x="513" y="439" type="line"/>
      <point x="513" y="253" type="line"/>
    </contour>
    <contour>
      <point x="553" y="325" type="line"/>
      <point x="336" y="347" type="line"/>
      <point x="537" y="700" type="line"/>
      <point x="783" y="700" type="line"/>
    </contour>
  </outline>
</glyph>
<glyph name="uni04A7" format="2">
  <advance width="1019"/>
  <unicode hex="04A7"/>
  <outline>
    <contour>
      <point x="53" y="0" type="line"/>
      <point x="53" y="547" type="line"/>
      <point x="638" y="547" type="line"/>
      <point x="638" y="0" type="line"/>
      <point x="413" y="0" type="line"/>
      <point x="413" y="418" type="line"/>
      <point x="462" y="371" type="line"/>
      <point x="229" y="371" type="line"/>
      <point x="278" y="418" type="line"/>
      <point x="278" y="0" type="line"/>
    </contour>
    <contour>
      <point x="615" y="-193" type="qcurve"/>
      <point x="661" y="-17" type="line"/>
      <point x="705" y="-26"/>
      <point x="756" y="-9"/>
      <point x="778" y="30"/>
      <point x="778" y="55" type="qcurve" smooth="yes"/>
      <point x="778" y="85"/>
      <point x="754" y="119"/>
      <point x="714" y="134"/>
      <point x="666" y="133"/>
      <point x="616" y="120"/>
      <point x="594" y="111" type="qcurve"/>
      <point x="587" y="288" type="line"/>
      <point x="664" y="308"/>
      <point x="795" y="309"/>
      <point x="898" y="274"/>
      <point x="971" y="209"/>
      <point x="1010" y="119"/>
      <point x="1010" y="65" type="qcurve" smooth="yes"/>
      <point x="1010" y="-2"/>
      <point x="953" y="-113"/>
      <point x="847" y="-186"/>
      <point x="702" y="-211"/>
    </contour>
  </outline>
</glyph>
<glyph name="uni04B9" format="2">
  <advance width="662"/>
  <unicode hex="04B9"/>
  <anchor x="312" y="547" name="t.uni0308"/>
  <outline>
    <contour>
      <point x="270" y="91" type="line"/>
      <point x="274" y="402" type="line"/>
      <point x="347" y="402" type="line"/>
      <point x="347" y="91" type="line"/>
    </contour>
    <contour>
      <point x="399" y="194" type="line"/>
      <point x="377" y="178"/>
      <point x="308" y="157"/>
      <point x="258" y="157" type="qcurve" smooth="yes"/>
      <point x="140" y="157"/>
      <point x="23" y="262"/>
      <point x="23" y="380" type="qcurve" smooth="yes"/>
      <point x="23" y="547" type="line"/>
      <point x="248" y="547" type="line"/>
      <point x="248" y="395" type="line" smooth="yes"/>
      <point x="248" y="353"/>
      <point x="280" y="322"/>
      <point x="312" y="322" type="qcurve" smooth="yes"/>
      <point x="340" y="322"/>
      <point x="383" y="335"/>
      <point x="398" y="346" type="qcurve"/>
    </contour>
    <contour>
      <point x="384" y="0" type="line"/>
      <point x="384" y="547" type="line"/>
      <point x="609" y="547" type="line"/>
      <point x="609" y="0" type="line"/>
    </contour>
  </outline>
</glyph>
<glyph name="uni04BA" format="2">
  <advance width="765"/>
  <unicode hex="04BA"/>
  <outline>
    <contour>
      <point x="504" y="0" type="line"/>
      <point x="504" y="185" type="line" smooth="yes"/>
      <point x="504" y="249"/>
      <point x="448" y="310"/>
      <point x="391" y="310" type="qcurve" smooth="yes"/>
      <point x="352" y="310"/>
      <point x="290" y="295"/>
      <point x="269" y="281" type="qcurve"/>
      <point x="263" y="465" type="line"/>
      <point x="308" y="482"/>
      <point x="385" y="497"/>
      <point x="421" y="497" type="qcurve" smooth="yes"/>
      <point x="576" y="497"/>
      <point x="736" y="351"/>
      <point x="736" y="211" type="qcurve" smooth="yes"/>
      <point x="736" y="0" type="line"/>
    </contour>
    <contour>
      <point x="62" y="0" type="line"/>
      <point x="62" y="700" type="line"/>
      <point x="294" y="700" type="line"/>
      <point x="294" y="0" type="line"/>
    </contour>
  </outline>
</glyph>
<glyph name="uni04C4" format="2">
  <advance width="694"/>
  <unicode hex="04C4"/>
  <outline>
    <contour>
      <point x="460" y="-206" type="qcurve" smooth="yes"/>
      <point x="389" y="-206"/>
      <point x="316" y="-177" type="qcurve"/>
      <point x="370" y="-21" type="line"/>
      <point x="397" y="-33"/>
      <point x="418" y="-33" type="qcurve" smooth="yes"/>
      <point x="438" y="-33"/>
      <point x="461" y="-10"/>
      <point x="461" y="13" type="qcurve" smooth="yes"/>
      <point x="461" y="41"/>
      <point x="414" y="112"/>
      <point x="333" y="200"/>
      <point x="281" y="251" type="qcurve"/>
      <point x="463" y="357" type="line"/>
      <point x="537" y="280"/>
      <point x="638" y="158"/>
      <point x="689" y="54"/>
      <point x="689" y="2" type="qcurve" smooth="yes"/>
      <point x="689" y="-67"/>
      <point x="627" y="-159"/>
      <point x="523" y="-206"/>
    </contour>
    <contour>
      <point x="53" y="0" type="line"/>
      <point x="53" y="547" type="line"/>
      <point x="279" y="547" type="line"/>
      <point x="279" y="0" type="line"/>
    </contour>
    <contour>
      <point x="213" y="182" type="line"/>
      <point x="213" y="355" type="line"/>
      <point x="417" y="355" type="line"/>
      <point x="417" y="182" type="line"/>
    </contour>
    <contour>
      <point x="486" y="249" type="line"/>
      <point x="274" y="269" type="line"/>
      <point x="448" y="547" type="line"/>
      <point x="686" y="547" type="line"/>
    </contour>
  </outline>
</glyph>
<glyph name="uni04C7" format="2">
  <advance width="812"/>
  <unicode hex="04C7"/>
  <outline>
    <contour>
      <point x="366" y="-177" type="qcurve"/>
      <point x="420" y="-20" type="line"/>
      <point x="440" y="-29"/>
      <point x="475" y="-33"/>
      <point x="502" y="-22"/>
      <point x="518" y="3"/>
      <point x="518" y="23" type="qcurve" smooth="yes"/>
      <point x="518" y="252" type="line"/>
      <point x="294" y="252" type="line"/>
      <point x="294" y="0" type="line"/>
      <point x="62" y="0" type="line"/>
      <point x="62" y="700" type="line"/>
      <point x="294" y="700" type="line"/>
      <point x="294" y="435" type="line"/>
      <point x="518" y="435" type="line"/>
      <point x="518" y="700" type="line"/>
      <point x="750" y="700" type="line"/>
      <point x="750" y="20" type="line" smooth="yes"/>
      <point x="750" y="-60"/>
      <point x="679" y="-162"/>
      <point x="563" y="-209"/>
      <point x="429" y="-204"/>
    </contour>
  </outline>
</glyph>
<glyph name="uni04CC" format="2">
  <advance width="657"/>
  <unicode hex="04CC"/>
  <outline>
    <contour>
      <point x="253" y="197" type="qcurve" smooth="yes"/>
      <point x="135" y="197"/>
      <point x="18" y="302"/>
      <point x="18" y="420" type="qcurve" smooth="yes"/>
      <point x="18" y="547" type="line"/>
      <point x="243" y="547" type="line"/>
      <point x="243" y="435" type="line" smooth="yes"/>
      <point x="243" y="393"/>
      <point x="275" y="362"/>
      <point x="307" y="362" type="qcurve" smooth="yes"/>
      <point x="361" y="362"/>
      <point x="393" y="386" type="qcurve"/>
      <point x="394" y="234" type="line"/>
      <point x="372" y="218"/>
      <point x="303" y="197"/>
    </contour>
    <contour>
      <point x="287" y="-101" type="line"/>
      <point x="287" y="167" type="line"/>
      <point x="585" y="167" type="line"/>
      <point x="585" y="0" type="line"/>
      <point x="448" y="0" type="line"/>
      <point x="497" y="48" type="line"/>
      <point x="497" y="-101" type="line"/>
    </contour>
    <contour>
      <point x="379" y="0" type="line"/>
      <point x="379" y="547" type="line"/>
      <point x="604" y="547" type="line"/>
      <point x="604" y="0" type="line"/>
    </contour>
  </outline>
</glyph>
<glyph name="uni04CF" format="2">
  <advance width="332"/>
  <unicode hex="04CF"/>
  <anchor x="166" y="742" name="t.uni0308"/>
  <anchor x="419" y="370" name="t.periodcentered.loclCAT"/>
  <anchor x="166" y="370" name="t.uni0307_1"/>
  <anchor x="349" y="742" name="t.uni031B_2"/>
  <anchor x="166" y="0" name="b.uni0324_3"/>
  <outline>
    <contour>
      <point x="53" y="0" type="line"/>
      <point x="53" y="742" type="line"/>
      <point x="279" y="742" type="line"/>
      <point x="279" y="0" type="line"/>
    </contour>
  </outline>
</glyph>
<glyph name="uni04D8" format="2">
  <advance width="817"/>
  <unicode hex="04D8"/>
  <anchor x="409" y="700" name="t.uni0308"/>
  <outline>
    <contour>
      <point x="401" y="-16" type="qcurve" smooth="yes"/>
      <point x="329" y="-16"/>
      <point x="194" y="29"/>
      <point x="85" y="119"/>
      <point x="21" y="254"/>
      <point x="21" y="344" type="qcurve" smooth="yes"/>
      <point x="21" y="367"/>
      <point x="26" y="409"/>
      <point x="31" y="431" type="qcurve"/>
      <point x="722" y="431" type="line"/>
      <point x="722" y="281" type="line"/>
      <point x="208" y="281" type="line"/>
      <point x="259" y="350" type="line"/>
      <point x="257" y="305"/>
      <point x="280" y="239"/>
      <point x="321" y="194"/>
      <point x="374" y="172"/>
      <point x="402" y="172" type="qcurve" smooth="yes"/>
      <point x="431" y="172"/>
      <point x="485" y="194"/>
      <point x="529" y="239"/>
      <point x="555" y="305"/>
      <point x="555" y="348" type="qcurve" smooth="yes"/>
      <point x="555" y="391"/>
      <point x="529" y="457"/>
      <point x="483" y="503"/>
      <point x="424" y="526"/>
      <point x="392" y="526" type="qcurve" smooth="yes"/>
      <point x="352" y="526"/>
      <point x="272" y="489"/>
      <point x="239" y="451" type="qcurve"/>
      <point x="69" y="587" type="line"/>
      <point x="133" y="652"/>
      <point x="306" y="716"/>
      <point x="395" y="716" type="qcurve" smooth="yes"/>
      <point x="471" y="716"/>
      <point x="613" y="670"/>
      <point x="726" y="578"/>
      <point x="793" y="441"/>
      <point x="793" y="350" type="qcurve" smooth="yes"/>
      <point x="793" y="259"/>
      <point x="726" y="122"/>
      <point x="613" y="30"/>
      <point x="474" y="-16"/>
    </contour>
  </outline>
</glyph>
<glyph name="uni04E1" format="2">
  <advance width="585"/>
  <unicode hex="04E1"/>
  <outline>
    <contour>
      <point x="255" y="-204" type="qcurve" smooth="yes"/>
      <point x="184" y="-204"/>
      <point x="39" y="-170"/>
      <point x="-17" y="-136" type="qcurve"/>
      <point x="59" y="38" type="line"/>
      <point x="104" y="10"/>
      <point x="203" y="-18"/>
      <point x="247" y="-18" type="qcurve" smooth="yes"/>
      <point x="287" y="-18"/>
      <point x="338" y="14"/>
      <point x="338" y="45" type="qcurve" smooth="yes"/>
      <point x="338" y="72"/>
      <point x="300" y="103"/>
      <point x="255" y="103" type="qcurve" smooth="yes"/>
      <point x="162" y="103" type="line"/>
      <point x="162" y="248" type="line"/>
      <point x="339" y="448" type="line"/>
      <point x="360" y="369" type="line"/>
      <point x="15" y="369" type="line"/>
      <point x="15" y="547" type="line"/>
      <point x="533" y="547" type="line"/>
      <point x="533" y="402" type="line"/>
      <point x="356" y="202" type="line"/>
      <point x="243" y="266" type="line"/>
      <point x="304" y="266" type="line" smooth="yes"/>
      <point x="435" y="266"/>
      <point x="571" y="143"/>
      <point x="571" y="45" type="qcurve" smooth="yes"/>
      <point x="571" y="-18"/>
      <point x="505" y="-132"/>
      <point x="366" y="-204"/>
    </contour>
  </outline>
</glyph>
<glyph name="uni04E8" format="2">
  <advance width="836"/>
  <unicode hex="04E8"/>
  <anchor x="418" y="700" name="t.uni0308"/>
  <anchor x="418" y="350" name="t.uni0307_1"/>
  <anchor x="584" y="700" name="t.uni031B_2"/>
  <anchor x="418" y="0" name="b.uni0324_3"/>
  <anchor x="541" y="0" name="m.uni0328_4"/>
  <outline>
    <contour>
      <point x="418" y="716" type="qcurve" smooth="yes"/>
      <point x="504" y="716"/>
      <point x="648" y="662"/>
      <point x="754" y="563"/>
      <point x="813" y="430"/>
      <point x="813" y="350" type="qcurve" smooth="yes"/>
      <point x="813" y="271"/>
      <point x="754" y="137"/>
      <point x="648" y="38"/>
      <point x="504" y="-16"/>
      <point x="418" y="-16" type="qcurve" smooth="yes"/>
      <point x="333" y="-16"/>
      <point x="188" y="38"/>
      <point x="82" y="137"/>
      <point x="23" y="271"/>
      <point x="23" y="350" type="qcurve" smooth="yes"/>
      <point x="23" y="430"/>
      <point x="82" y="563"/>
      <point x="188" y="662"/>
      <point x="333" y="716"/>
    </contour>
    <contour>
      <point x="418" y="525" type="qcurve" smooth="yes"/>
      <point x="393" y="525"/>
      <point x="347" y="510"/>
      <point x="308" y="483"/>
      <point x="279" y="443"/>
      <point x="271" y="417" type="qcurve"/>
      <point x="565" y="417" type="line"/>
      <point x="557" y="443"/>
      <point x="528" y="483"/>
      <point x="489" y="510"/>
      <point x="443" y="525"/>
    </contour>
    <contour>
      <point x="418" y="175" type="qcurve" smooth="yes"/>
      <point x="443" y="175"/>
      <point x="488" y="189"/>
      <point x="527" y="217"/>
      <point x="555" y="256"/>
      <point x="564" y="281" type="qcurve"/>
      <point x="272" y="281" type="line"/>
      <point x="281" y="256"/>
      <point x="309" y="217"/>
      <point x="348" y="189"/>
      <point x="393" y="175"/>
    </contour>
  </outline>
</glyph>
<glyph name="uni04FA" format="2">
  <advance width="666"/>
  <unicode hex="04FA"/>
  <anchor x="370" y="700" name="t.uni0308"/>
  <outline>
    <contour>
      <point x="110" y="0" type="line"/>
      <point x="110" y="700" type="line"/>
      <point x="647" y="700" type="line"/>
      <point x="647" y="517" type="line"/>
      <point x="346" y="517" type="line"/>
      <point x="346" y="0" type="line"/>
    </contour>
    <contour>
      <point x="176" y="-207" type="qcurve" smooth="yes"/>
      <point x="141" y="-207"/>
      <point x="67" y="-192"/>
      <point x="29" y="-177" type="qcurve"/>
      <point x="77" y="-36" type="line"/>
      <point x="103" y="-46"/>
      <point x="124" y="-46" type="qcurve" smooth="yes"/>
      <point x="156" y="-46"/>
      <point x="188" y="-9"/>
      <point x="188" y="25" type="qcurve" smooth="yes"/>
      <point x="188" y="42" type="line"/>
      <point x="253" y="0" type="line"/>
      <point x="110" y="0" type="line"/>
      <point x="110" y="127" type="line"/>
      <point x="413" y="127" type="line"/>
      <point x="413" y="23" type="line" smooth="yes"/>
      <point x="413" y="-52"/>
      <point x="349" y="-155"/>
      <point x="242" y="-207"/>
    </contour>
    <contour>
      <point x="10" y="253" type="line"/>
      <point x="10" y="383" type="line"/>
      <point x="595" y="383" type="line"/>
      <point x="595" y="253" type="line"/>
    </contour>
  </outline>
</glyph>
<glyph name="uni04FC" format="2">
  <advance width="773"/>
  <unicode hex="04FC"/>
  <outline>
    <contour>
      <point x="4" y="0" type="line"/>
      <point x="255" y="353" type="line"/>
      <point x="11" y="700" type="line"/>
      <point x="276" y="700" type="line"/>
      <point x="395" y="524" type="line"/>
      <point x="511" y="700" type="line"/>
      <point x="765" y="700" type="line"/>
      <point x="528" y="369" type="line"/>
      <point x="405" y="212" type="line"/>
      <point x="271" y="0" type="line"/>
    </contour>
    <contour>
      <point x="514" y="-210" type="qcurve" smooth="yes"/>
      <point x="478" y="-210"/>
      <point x="403" y="-195"/>
      <point x="368" y="-179" type="qcurve"/>
      <point x="421" y="-19" type="line"/>
      <point x="444" y="-28"/>
      <point x="461" y="-28" type="qcurve" smooth="yes"/>
      <point x="478" y="-28"/>
      <point x="498" y="-8"/>
      <point x="498" y="11" type="qcurve" smooth="yes"/>
      <point x="498" y="28"/>
      <point x="475" y="74"/>
      <point x="435" y="131"/>
      <point x="382" y="194"/>
      <point x="351" y="228" type="qcurve"/>
      <point x="491" y="412" type="line"/>
      <point x="554" y="341"/>
      <point x="653" y="223"/>
      <point x="721" y="123"/>
      <point x="756" y="38"/>
      <point x="756" y="-1" type="qcurve" smooth="yes"/>
      <point x="756" y="-69"/>
      <point x="689" y="-163"/>
      <point x="579" y="-210"/>
    </contour>
  </outline>
</glyph>
<glyph name="uni0512" format="2">
  <advance width="807"/>
  <unicode hex="0512"/>
  <outline>
    <contour>
      <point x="361" y="-177" type="qcurve"/>
      <point x="415" y="-20" type="line"/>
      <point x="435" y="-29"/>
      <point x="470" y="-33"/>
      <point x="497" y="-22"/>
      <point x="513" y="3"/>
      <point x="513" y="23" type="qcurve" smooth="yes"/>
      <point x="513" y="517" type="line"/>
      <point x="353" y="517" type="line"/>
      <point x="351" y="436" type="line" smooth="yes"/>
      <point x="348" y="335"/>
      <point x="327" y="170"/>
      <point x="277" y="51"/>
      <point x="186" y="-13"/>
      <point x="114" y="-13" type="qcurve" smooth="yes"/>
      <point x="92" y="-13"/>
      <point x="42" y="-7"/>
      <point x="14" y="0" type="qcurve"/>
      <point x="26" y="189" type="line"/>
      <point x="40" y="186"/>
      <point x="52" y="186" type="qcurve" smooth="yes"/>
      <point x="91" y="186"/>
      <point x="129" y="250"/>
      <point x="143" y="359"/>
      <point x="145" y="427" type="qcurve" smooth="yes"/>
      <point x="154" y="700" type="line"/>
      <point x="745" y="700" type="line"/>
      <point x="745" y="20" type="line" smooth="yes"/>
      <point x="745" y="-60"/>
      <point x="674" y="-162"/>
      <point x="558" y="-209"/>
      <point x="424" y="-204"/>
    </contour>
  </outline>
</glyph>
<glyph name="uni0528" format="2">
  <advance width="811"/>
  <unicode hex="0528"/>
  <outline>
    <contour>
      <point x="-91" y="-177" type="qcurve"/>
      <point x="-37" y="-20" type="line"/>
      <point x="-17" y="-29"/>
      <point x="18" y="-33"/>
      <point x="45" y="-22"/>
      <point x="61" y="3"/>
      <point x="61" y="23" type="qcurve" smooth="yes"/>
      <point x="61" y="700" type="line"/>
      <point x="293" y="700" type="line"/>
      <point x="293" y="435" type="line"/>
      <point x="517" y="435" type="line"/>
      <point x="517" y="700" type="line"/>
      <point x="749" y="700" type="line"/>
      <point x="749" y="0" type="line"/>
      <point x="517" y="0" type="line"/>
      <point x="517" y="252" type="line"/>
      <point x="293" y="252" type="line"/>
      <point x="293" y="20" type="line" smooth="yes"/>
      <point x="293" y="-60"/>
      <point x="222" y="-162"/>
      <point x="106" y="-209"/>
      <point x="-28" y="-204"/>
    </contour>
  </outline>
</glyph>
<glyph name="uni0529" format="2">
  <advance width="711"/>
  <unicode hex="0529"/>
  <outline>
    <contour>
      <point x="433" y="547" type="line"/>
      <point x="658" y="547" type="line"/>
      <point x="658" y="0" type="line"/>
      <point x="433" y="0" type="line"/>
      <point x="433" y="183" type="line"/>
      <point x="278" y="183" type="line"/>
      <point x="278" y="28" type="line" smooth="yes"/>
      <point x="278" y="-78"/>
      <point x="153" y="-204"/>
      <point x="40" y="-204" type="qcurve" smooth="yes"/>
      <point x="0" y="-204"/>
      <point x="-73" y="-190"/>
      <point x="-99" y="-177" type="qcurve"/>
      <point x="-45" y="-21" type="line"/>
      <point x="-21" y="-34"/>
      <point x="6" y="-34" type="qcurve" smooth="yes"/>
      <point x="26" y="-34"/>
      <point x="53" y="-4"/>
      <point x="53" y="30" type="qcurve" smooth="yes"/>
      <point x="53" y="547" type="line"/>
      <point x="278" y="547" type="line"/>
      <point x="278" y="360" type="line"/>
      <point x="433" y="360" type="line"/>
    </contour>
  </outline>
</glyph>
<glyph name="quotesinglbase" format="2">
  <advance width="304"/>
  <unicode hex="201A"/>
  <outline>
    <contour>
      <point x="35" y="-160" type="line"/>
      <point x="119" y="121" type="line"/>
      <point x="152" y="-5" type="line"/>
      <point x="94" y="-5"/>
      <point x="20" y="62"/>
      <point x="20" y="120" type="qcurve" smooth="yes"/>
      <point x="20" y="179"/>
      <point x="95" y="248"/>
      <point x="152" y="248" type="qcurve" smooth="yes"/>
      <point x="209" y="248"/>
      <point x="284" y="179"/>
      <point x="284" y="120" type="qcurve" smooth="yes"/>
      <point x="284" y="104"/>
      <point x="279" y="72"/>
      <point x="263" y="27"/>
      <point x="245" y="-11" type="qcurve" smooth="yes"/>
      <point x="175" y="-160" type="line"/>
    </contour>
  </outline>
</glyph>
<glyph name="bullet" format="2">
  <advance width="410"/>
  <unicode hex="2022"/>
  <outline>
    <contour>
      <point x="204" y="119" type="qcurve" smooth="yes"/>
      <point x="158" y="119"/>
      <point x="84" y="162"/>
      <point x="40" y="238"/>
      <point x="40" y="285" type="qcurve" smooth="yes"/>
      <point x="40" y="333"/>
      <point x="84" y="407"/>
      <point x="158" y="449"/>
      <point x="204" y="449" type="qcurve" smooth="yes"/>
      <point x="250" y="449"/>
      <point x="325" y="407"/>
      <point x="370" y="333"/>
      <point x="370" y="285" type="qcurve" smooth="yes"/>
      <point x="370" y="238"/>
      <point x="325" y="162"/>
      <point x="250" y="119"/>
    </contour>
  </outline>
</glyph>
<glyph name="perthousand" format="2">
  <advance width="1314"/>
  <unicode hex="2030"/>
  <outline>
    <contour>
      <point x="135" y="0" type="line"/>
      <point x="613" y="700" type="line"/>
      <point x="782" y="700" type="line"/>
      <point x="304" y="0" type="line"/>
    </contour>
    <contour>
      <point x="202" y="320" type="qcurve" smooth="yes"/>
      <point x="149" y="320"/>
      <point x="65" y="365"/>
      <point x="16" y="453"/>
      <point x="16" y="515" type="qcurve" smooth="yes"/>
      <point x="16" y="577"/>
      <point x="65" y="664"/>
      <point x="149" y="710"/>
      <point x="202" y="710" type="qcurve" smooth="yes"/>
      <point x="255" y="710"/>
      <point x="339" y="664"/>
      <point x="388" y="577"/>
      <point x="388" y="515" type="qcurve" smooth="yes"/>
      <point x="388" y="453"/>
      <point x="339" y="365"/>
      <point x="255" y="320"/>
    </contour>
    <contour>
      <point x="202" y="428" type="qcurve" smooth="yes"/>
      <point x="219" y="428"/>
      <point x="246" y="465"/>
      <point x="246" y="515" type="qcurve" smooth="yes"/>
      <point x="246" y="565"/>
      <point x="219" y="602"/>
      <point x="202" y="602" type="qcurve" smooth="yes"/>
      <point x="186" y="602"/>
      <point x="158" y="565"/>
      <point x="158" y="515" type="qcurve" smooth="yes"/>
      <point x="158" y="465"/>
      <point x="186" y="428"/>
    </contour>
    <contour>
      <point x="715" y="-10" type="qcurve" smooth="yes"/>
      <point x="662" y="-10"/>
      <point x="578" y="35"/>
      <point x="529" y="123"/>
      <point x="529" y="185" type="qcurve" smooth="yes"/>
      <point x="529" y="247"/>
      <point x="578" y="334"/>
      <point x="662" y="380"/>
      <point x="715" y="380" type="qcurve" smooth="yes"/>
      <point x="768" y="380"/>
      <point x="852" y="334"/>
      <point x="901" y="247"/>
      <point x="901" y="185" type="qcurve" smooth="yes"/>
      <point x="901" y="123"/>
      <point x="852" y="35"/>
      <point x="768" y="-10"/>
    </contour>
    <contour>
      <point x="715" y="98" type="qcurve" smooth="yes"/>
      <point x="732" y="98"/>
      <point x="759" y="135"/>
      <point x="759" y="185" type="qcurve" smooth="yes"/>
      <point x="759" y="235"/>
      <point x="732" y="272"/>
      <point x="715" y="272" type="qcurve" smooth="yes"/>
      <point x="699" y="272"/>
      <point x="671" y="235"/>
      <point x="671" y="185" type="qcurve" smooth="yes"/>
      <point x="671" y="135"/>
      <point x="699" y="98"/>
    </contour>
    <contour>
      <point x="1112" y="-10" type="qcurve" smooth="yes"/>
      <point x="1059" y="-10"/>
      <point x="975" y="35"/>
      <point x="926" y="123"/>
      <point x="926" y="185" type="qcurve" smooth="yes"/>
      <point x="926" y="247"/>
      <point x="975" y="334"/>
      <point x="1059" y="380"/>
      <point x="1112" y="380" type="qcurve" smooth="yes"/>
      <point x="1165" y="380"/>
      <point x="1249" y="334"/>
      <point x="1298" y="247"/>
      <point x="1298" y="185" type="qcurve" smooth="yes"/>
      <point x="1298" y="123"/>
      <point x="1249" y="35"/>
      <point x="1165" y="-10"/>
    </contour>
    <contour>
      <point x="1112" y="98" type="qcurve" smooth="yes"/>
      <point x="1129" y="98"/>
      <point x="1156" y="135"/>
      <point x="1156" y="185" type="qcurve" smooth="yes"/>
      <point x="1156" y="235"/>
      <point x="1129" y="272"/>
      <point x="1112" y="272" type="qcurve" smooth="yes"/>
      <point x="1096" y="272"/>
      <point x="1068" y="235"/>
      <point x="1068" y="185" type="qcurve" smooth="yes"/>
      <point x="1068" y="135"/>
      <point x="1096" y="98"/>
    </contour>
  </outline>
</glyph>
<glyph name="uni2052" format="2">
  <advance width="660"/>
  <unicode hex="2052"/>
  <outline>
    <contour>
      <point x="115" y="0" type="line"/>
      <point x="380" y="700" type="line"/>
      <point x="545" y="700" type="line"/>
      <point x="280" y="0" type="line"/>
    </contour>
    <contour>
      <point x="520" y="0" type="qcurve" smooth="yes"/>
      <point x="473" y="0"/>
      <point x="408" y="62"/>
      <point x="408" y="110" type="qcurve" smooth="yes"/>
      <point x="408" y="159"/>
      <point x="473" y="218"/>
      <point x="520" y="218" type="qcurve" smooth="yes"/>
      <point x="567" y="218"/>
      <point x="632" y="159"/>
      <point x="632" y="110" type="qcurve" smooth="yes"/>
      <point x="632" y="62"/>
      <point x="567" y="0"/>
    </contour>
    <contour>
      <point x="140" y="482" type="qcurve" smooth="yes"/>
      <point x="93" y="482"/>
      <point x="28" y="544"/>
      <point x="28" y="592" type="qcurve" smooth="yes"/>
      <point x="28" y="641"/>
      <point x="93" y="700"/>
      <point x="140" y="700" type="qcurve" smooth="yes"/>
      <point x="187" y="700"/>
      <point x="252" y="641"/>
      <point x="252" y="592" type="qcurve" smooth="yes"/>
      <point x="252" y="544"/>
      <point x="187" y="482"/>
    </contour>
  </outline>
</glyph>
<glyph name="colonmonetary" format="2">
  <advance width="744"/>
  <unicode hex="20A1"/>
  <outline>
    <contour>
      <point x="294" y="-120" type="line"/>
      <point x="533" y="820" type="line"/>
      <point x="664" y="820" type="line"/>
      <point x="425" y="-120" type="line"/>
    </contour>
    <contour>
      <point x="132" y="-120" type="line"/>
      <point x="371" y="820" type="line"/>
      <point x="502" y="820" type="line"/>
      <point x="263" y="-120" type="line"/>
    </contour>
    <contour>
      <point x="419" y="-16" type="qcurve" smooth="yes"/>
      <point x="335" y="-16"/>
      <point x="192" y="37"/>
      <point x="87" y="135"/>
      <point x="29" y="269"/>
      <point x="29" y="350" type="qcurve" smooth="yes"/>
      <point x="29" y="431"/>
      <point x="87" y="565"/>
      <point x="192" y="663"/>
      <point x="335" y="716"/>
      <point x="419" y="716" type="qcurve" smooth="yes"/>
      <point x="522" y="716"/>
      <point x="681" y="644"/>
      <point x="733" y="576" type="qcurve"/>
      <point x="584" y="443" type="line"/>
      <point x="553" y="482"/>
      <point x="478" y="525"/>
      <point x="431" y="525" type="qcurve" smooth="yes"/>
      <point x="394" y="525"/>
      <point x="334" y="501"/>
      <point x="291" y="455"/>
      <point x="267" y="390"/>
      <point x="267" y="350" type="qcurve" smooth="yes"/>
      <point x="267" y="310"/>
      <point x="291" y="245"/>
      <point x="334" y="199"/>
      <point x="394" y="175"/>
      <point x="431" y="175" type="qcurve" smooth="yes"/>
      <point x="478" y="175"/>
      <point x="553" y="218"/>
      <point x="584" y="257" type="qcurve"/>
      <point x="733" y="124" type="line"/>
      <point x="681" y="57"/>
      <point x="522" y="-16"/>
    </contour>
  </outline>
</glyph>
<glyph name="franc" format="2">
  <advance width="707"/>
  <unicode hex="20A3"/>
  <outline>
    <contour>
      <point x="30" y="60" type="line"/>
      <point x="30" y="172" type="line"/>
      <point x="566" y="172" type="line"/>
      <point x="566" y="60" type="line"/>
    </contour>
    <contour>
      <point x="340" y="402" type="line"/>
      <point x="648" y="402" type="line"/>
      <point x="648" y="224" type="line"/>
      <point x="340" y="224" type="line"/>
    </contour>
    <contour>
      <point x="356" y="0" type="line"/>
      <point x="120" y="0" type="line"/>
      <point x="120" y="700" type="line"/>
      <point x="689" y="700" type="line"/>
      <point x="689" y="522" type="line"/>
      <point x="356" y="522" type="line"/>
    </contour>
  </outline>
</glyph>
<glyph name="lira" format="2">
  <advance width="694"/>
  <unicode hex="20A4"/>
  <outline>
    <contour>
      <point x="30" y="0" type="line"/>
      <point x="30" y="178" type="line"/>
      <point x="660" y="178" type="line"/>
      <point x="660" y="0" type="line"/>
    </contour>
    <contour>
      <point x="120" y="20" type="line"/>
      <point x="120" y="400" type="line" smooth="yes"/>
      <point x="120" y="502"/>
      <point x="204" y="643"/>
      <point x="364" y="716"/>
      <point x="477" y="716" type="qcurve" smooth="yes"/>
      <point x="539" y="716"/>
      <point x="647" y="693"/>
      <point x="685" y="673" type="qcurve"/>
      <point x="617" y="495" type="line"/>
      <point x="588" y="511"/>
      <point x="524" y="525"/>
      <point x="497" y="525" type="qcurve" smooth="yes"/>
      <point x="430" y="525"/>
      <point x="356" y="467"/>
      <point x="356" y="405" type="qcurve" smooth="yes"/>
      <point x="356" y="20" type="line"/>
    </contour>
    <contour>
      <point x="30" y="225" type="line"/>
      <point x="30" y="337" type="line"/>
      <point x="566" y="337" type="line"/>
      <point x="566" y="225" type="line"/>
    </contour>
    <contour>
      <point x="30" y="363" type="line"/>
      <point x="30" y="475" type="line"/>
      <point x="566" y="475" type="line"/>
      <point x="566" y="363" type="line"/>
    </contour>
  </outline>
</glyph>
<glyph name="uni20A9" format="2">
  <advance width="1310"/>
  <unicode hex="20A9"/>
  <outline>
    <contour>
      <point x="276" y="0" type="line"/>
      <point x="42" y="700" type="line"/>
      <point x="288" y="700" type="line"/>
      <point x="479" y="109" type="line"/>
      <point x="351" y="109" type="line"/>
      <point x="553" y="700" type="line"/>
      <point x="776" y="700" type="line"/>
      <point x="965" y="109" type="line"/>
      <point x="842" y="109" type="line"/>
      <point x="1041" y="700" type="line"/>
      <point x="1268" y="700" type="line"/>
      <point x="1034" y="0" type="line"/>
      <point x="781" y="0" type="line"/>
      <point x="625" y="484" type="line"/>
      <point x="693" y="484" type="line"/>
      <point x="529" y="0" type="line"/>
    </contour>
    <contour>
      <point x="30" y="225" type="line"/>
      <point x="30" y="337" type="line"/>
      <point x="1280" y="337" type="line"/>
      <point x="1280" y="225" type="line"/>
    </contour>
    <contour>
      <point x="30" y="363" type="line"/>
      <point x="30" y="475" type="line"/>
      <point x="1280" y="475" type="line"/>
      <point x="1280" y="363" type="line"/>
    </contour>
  </outline>
</glyph>
<glyph name="Euro" format="2">
  <advance width="835"/>
  <unicode hex="20AC"/>
  <outline>
    <contour>
      <point x="30" y="225" type="line"/>
      <point x="30" y="337" type="line"/>
      <point x="572" y="337" type="line"/>
      <point x="572" y="225" type="line"/>
    </contour>
    <contour>
      <point x="30" y="363" type="line"/>
      <point x="30" y="475" type="line"/>
      <point x="572" y="475" type="line"/>
      <point x="572" y="363" type="line"/>
    </contour>
    <contour>
      <point x="510" y="-16" type="qcurve" smooth="yes"/>
      <point x="426" y="-16"/>
      <point x="283" y="37"/>
      <point x="178" y="135"/>
      <point x="120" y="269"/>
      <point x="120" y="350" type="qcurve" smooth="yes"/>
      <point x="120" y="431"/>
      <point x="178" y="565"/>
      <point x="283" y="663"/>
      <point x="426" y="716"/>
      <point x="510" y="716" type="qcurve" smooth="yes"/>
      <point x="613" y="716"/>
      <point x="772" y="644"/>
      <point x="824" y="576" type="qcurve"/>
      <point x="675" y="443" type="line"/>
      <point x="644" y="482"/>
      <point x="569" y="525"/>
      <point x="522" y="525" type="qcurve" smooth="yes"/>
      <point x="485" y="525"/>
      <point x="425" y="501"/>
      <point x="382" y="455"/>
      <point x="358" y="390"/>
      <point x="358" y="350" type="qcurve" smooth="yes"/>
      <point x="358" y="310"/>
      <point x="382" y="245"/>
      <point x="425" y="199"/>
      <point x="485" y="175"/>
      <point x="522" y="175" type="qcurve" smooth="yes"/>
      <point x="569" y="175"/>
      <point x="644" y="218"/>
      <point x="675" y="257" type="qcurve"/>
      <point x="824" y="124" type="line"/>
      <point x="772" y="57"/>
      <point x="613" y="-16"/>
    </contour>
  </outline>
</glyph>
<glyph name="uni20B1" format="2">
  <advance width="896"/>
  <unicode hex="20B1"/>
  <outline>
    <contour>
      <point x="30" y="311" type="line"/>
      <point x="30" y="423" type="line"/>
      <point x="866" y="423" type="line"/>
      <point x="866" y="311" type="line"/>
    </contour>
    <contour>
      <point x="30" y="449" type="line"/>
      <point x="30" y="561" type="line"/>
      <point x="866" y="561" type="line"/>
      <point x="866" y="449" type="line"/>
    </contour>
    <contour>
      <point x="120" y="0" type="line"/>
      <point x="120" y="700" type="line"/>
      <point x="457" y="700" type="line" smooth="yes"/>
      <point x="555" y="700"/>
      <point x="698" y="636"/>
      <point x="776" y="517"/>
      <point x="776" y="436" type="qcurve" smooth="yes"/>
      <point x="776" y="355"/>
      <point x="698" y="237"/>
      <point x="555" y="172"/>
      <point x="457" y="172" type="qcurve" smooth="yes"/>
      <point x="251" y="172" type="line"/>
      <point x="356" y="273" type="line"/>
      <point x="356" y="0" type="line"/>
    </contour>
    <contour>
      <point x="356" y="247" type="line"/>
      <point x="251" y="354" type="line"/>
      <point x="442" y="354" type="line" smooth="yes"/>
      <point x="491" y="354"/>
      <point x="538" y="398"/>
      <point x="538" y="436" type="qcurve" smooth="yes"/>
      <point x="538" y="474"/>
      <point x="491" y="518"/>
      <point x="442" y="518" type="qcurve" smooth="yes"/>
      <point x="251" y="518" type="line"/>
      <point x="356" y="625" type="line"/>
    </contour>
  </outline>
</glyph>
<glyph name="uni20B4" format="2">
  <advance width="830"/>
  <unicode hex="20B4"/>
  <outline>
    <contour>
      <point x="439" y="-17" type="qcurve" smooth="yes"/>
      <point x="341" y="-17"/>
      <point x="192" y="39"/>
      <point x="108" y="145"/>
      <point x="108" y="220" type="qcurve" smooth="yes"/>
      <point x="108" y="233"/>
      <point x="111" y="257"/>
      <point x="113" y="268" type="qcurve"/>
      <point x="502" y="268" type="line"/>
      <point x="460" y="259"/>
      <point x="386" y="243"/>
      <point x="341" y="222"/>
      <point x="341" y="202" type="qcurve" smooth="yes"/>
      <point x="341" y="190"/>
      <point x="359" y="173"/>
      <point x="399" y="164"/>
      <point x="432" y="164" type="qcurve" smooth="yes"/>
      <point x="492" y="164"/>
      <point x="621" y="188"/>
      <point x="673" y="208" type="qcurve"/>
      <point x="729" y="36" type="line"/>
      <point x="651" y="9"/>
      <point x="504" y="-17"/>
    </contour>
    <contour>
      <point x="47" y="230" type="line"/>
      <point x="47" y="342" type="line"/>
      <point x="783" y="342" type="line"/>
      <point x="783" y="230" type="line"/>
    </contour>
    <contour>
      <point x="47" y="368" type="line"/>
      <point x="47" y="480" type="line"/>
      <point x="783" y="480" type="line"/>
      <point x="783" y="368" type="line"/>
    </contour>
    <contour>
      <point x="293" y="419" type="line"/>
      <point x="343" y="433"/>
      <point x="435" y="449"/>
      <point x="495" y="471"/>
      <point x="495" y="492" type="qcurve" smooth="yes"/>
      <point x="495" y="504"/>
      <point x="478" y="524"/>
      <point x="439" y="536"/>
      <point x="404" y="536" type="qcurve" smooth="yes"/>
      <point x="356" y="536"/>
      <point x="254" y="521"/>
      <point x="199" y="504" type="qcurve"/>
      <point x="148" y="675" type="line"/>
      <point x="214" y="697"/>
      <point x="339" y="717"/>
      <point x="396" y="717" type="qcurve" smooth="yes"/>
      <point x="493" y="717"/>
      <point x="643" y="661"/>
      <point x="728" y="555"/>
      <point x="728" y="480" type="qcurve" smooth="yes"/>
      <point x="728" y="463"/>
      <point x="724" y="433"/>
      <point x="720" y="419" type="qcurve"/>
    </contour>
  </outline>
</glyph>
<glyph name="uni20B9" format="2">
  <advance width="728"/>
  <unicode hex="20B9"/>
  <outline>
    <contour>
      <point x="57" y="216" type="line"/>
      <point x="57" y="394" type="line"/>
      <point x="259" y="394" type="line" smooth="yes"/>
      <point x="323" y="394"/>
      <point x="375" y="451"/>
      <point x="375" y="491" type="qcurve" smooth="yes"/>
      <point x="375" y="531"/>
      <point x="323" y="589"/>
      <point x="259" y="589" type="qcurve" smooth="yes"/>
      <point x="57" y="589" type="line"/>
      <point x="57" y="701" type="line"/>
      <point x="678" y="701" type="line"/>
      <point x="678" y="589" type="line"/>
      <point x="461" y="589" type="line"/>
      <point x="492" y="652" type="line"/>
      <point x="548" y="623"/>
      <point x="613" y="514"/>
      <point x="613" y="456" type="qcurve" smooth="yes"/>
      <point x="613" y="380"/>
      <point x="535" y="273"/>
      <point x="392" y="216"/>
      <point x="294" y="216" type="qcurve" smooth="yes"/>
    </contour>
    <contour>
      <point x="376" y="0" type="line"/>
      <point x="194" y="285" type="line"/>
      <point x="444" y="285" type="line"/>
      <point x="628" y="0" type="line"/>
    </contour>
    <contour>
      <point x="57" y="451" type="line"/>
      <point x="57" y="563" type="line"/>
      <point x="678" y="563" type="line"/>
      <point x="678" y="451" type="line"/>
    </contour>
  </outline>
</glyph>
<glyph name="uni20BA" format="2">
  <advance width="798"/>
  <unicode hex="20BA"/>
  <outline>
    <contour>
      <point x="120" y="0" type="line"/>
      <point x="120" y="701" type="line"/>
      <point x="352" y="701" type="line"/>
      <point x="352" y="180" type="line"/>
      <point x="374" y="180" type="line" smooth="yes"/>
      <point x="456" y="180"/>
      <point x="532" y="277"/>
      <point x="532" y="359" type="qcurve"/>
      <point x="768" y="359" type="line"/>
      <point x="769" y="251"/>
      <point x="668" y="89"/>
      <point x="468" y="0"/>
      <point x="319" y="0" type="qcurve" smooth="yes"/>
    </contour>
    <contour>
      <point x="30" y="168" type="line"/>
      <point x="30" y="284" type="line"/>
      <point x="566" y="566" type="line"/>
      <point x="566" y="450" type="line"/>
    </contour>
    <contour>
      <point x="30" y="312" type="line"/>
      <point x="30" y="428" type="line"/>
      <point x="566" y="710" type="line"/>
      <point x="566" y="594" type="line"/>
    </contour>
  </outline>
</glyph>
<glyph name="uni2116" format="2">
  <advance width="1233"/>
  <unicode hex="2116"/>
  <outline>
    <contour>
      <point x="57" y="0" type="line"/>
      <point x="57" y="700" type="line"/>
      <point x="251" y="700" type="line"/>
      <point x="607" y="274" type="line"/>
      <point x="517" y="274" type="line"/>
      <point x="517" y="700" type="line"/>
      <point x="747" y="700" type="line"/>
      <point x="747" y="0" type="line"/>
      <point x="553" y="0" type="line"/>
      <point x="197" y="426" type="line"/>
      <point x="287" y="426" type="line"/>
      <point x="287" y="0" type="line"/>
    </contour>
    <contour>
      <point x="817" y="192" type="line"/>
      <point x="817" y="322" type="line"/>
      <point x="1183" y="322" type="line"/>
      <point x="1183" y="192" type="line"/>
    </contour>
    <contour>
      <point x="1001" y="372" type="qcurve" smooth="yes"/>
      <point x="941" y="372"/>
      <point x="849" y="415"/>
      <point x="797" y="492"/>
      <point x="797" y="542" type="qcurve" smooth="yes"/>
      <point x="797" y="591"/>
      <point x="849" y="667"/>
      <point x="941" y="710"/>
      <point x="1000" y="710" type="qcurve" smooth="yes"/>
      <point x="1060" y="710"/>
      <point x="1151" y="667"/>
      <point x="1203" y="591"/>
      <point x="1203" y="541" type="qcurve" smooth="yes"/>
      <point x="1203" y="492"/>
      <point x="1151" y="415"/>
      <point x="1060" y="372"/>
    </contour>
    <contour>
      <point x="1000" y="482" type="qcurve" smooth="yes"/>
      <point x="1022" y="482"/>
      <point x="1052" y="512"/>
      <point x="1052" y="541" type="qcurve" smooth="yes"/>
      <point x="1052" y="571"/>
      <point x="1022" y="600"/>
      <point x="1000" y="600" type="qcurve" smooth="yes"/>
      <point x="978" y="600"/>
      <point x="948" y="571"/>
      <point x="948" y="541" type="qcurve" smooth="yes"/>
      <point x="948" y="512"/>
      <point x="978" y="482"/>
    </contour>
  </outline>
</glyph>
<glyph name="trademark" format="2">
  <advance width="1067"/>
  <unicode hex="2122"/>
  <outline>
    <contour>
      <point x="465" y="285" type="line"/>
      <point x="465" y="700" type="line"/>
      <point x="596" y="700" type="line"/>
      <point x="774" y="434" type="line"/>
      <point x="705" y="434" type="line"/>
      <point x="878" y="700" type="line"/>
      <point x="1008" y="700" type="line"/>
      <point x="1010" y="285" type="line"/>
      <point x="865" y="285" type="line"/>
      <point x="863" y="497" type="line"/>
      <point x="886" y="497" type="line"/>
      <point x="772" y="321" type="line"/>
      <point x="702" y="321" type="line"/>
      <point x="582" y="497" type="line"/>
      <point x="610" y="497" type="line"/>
      <point x="610" y="285" type="line"/>
    </contour>
    <contour>
      <point x="133" y="285" type="line"/>
      <point x="133" y="586" type="line"/>
      <point x="4" y="586" type="line"/>
      <point x="4" y="700" type="line"/>
      <point x="423" y="700" type="line"/>
      <point x="423" y="586" type="line"/>
      <point x="293" y="586" type="line"/>
      <point x="293" y="285" type="line"/>
    </contour>
  </outline>
</glyph>
<glyph name="uni212B" format="2">
  <advance width="806"/>
  <unicode hex="212B"/>
  <anchor x="403" y="983" name="t.uni0308"/>
  <anchor x="403" y="0" name="b.uni0324_3"/>
  <anchor x="825" y="0" name="m.uni0328_4"/>
  <outline>
    <contour>
      <point x="-19" y="0" type="line"/>
      <point x="287" y="700" type="line"/>
      <point x="519" y="700" type="line"/>
      <point x="825" y="0" type="line"/>
      <point x="581" y="0" type="line"/>
      <point x="355" y="588" type="line"/>
      <point x="447" y="588" type="line"/>
      <point x="221" y="0" type="line"/>
    </contour>
    <contour>
      <point x="163" y="122" type="line"/>
      <point x="223" y="292" type="line"/>
      <point x="545" y="292" type="line"/>
      <point x="605" y="122" type="line"/>
    </contour>
    <contour>
      <point x="403" y="743" type="qcurve" smooth="yes"/>
      <point x="364" y="743"/>
      <point x="300" y="779"/>
      <point x="263" y="840"/>
      <point x="263" y="877" type="qcurve" smooth="yes"/>
      <point x="263" y="915"/>
      <point x="300" y="975"/>
      <point x="364" y="1011"/>
      <point x="403" y="1011" type="qcurve" smooth="yes"/>
      <point x="443" y="1011"/>
      <point x="506" y="975"/>
      <point x="543" y="915"/>
      <point x="543" y="877" type="qcurve" smooth="yes"/>
      <point x="543" y="840"/>
      <point x="506" y="779"/>
      <point x="443" y="743"/>
    </contour>
    <contour>
      <point x="403" y="823" type="qcurve" smooth="yes"/>
      <point x="426" y="823"/>
      <point x="457" y="853"/>
      <point x="457" y="877" type="qcurve" smooth="yes"/>
      <point x="457" y="901"/>
      <point x="426" y="931"/>
      <point x="403" y="931" type="qcurve" smooth="yes"/>
      <point x="381" y="931"/>
      <point x="349" y="901"/>
      <point x="349" y="877" type="qcurve" smooth="yes"/>
      <point x="349" y="853"/>
      <point x="381" y="823"/>
    </contour>
  </outline>
</glyph>
<glyph name="estimated" format="2">
  <advance width="842"/>
  <unicode hex="212E"/>
  <outline>
    <contour>
      <point x="421" y="-3" type="qcurve" smooth="yes"/>
      <point x="340" y="-3"/>
      <point x="198" y="52"/>
      <point x="90" y="149"/>
      <point x="29" y="276"/>
      <point x="29" y="349" type="qcurve" smooth="yes"/>
      <point x="29" y="423"/>
      <point x="90" y="551"/>
      <point x="198" y="648"/>
      <point x="340" y="703"/>
      <point x="421" y="703" type="qcurve" smooth="yes"/>
      <point x="502" y="703"/>
      <point x="645" y="648"/>
      <point x="752" y="551"/>
      <point x="813" y="423"/>
      <point x="813" y="349" type="qcurve" smooth="yes"/>
      <point x="813" y="341" type="line"/>
      <point x="178" y="341" type="line" smooth="yes"/>
      <point x="172" y="341"/>
      <point x="172" y="337" type="qcurve" smooth="yes"/>
      <point x="172" y="145" type="line" smooth="yes"/>
      <point x="172" y="138"/>
      <point x="178" y="127"/>
      <point x="181" y="122" type="qcurve"/>
      <point x="222" y="70"/>
      <point x="352" y="18"/>
      <point x="422" y="18" type="qcurve" smooth="yes"/>
      <point x="498" y="18"/>
      <point x="629" y="82"/>
      <point x="674" y="134" type="qcurve"/>
      <point x="731" y="134" type="line"/>
      <point x="679" y="73"/>
      <point x="515" y="-3"/>
    </contour>
    <contour>
      <point x="178" y="360" type="qcurve" smooth="yes"/>
      <point x="665" y="360" type="line" smooth="yes"/>
      <point x="671" y="360"/>
      <point x="671" y="366" type="qcurve" smooth="yes"/>
      <point x="671" y="559" type="line" smooth="yes"/>
      <point x="671" y="573"/>
      <point x="660" y="582" type="qcurve"/>
      <point x="614" y="628"/>
      <point x="492" y="682"/>
      <point x="422" y="682" type="qcurve" smooth="yes"/>
      <point x="352" y="682"/>
      <point x="229" y="626"/>
      <point x="182" y="579" type="qcurve" smooth="yes"/>
      <point x="178" y="575"/>
      <point x="172" y="563"/>
      <point x="172" y="555" type="qcurve" smooth="yes"/>
      <point x="172" y="366" type="line" smooth="yes"/>
      <point x="172" y="360"/>
    </contour>
  </outline>
</glyph>
<glyph name="uni27E8" format="2">
  <advance width="409"/>
  <unicode hex="27E8"/>
  <outline>
    <contour>
      <point x="183" y="-194" type="line"/>
      <point x="11" y="274" type="line"/>
      <point x="183" y="742" type="line"/>
      <point x="392" y="742" type="line"/>
      <point x="231" y="274" type="line"/>
      <point x="392" y="-194" type="line"/>
    </contour>
  </outline>
</glyph>
<glyph name="E.ss01" format="2">
  <advance width="695"/>
  <anchor x="375" y="700" name="t.uni0308"/>
  <anchor x="375" y="0" name="b.uni0324_3"/>
  <anchor x="645" y="0" name="m.uni0328_4"/>
  <outline>
    <contour>
      <point x="393" y="-16" type="qcurve" smooth="yes"/>
      <point x="272" y="-16"/>
      <point x="109" y="40"/>
      <point x="26" y="139"/>
      <point x="26" y="202" type="qcurve" smooth="yes"/>
      <point x="26" y="254"/>
      <point x="81" y="336"/>
      <point x="186" y="385"/>
      <point x="260" y="385" type="qcurve"/>
      <point x="265" y="333" type="line"/>
      <point x="194" y="333"/>
      <point x="101" y="378"/>
      <point x="55" y="454"/>
      <point x="55" y="498" type="qcurve" smooth="yes"/>
      <point x="55" y="555"/>
      <point x="130" y="654"/>
      <point x="286" y="716"/>
      <point x="407" y="716" type="qcurve" smooth="yes"/>
      <point x="480" y="716"/>
      <point x="617" y="691"/>
      <point x="669" y="670" type="qcurve"/>
      <point x="605" y="498" type="line"/>
      <point x="555" y="518"/>
      <point x="462" y="536"/>
      <point x="416" y="536" type="qcurve" smooth="yes"/>
      <point x="352" y="536"/>
      <point x="293" y="507"/>
      <point x="293" y="483" type="qcurve" smooth="yes"/>
      <point x="293" y="464"/>
      <point x="321" y="440"/>
      <point x="358" y="440" type="qcurve" smooth="yes"/>
      <point x="563" y="440" type="line"/>
      <point x="563" y="266" type="line"/>
      <point x="342" y="266" type="line" smooth="yes"/>
      <point x="315" y="266"/>
      <point x="281" y="254"/>
      <point x="264" y="233"/>
      <point x="264" y="218" type="qcurve" smooth="yes"/>
      <point x="264" y="194"/>
      <point x="327" y="164"/>
      <point x="402" y="164" type="qcurve" smooth="yes"/>
      <point x="454" y="164"/>
      <point x="574" y="192"/>
      <point x="620" y="217" type="qcurve"/>
      <point x="689" y="46" type="line"/>
      <point x="634" y="18"/>
      <point x="476" y="-16"/>
    </contour>
  </outline>
</glyph>
<glyph name="Eng.ss01" format="2">
  <advance width="794"/>
  <outline>
    <contour>
      <point x="482" y="716" type="qcurve" smooth="yes"/>
      <point x="606" y="716"/>
      <point x="743" y="555"/>
      <point x="743" y="405" type="qcurve" smooth="yes"/>
      <point x="743" y="82" type="line" smooth="yes"/>
      <point x="743" y="-62"/>
      <point x="592" y="-204"/>
      <point x="451" y="-204" type="qcurve" smooth="yes"/>
      <point x="394" y="-204"/>
      <point x="295" y="-180"/>
      <point x="254" y="-153" type="qcurve"/>
      <point x="362" y="10" type="line"/>
      <point x="379" y="-2"/>
      <point x="413" y="-13"/>
      <point x="431" y="-13" type="qcurve" smooth="yes"/>
      <point x="507" y="-13"/>
      <point x="507" y="72" type="qcurve" smooth="yes"/>
      <point x="507" y="398" type="line" smooth="yes"/>
      <point x="507" y="464"/>
      <point x="450" y="525"/>
      <point x="403" y="525" type="qcurve" smooth="yes"/>
      <point x="357" y="525"/>
      <point x="293" y="460"/>
      <point x="293" y="390" type="qcurve" smooth="yes"/>
      <point x="293" y="0" type="line"/>
      <point x="57" y="0" type="line"/>
      <point x="57" y="700" type="line"/>
      <point x="286" y="700" type="line"/>
      <point x="286" y="519" type="line"/>
      <point x="250" y="563" type="line"/>
      <point x="281" y="635"/>
      <point x="398" y="716"/>
    </contour>
  </outline>
</glyph>
<glyph name="I.ss01" format="2">
  <advance width="516"/>
  <anchor x="258" y="700" name="t.uni0308"/>
  <anchor x="258" y="0" name="b.uni0324_3"/>
  <anchor x="376" y="0" name="m.uni0328_4"/>
  <outline>
    <contour>
      <point x="140" y="20" type="line"/>
      <point x="140" y="681" type="line"/>
      <point x="376" y="681" type="line"/>
      <point x="376" y="20" type="line"/>
    </contour>
    <contour>
      <point x="35" y="0" type="line"/>
      <point x="35" y="178" type="line"/>
      <point x="481" y="178" type="line"/>
      <point x="481" y="0" type="line"/>
    </contour>
    <contour>
      <point x="35" y="522" type="line"/>
      <point x="35" y="700" type="line"/>
      <point x="481" y="700" type="line"/>
      <point x="481" y="522" type="line"/>
    </contour>
  </outline>
</glyph>
<glyph name="IJ.ss01" format="2">
  <advance width="729"/>
  <anchor x="169" y="700" name="t.uni0308"/>
  <outline>
    <contour>
      <point x="328" y="-110" type="qcurve" smooth="yes"/>
      <point x="238" y="-110"/>
      <point x="86" y="-64"/>
      <point x="31" y="-25" type="qcurve"/>
      <point x="117" y="142" type="line"/>
      <point x="167" y="108"/>
      <point x="273" y="75"/>
      <point x="317" y="75" type="qcurve" smooth="yes"/>
      <point x="382" y="75"/>
      <point x="442" y="142"/>
      <point x="442" y="215" type="qcurve" smooth="yes"/>
      <point x="442" y="700" type="line"/>
      <point x="678" y="700" type="line"/>
      <point x="678" y="231" type="line" smooth="yes"/>
      <point x="678" y="121"/>
      <point x="591" y="-31"/>
      <point x="433" y="-110"/>
    </contour>
    <contour>
      <point x="51" y="236" type="line"/>
      <point x="51" y="700" type="line"/>
      <point x="287" y="700" type="line"/>
      <point x="287" y="236" type="line"/>
    </contour>
  </outline>
</glyph>
<glyph name="Iacute_J.loclNLD.ss01" format="2">
  <advance width="729"/>
  <outline>
    <contour>
      <point x="328" y="-110" type="qcurve" smooth="yes"/>
      <point x="238" y="-110"/>
      <point x="86" y="-64"/>
      <point x="31" y="-25" type="qcurve"/>
      <point x="117" y="142" type="line"/>
      <point x="167" y="111"/>
      <point x="273" y="78"/>
      <point x="317" y="78" type="qcurve" smooth="yes"/>
      <point x="382" y="78"/>
      <point x="442" y="145"/>
      <point x="442" y="218" type="qcurve" smooth="yes"/>
      <point x="442" y="700" type="line"/>
      <point x="678" y="700" type="line"/>
      <point x="678" y="231" type="line" smooth="yes"/>
      <point x="678" y="121"/>
      <point x="591" y="-31"/>
      <point x="433" y="-110"/>
    </contour>
    <contour>
      <point x="51" y="236" type="line"/>
      <point x="51" y="700" type="line"/>
      <point x="287" y="700" type="line"/>
      <point x="287" y="236" type="line"/>
    </contour>
    <contour>
      <point x="64" y="757" type="line"/>
      <point x="196" y="917" type="line"/>
      <point x="411" y="917" type="line"/>
      <point x="214" y="757" type="line"/>
    </contour>
    <contour>
      <point x="454" y="757" type="line"/>
      <point x="586" y="917" type="line"/>
      <point x="801" y="917" type="line"/>
      <point x="604" y="757" type="line"/>
    </contour>
  </outline>
</glyph>
<glyph name="M.ss01" format="2">
  <advance width="1212"/>
  <anchor x="598" y="700" name="t.uni0308"/>
  <anchor x="601" y="0" name="b.uni0324_3"/>
  <outline>
    <contour>
      <point x="896" y="716" type="qcurve" smooth="yes"/>
      <point x="1020" y="716"/>
      <point x="1161" y="568"/>
      <point x="1161" y="425" type="qcurve" smooth="yes"/>
      <point x="1161" y="0" type="line"/>
      <point x="925" y="0" type="line"/>
      <point x="925" y="418" type="line" smooth="yes"/>
      <point x="925" y="471"/>
      <point x="870" y="525"/>
      <point x="824" y="525" type="qcurve" smooth="yes"/>
      <point x="778" y="525"/>
      <point x="719" y="468"/>
      <point x="719" y="410" type="qcurve" smooth="yes"/>
      <point x="719" y="0" type="line"/>
      <point x="483" y="0" type="line"/>
      <point x="483" y="418" type="line" smooth="yes"/>
      <point x="483" y="471"/>
      <point x="433" y="525"/>
      <point x="390" y="525" type="qcurve" smooth="yes"/>
      <point x="361" y="525"/>
      <point x="317" y="500"/>
      <point x="293" y="449"/>
      <point x="293" y="410" type="qcurve" smooth="yes"/>
      <point x="293" y="0" type="line"/>
      <point x="57" y="0" type="line"/>
      <point x="57" y="700" type="line"/>
      <point x="285" y="700" type="line"/>
      <point x="285" y="524" type="line"/>
      <point x="251" y="565" type="line"/>
      <point x="277" y="638"/>
      <point x="392" y="716"/>
      <point x="478" y="716" type="qcurve" smooth="yes"/>
      <point x="567" y="716"/>
      <point x="685" y="633"/>
      <point x="711" y="551" type="qcurve"/>
      <point x="639" y="559" type="line"/>
      <point x="672" y="638"/>
      <point x="808" y="716"/>
    </contour>
  </outline>
</glyph>
<glyph name="N.ss01" format="2">
  <advance width="794"/>
  <anchor x="400" y="700" name="t.uni0308"/>
  <anchor x="400" y="0" name="b.uni0324_3"/>
  <outline>
    <contour>
      <point x="482" y="716" type="qcurve" smooth="yes"/>
      <point x="606" y="716"/>
      <point x="743" y="555"/>
      <point x="743" y="405" type="qcurve" smooth="yes"/>
      <point x="743" y="0" type="line"/>
      <point x="507" y="0" type="line"/>
      <point x="507" y="398" type="line" smooth="yes"/>
      <point x="507" y="464"/>
      <point x="450" y="525"/>
      <point x="403" y="525" type="qcurve" smooth="yes"/>
      <point x="357" y="525"/>
      <point x="293" y="460"/>
      <point x="293" y="390" type="qcurve" smooth="yes"/>
      <point x="293" y="0" type="line"/>
      <point x="57" y="0" type="line"/>
      <point x="57" y="700" type="line"/>
      <point x="286" y="700" type="line"/>
      <point x="286" y="519" type="line"/>
      <point x="250" y="563" type="line"/>
      <point x="281" y="635"/>
      <point x="398" y="716"/>
    </contour>
  </outline>
</glyph>
<glyph name="Q.ss01" format="2">
  <advance width="848"/>
  <outline>
    <contour>
      <point x="306" y="-135" type="line"/>
      <point x="306" y="25" type="line"/>
      <point x="315" y="92" type="line"/>
      <point x="315" y="315" type="line"/>
      <point x="532" y="315" type="line"/>
      <point x="532" y="92" type="line"/>
      <point x="542" y="25" type="line"/>
      <point x="542" y="-135" type="line"/>
    </contour>
    <contour>
      <point x="425" y="-16" type="qcurve" smooth="yes"/>
      <point x="339" y="-16"/>
      <point x="194" y="38"/>
      <point x="88" y="137"/>
      <point x="29" y="271"/>
      <point x="29" y="350" type="qcurve" smooth="yes"/>
      <point x="29" y="430"/>
      <point x="88" y="563"/>
      <point x="194" y="662"/>
      <point x="339" y="716"/>
      <point x="424" y="716" type="qcurve" smooth="yes"/>
      <point x="510" y="716"/>
      <point x="654" y="662"/>
      <point x="760" y="563"/>
      <point x="819" y="430"/>
      <point x="819" y="351" type="qcurve" smooth="yes"/>
      <point x="819" y="271"/>
      <point x="760" y="138"/>
      <point x="654" y="39"/>
      <point x="510" y="-16"/>
    </contour>
    <contour>
      <point x="424" y="175" type="qcurve" smooth="yes"/>
      <point x="462" y="175"/>
      <point x="520" y="198"/>
      <point x="560" y="242"/>
      <point x="581" y="308"/>
      <point x="581" y="350" type="qcurve" smooth="yes"/>
      <point x="581" y="391"/>
      <point x="557" y="456"/>
      <point x="514" y="501"/>
      <point x="457" y="525"/>
      <point x="424" y="525" type="qcurve" smooth="yes"/>
      <point x="391" y="525"/>
      <point x="334" y="501"/>
      <point x="291" y="456"/>
      <point x="267" y="391"/>
      <point x="267" y="350" type="qcurve" smooth="yes"/>
      <point x="267" y="308"/>
      <point x="288" y="242"/>
      <point x="328" y="198"/>
      <point x="386" y="175"/>
    </contour>
  </outline>
</glyph>
<glyph name="T.ss01" format="2">
  <advance width="684"/>
  <anchor x="347" y="701" name="t.uni0308"/>
  <anchor x="341" y="300" name="t.uni0307_1"/>
  <anchor x="342" y="0" name="b.uni0324_3"/>
  <outline>
    <contour>
      <point x="60" y="455" type="qcurve"/>
      <point x="-18" y="623" type="line"/>
      <point x="58" y="669"/>
      <point x="244" y="716"/>
      <point x="342" y="716" type="qcurve" smooth="yes"/>
      <point x="440" y="716"/>
      <point x="626" y="669"/>
      <point x="702" y="623" type="qcurve"/>
      <point x="624" y="455" type="line"/>
      <point x="561" y="490"/>
      <point x="425" y="528"/>
      <point x="342" y="528" type="qcurve" smooth="yes"/>
      <point x="259" y="528"/>
      <point x="123" y="490"/>
    </contour>
    <contour>
      <point x="224" y="0" type="line"/>
      <point x="224" y="606" type="line"/>
      <point x="460" y="606" type="line"/>
      <point x="460" y="0" type="line"/>
    </contour>
  </outline>
</glyph>
<glyph name="U.ss01" format="2">
  <advance width="790"/>
  <anchor x="390" y="700" name="t.uni0308"/>
  <anchor x="628" y="700" name="t.uni031B_2"/>
  <anchor x="390" y="0" name="b.uni0324_3"/>
  <anchor x="733" y="0" name="m.uni0328_4"/>
  <outline>
    <contour>
      <point x="310" y="-16" type="qcurve" smooth="yes"/>
      <point x="188" y="-16"/>
      <point x="51" y="145"/>
      <point x="51" y="295" type="qcurve" smooth="yes"/>
      <point x="51" y="700" type="line"/>
      <point x="287" y="700" type="line"/>
      <point x="287" y="302" type="line" smooth="yes"/>
      <point x="287" y="236"/>
      <point x="343" y="175"/>
      <point x="389" y="175" type="qcurve" smooth="yes"/>
      <point x="433" y="175"/>
      <point x="497" y="240"/>
      <point x="497" y="310" type="qcurve" smooth="yes"/>
      <point x="497" y="700" type="line"/>
      <point x="733" y="700" type="line"/>
      <point x="733" y="0" type="line"/>
      <point x="504" y="0" type="line"/>
      <point x="504" y="181" type="line"/>
      <point x="540" y="137" type="line"/>
      <point x="509" y="65"/>
      <point x="393" y="-16"/>
    </contour>
  </outline>
</glyph>
<glyph name="Y.ss01" format="2">
  <advance width="783"/>
  <anchor x="389" y="700" name="t.uni0308"/>
  <anchor x="681" y="0" name="b.uni0324_3"/>
  <outline>
    <contour>
      <point x="372" y="-110" type="qcurve" smooth="yes"/>
      <point x="275" y="-110"/>
      <point x="120" y="-64"/>
      <point x="65" y="-25" type="qcurve"/>
      <point x="151" y="142" type="line"/>
      <point x="201" y="111"/>
      <point x="309" y="78"/>
      <point x="361" y="78" type="qcurve" smooth="yes"/>
      <point x="434" y="78"/>
      <point x="496" y="145"/>
      <point x="496" y="218" type="qcurve" smooth="yes"/>
      <point x="496" y="344" type="line"/>
      <point x="535" y="298" type="line"/>
      <point x="504" y="233"/>
      <point x="393" y="162"/>
      <point x="317" y="162" type="qcurve" smooth="yes"/>
      <point x="185" y="162"/>
      <point x="46" y="311"/>
      <point x="46" y="453" type="qcurve" smooth="yes"/>
      <point x="46" y="700" type="line"/>
      <point x="282" y="700" type="line"/>
      <point x="282" y="470" type="line" smooth="yes"/>
      <point x="282" y="411"/>
      <point x="333" y="353"/>
      <point x="386" y="353" type="qcurve" smooth="yes"/>
      <point x="432" y="353"/>
      <point x="496" y="408"/>
      <point x="496" y="478" type="qcurve" smooth="yes"/>
      <point x="496" y="700" type="line"/>
      <point x="732" y="700" type="line"/>
      <point x="732" y="231" type="line" smooth="yes"/>
      <point x="732" y="121"/>
      <point x="644" y="-31"/>
      <point x="482" y="-110"/>
    </contour>
  </outline>
</glyph>
<glyph name="ae.sc" format="2">
  <advance width="970"/>
  <anchor x="548" y="582" name="t.uni0308"/>
  <anchor x="548" y="0" name="b.uni0324_3"/>
  <outline>
    <contour>
      <point x="-18" y="0" type="line"/>
      <point x="283" y="582" type="line"/>
      <point x="514" y="582" type="line"/>
      <point x="514" y="414" type="line"/>
      <point x="319" y="414" type="line"/>
      <point x="456" y="503" type="line"/>
      <point x="216" y="0" type="line"/>
    </contour>
    <contour>
      <point x="201" y="90" type="line"/>
      <point x="200" y="244" type="line"/>
      <point x="514" y="244" type="line"/>
      <point x="514" y="90" type="line"/>
    </contour>
    <contour>
      <point x="645" y="372" type="line"/>
      <point x="898" y="372" type="line"/>
      <point x="898" y="218" type="line"/>
      <point x="645" y="218" type="line"/>
    </contour>
    <contour>
      <point x="661" y="165" type="line"/>
      <point x="943" y="165" type="line"/>
      <point x="943" y="0" type="line"/>
      <point x="435" y="0" type="line"/>
      <point x="435" y="582" type="line"/>
      <point x="932" y="582" type="line"/>
      <point x="932" y="417" type="line"/>
      <point x="661" y="417" type="line"/>
    </contour>
  </outline>
</glyph>
<glyph name="ae.sc.ss01" format="2">
  <advance width="966"/>
  <anchor x="481" y="582" name="t.uni0308"/>
  <anchor x="481" y="0" name="b.uni0324_3"/>
  <outline>
    <contour>
      <point x="419" y="0" type="line"/>
      <point x="419" y="582" type="line"/>
      <point x="917" y="582" type="line"/>
      <point x="917" y="417" type="line"/>
      <point x="643" y="417" type="line"/>
      <point x="643" y="374" type="line"/>
      <point x="882" y="374" type="line"/>
      <point x="882" y="217" type="line"/>
      <point x="643" y="217" type="line"/>
      <point x="643" y="165" type="line"/>
      <point x="928" y="165" type="line"/>
      <point x="928" y="0" type="line"/>
    </contour>
    <contour>
      <point x="180" y="113" type="line"/>
      <point x="180" y="278" type="line"/>
      <point x="527" y="278" type="line"/>
      <point x="527" y="113" type="line"/>
    </contour>
    <contour>
      <point x="43" y="0" type="line"/>
      <point x="43" y="310" type="line" smooth="yes"/>
      <point x="43" y="443"/>
      <point x="196" y="582"/>
      <point x="341" y="582" type="qcurve" smooth="yes"/>
      <point x="527" y="582" type="line"/>
      <point x="527" y="405" type="line"/>
      <point x="362" y="405" type="line" smooth="yes"/>
      <point x="307" y="405"/>
      <point x="262" y="360"/>
      <point x="262" y="304" type="qcurve" smooth="yes"/>
      <point x="262" y="0" type="line"/>
    </contour>
  </outline>
</glyph>
<glyph name="ampersand.sc" format="2">
  <advance width="664"/>
  <outline>
    <contour>
      <point x="285" y="-15" type="qcurve" smooth="yes"/>
      <point x="212" y="-15"/>
      <point x="93" y="31"/>
      <point x="22" y="113"/>
      <point x="22" y="167" type="qcurve" smooth="yes"/>
      <point x="22" y="236"/>
      <point x="122" y="334"/>
      <point x="228" y="368" type="qcurve" smooth="yes"/>
      <point x="268" y="381"/>
      <point x="315" y="404"/>
      <point x="335" y="426"/>
      <point x="335" y="435" type="qcurve" smooth="yes"/>
      <point x="335" y="446"/>
      <point x="323" y="461"/>
      <point x="308" y="461" type="qcurve" smooth="yes"/>
      <point x="292" y="461"/>
      <point x="276" y="443"/>
      <point x="276" y="432" type="qcurve" smooth="yes"/>
      <point x="276" y="420"/>
      <point x="301" y="397"/>
      <point x="338" y="367" type="qcurve" smooth="yes"/>
      <point x="649" y="118" type="line"/>
      <point x="533" y="-12" type="line"/>
      <point x="166" y="286" type="line" smooth="yes"/>
      <point x="125" y="319"/>
      <point x="84" y="392"/>
      <point x="84" y="429" type="qcurve" smooth="yes"/>
      <point x="84" y="478"/>
      <point x="139" y="551"/>
      <point x="238" y="593"/>
      <point x="305" y="593" type="qcurve" smooth="yes"/>
      <point x="397" y="593"/>
      <point x="512" y="510"/>
      <point x="512" y="439" type="qcurve" smooth="yes"/>
      <point x="512" y="397"/>
      <point x="469" y="328"/>
      <point x="383" y="275"/>
      <point x="318" y="255" type="qcurve" smooth="yes"/>
      <point x="287" y="246"/>
      <point x="248" y="224"/>
      <point x="230" y="199"/>
      <point x="230" y="184" type="qcurve" smooth="yes"/>
      <point x="230" y="168"/>
      <point x="262" y="140"/>
      <point x="299" y="140" type="qcurve" smooth="yes"/>
      <point x="338" y="140"/>
      <point x="414" y="188"/>
      <point x="475" y="276"/>
      <point x="492" y="335" type="qcurve"/>
      <point x="656" y="287" type="line"/>
      <point x="636" y="201"/>
      <point x="529" y="64"/>
      <point x="376" y="-15"/>
    </contour>
  </outline>
</glyph>
<glyph name="brevecombcy.case" format="2">
  <outline>
    <contour>
      <point x="246" y="740" type="qcurve" smooth="yes"/>
      <point x="127" y="740"/>
      <point x="28" y="829"/>
      <point x="28" y="912" type="qcurve"/>
      <point x="185" y="912" type="line"/>
      <point x="185" y="879"/>
      <point x="212" y="848"/>
      <point x="246" y="848" type="qcurve" smooth="yes"/>
      <point x="281" y="848"/>
      <point x="309" y="879"/>
      <point x="309" y="912" type="qcurve"/>
      <point x="466" y="912" type="line"/>
      <point x="466" y="829"/>
      <point x="365" y="740"/>
    </contour>
  </outline>
</glyph>
<glyph name="brevecombcy" format="2">
  <outline>
    <contour>
      <point x="228" y="592" type="qcurve" smooth="yes"/>
      <point x="123" y="592"/>
      <point x="28" y="677"/>
      <point x="28" y="767" type="qcurve"/>
      <point x="173" y="767" type="line"/>
      <point x="173" y="736"/>
      <point x="195" y="701"/>
      <point x="227" y="701" type="qcurve" smooth="yes"/>
      <point x="258" y="701"/>
      <point x="283" y="736"/>
      <point x="283" y="767" type="qcurve"/>
      <point x="430" y="767" type="line"/>
      <point x="430" y="677"/>
      <point x="333" y="592"/>
    </contour>
  </outline>
</glyph>
